<svg width="347" height="149" viewBox="0 0 347 149" fill="none" xmlns="http://www.w3.org/2000/svg">
<g clip-path="url(#clip0_533_2048)">
<path d="M203.258 29.4587C193.815 24.8592 187.261 16.0355 185.436 5.86441C185.036 3.6311 183.099 2.00391 180.824 2.00391H166.206C163.932 2.00391 161.995 3.63343 161.595 5.86441C159.772 16.0355 153.216 24.8592 143.773 29.4587C121.222 40.4528 105.686 63.5528 105.686 90.278C105.686 113.558 117.48 134.093 135.433 146.269C137.88 147.929 140.764 148.829 143.724 148.829H203.31C206.269 148.829 209.151 147.929 211.598 146.269C229.551 134.1 241.345 113.562 241.345 90.278C241.345 63.5528 225.809 40.4528 203.258 29.4587ZM173.515 119.787C157.175 119.787 143.929 106.576 143.929 90.278C143.929 73.9804 157.175 60.774 173.515 60.774C189.856 60.774 203.102 73.9851 203.102 90.278C203.102 106.571 189.856 119.787 173.515 119.787Z" fill="#DDD6CF"/>
<path d="M126.06 9.01261C126.06 8.72587 126.109 8.43679 126.109 8.14772C126.109 7.85865 126.018 7.57191 126.018 7.28517C126.018 6.99843 125.924 6.70936 125.924 6.42262C125.924 6.13588 125.983 5.84681 125.983 5.56007C125.983 5.27333 126.128 4.98425 126.13 4.69751C126.133 4.41077 125.946 4.1217 125.946 3.83263C125.946 3.54356 126.081 3.25682 126.083 2.97008C126.083 2.73229 126.048 2.48985 126.074 2.25206C126.1 2.01428 126.205 1.78582 126.242 1.55036C126.287 1.28227 126.359 1.13541 126.485 1.00719C126.626 0.864984 126.768 0.844003 127.028 0.834678C127.315 0.825353 127.43 0.834678 127.568 0.962895C127.689 1.07712 127.79 1.20301 127.872 1.4781C127.944 1.72987 128.07 1.96532 128.098 2.22176C128.126 2.47819 128.105 2.73929 128.11 2.99805C128.115 3.25682 128.126 3.51325 128.126 3.77202C128.126 4.03778 128.224 4.30587 128.224 4.57163C128.224 4.83739 128.073 5.10548 128.075 5.37357C128.077 5.64166 128.009 5.90742 128.012 6.17318C128.014 6.43894 128.154 6.7047 128.157 6.97279C128.159 7.24088 128.058 7.50664 128.061 7.77473C128.063 8.04282 128.203 8.30625 128.206 8.57434C128.208 8.84476 128.089 9.11751 128.091 9.39026C128.094 9.66302 128.035 9.93344 128.037 10.2039C128.04 10.4743 128.238 10.7447 128.241 11.0175C128.243 11.2902 128.159 11.5606 128.161 11.8311C128.164 12.1015 128.194 12.3742 128.199 12.6447C128.203 12.9151 128.267 13.1855 128.274 13.4559C128.281 13.7263 128.18 14.0014 128.189 14.2718C128.201 14.5679 128.304 14.8593 128.327 15.1554C128.351 15.4514 128.372 15.7452 128.402 16.0412C128.432 16.3373 128.339 16.645 128.372 16.9388C128.404 17.2325 128.5 17.5216 128.531 17.8153C128.559 18.095 128.673 18.3655 128.708 18.6452C128.743 18.925 128.816 19.2001 128.849 19.4775C128.881 19.7549 128.699 20.0603 128.727 20.34C128.753 20.6058 128.839 20.8669 128.888 21.1256C128.937 21.3844 129.162 21.6059 129.227 21.86C129.293 22.1141 129.337 22.3728 129.416 22.6269C129.496 22.881 129.601 23.1212 129.685 23.3706C129.769 23.62 129.84 23.8765 129.924 24.1283C130.036 24.4593 130.122 24.7787 130.309 25.0584C130.496 25.3382 130.744 25.5526 131.018 25.7764C131.317 26.0189 131.534 26.1075 131.801 26.1354C132.067 26.1634 132.282 26.0911 132.626 25.914C132.857 25.7951 133.093 25.7065 133.301 25.5596C133.509 25.4128 133.745 25.2962 133.939 25.1283C134.133 24.9605 134.381 24.8439 134.563 24.6621C134.746 24.4803 134.893 24.2611 135.071 24.0746C135.265 23.8695 135.372 23.5827 135.564 23.3776C135.755 23.1725 135.991 23.0046 136.183 22.7971C136.375 22.5896 136.662 22.4731 136.856 22.2679C137.05 22.0628 137.118 21.7388 137.314 21.5359C137.511 21.3331 137.815 21.2352 138.013 21.0324C138.212 20.8296 138.38 20.6034 138.581 20.4053C138.782 20.2071 139.002 20.03 139.208 19.8388C139.413 19.6476 139.572 19.4029 139.785 19.2164C139.988 19.0392 140.189 18.8597 140.388 18.6779C140.587 18.496 140.727 18.2489 140.923 18.0647C141.12 17.8806 141.351 17.7314 141.547 17.5472C141.744 17.363 141.963 17.2022 142.16 17.018C142.356 16.8339 142.585 16.6847 142.784 16.4982C142.982 16.3117 143.209 16.1648 143.408 15.9806C143.583 15.8198 143.733 15.6939 143.936 15.6053C144.139 15.5167 144.315 15.3699 144.572 15.3932C144.988 15.4328 145.196 15.6263 145.348 15.9736C145.504 16.3303 145.282 16.5355 145.051 16.7849C144.866 16.9807 144.794 17.2838 144.609 17.4796C144.425 17.6754 144.151 17.7897 143.966 17.9855C143.782 18.1813 143.693 18.468 143.508 18.6639C143.324 18.8597 143.022 18.9483 142.838 19.1441C142.653 19.3399 142.524 19.5894 142.342 19.7875C142.153 19.9927 141.91 20.1489 141.72 20.354C141.531 20.5592 141.491 20.8995 141.302 21.1047C141.113 21.3098 140.874 21.4683 140.685 21.6735C140.496 21.8786 140.294 22.0721 140.105 22.2773C139.916 22.4824 139.705 22.6689 139.519 22.8741C139.332 23.0792 139.184 23.324 138.997 23.5315C138.81 23.7389 138.574 23.9021 138.387 24.1073C138.2 24.3124 138.1 24.5968 137.913 24.8066C137.726 25.0164 137.466 25.1563 137.282 25.3638C137.113 25.5526 137.041 25.8114 136.894 26.0142C136.746 26.217 136.524 26.3709 136.398 26.5877C136.272 26.8045 136.136 27.019 136.027 27.2451C135.917 27.4712 135.851 27.7183 135.755 27.9515C135.624 28.2662 135.536 28.5669 135.529 28.856C135.522 29.1707 135.589 29.4784 135.695 29.7768C135.793 30.0589 135.87 30.3783 136.041 30.6557C136.204 30.9214 136.475 31.0963 136.674 31.2991C136.887 31.5159 137.132 31.6721 137.38 31.8306C137.628 31.9891 137.829 32.2642 138.102 32.3808C138.376 32.4973 138.675 32.5649 138.965 32.6489C139.254 32.7328 139.544 32.7934 139.836 32.861C140.133 32.9286 140.442 32.9426 140.741 32.9822C141.04 33.0219 141.339 33.1058 141.641 33.1244C141.942 33.1431 142.251 32.9962 142.552 33.0009C142.854 33.0056 143.155 33.1781 143.457 33.1781C143.758 33.1781 144.06 33.0172 144.361 33.0149C144.663 33.0125 144.965 33.1268 145.266 33.1314C145.537 33.1384 145.811 33.0988 146.084 33.1035C146.358 33.1081 146.631 33.0149 146.902 33.0172C147.173 33.0195 147.447 33.0802 147.718 33.0848C147.989 33.0895 148.26 33.2177 148.534 33.22C148.807 33.2224 149.081 33.0149 149.352 33.0172C149.623 33.0195 149.894 33.1804 150.167 33.1827C150.441 33.1851 150.712 33.0918 150.986 33.0965C151.259 33.1011 151.53 33.0568 151.804 33.0592C152.1 33.0638 152.397 33.1711 152.696 33.1757C152.996 33.1804 153.292 33.1804 153.589 33.1874C153.886 33.1944 154.188 33.1244 154.485 33.1314C154.781 33.1384 155.076 33.3203 155.375 33.3273C155.674 33.3343 155.973 33.1874 156.273 33.1944C156.523 33.2014 156.761 33.3669 157.011 33.3995C157.079 33.4089 157.126 33.4065 157.184 33.4392C157.448 33.5884 157.5 33.7236 157.493 33.938C157.486 34.1642 157.563 34.381 157.61 34.5954C157.663 34.8309 157.404 35.05 157.079 35.0827C156.785 35.113 156.497 35.1876 156.203 35.1946C155.934 35.2016 155.665 35.3158 155.396 35.3228C155.127 35.3298 154.856 35.3484 154.587 35.3554C154.319 35.3624 154.047 35.3158 153.776 35.3228C153.505 35.3298 153.234 35.2435 152.965 35.2505C152.696 35.2575 152.428 35.3578 152.159 35.3624C151.89 35.3671 151.621 35.4557 151.35 35.4603C151.079 35.465 150.808 35.3741 150.539 35.3787C150.27 35.3834 149.997 35.2925 149.728 35.2971C149.459 35.3018 149.188 35.3228 148.919 35.3274C148.658 35.3321 148.398 35.4137 148.136 35.4137C147.875 35.4137 147.615 35.3321 147.353 35.3298C147.092 35.3274 146.83 35.5023 146.568 35.5023C146.306 35.5023 146.044 35.3251 145.785 35.3274C145.525 35.3298 145.261 35.3881 145.002 35.3951C144.724 35.4044 144.446 35.5349 144.165 35.5349C143.885 35.5349 143.609 35.4277 143.328 35.423C143.048 35.4184 142.772 35.4976 142.492 35.5C142.211 35.5023 141.935 35.465 141.657 35.4813C141.379 35.4976 141.092 35.4254 140.813 35.4627C140.535 35.5 140.283 35.6492 140.009 35.7168C139.738 35.7844 139.451 35.8007 139.177 35.8753C138.904 35.9499 138.64 36.0501 138.376 36.1457C138.111 36.2413 137.866 36.3812 137.618 36.5117C137.342 36.6586 137.029 36.7425 136.807 36.9383C136.585 37.1341 136.407 37.4069 136.235 37.654C136.062 37.9011 135.926 38.1715 135.811 38.4559C135.697 38.7404 135.671 39.0318 135.615 39.3372C135.559 39.6355 135.578 39.9712 135.702 40.2487C135.809 40.4911 135.919 40.7336 136.029 40.976C136.139 41.2184 136.277 41.4422 136.403 41.6754C136.529 41.9085 136.601 42.1743 136.753 42.3911C136.908 42.6102 136.978 42.8899 137.139 43.1021C137.3 43.3142 137.499 43.5007 137.667 43.7082C137.836 43.9157 137.995 44.1325 138.17 44.333C138.345 44.5334 138.563 44.699 138.74 44.8971C138.918 45.0953 139.079 45.3097 139.261 45.5056C139.444 45.7014 139.687 45.8366 139.871 46.0301C140.056 46.2236 140.14 46.508 140.325 46.7015C140.51 46.895 140.743 47.0395 140.926 47.233C141.108 47.4265 141.283 47.627 141.466 47.8228C141.655 48.028 141.898 48.1818 142.087 48.387C142.277 48.5921 142.447 48.8136 142.639 49.0164C142.831 49.2192 143.055 49.3917 143.244 49.5945C143.434 49.7973 143.52 50.1004 143.712 50.3032C143.903 50.506 144.212 50.5993 144.404 50.8021C144.621 51.0352 144.901 51.2101 145.116 51.4455C145.338 51.6903 145.451 51.9351 145.479 52.1169C145.509 52.3151 145.444 52.5808 145.261 52.8512C145.166 52.9935 144.852 53.0028 144.609 53.0377C144.399 53.0681 144.207 53.0144 144.018 52.9305C143.794 52.8303 143.515 52.786 143.331 52.6205C143.12 52.4316 142.945 52.2055 142.737 52.0143C142.529 51.8232 142.337 51.6157 142.132 51.4222C141.926 51.2287 141.65 51.1122 141.442 50.921C141.22 50.7159 141.113 50.3895 140.891 50.1867C140.668 49.9838 140.4 49.83 140.178 49.6272C139.956 49.4244 139.741 49.2145 139.521 49.0071C139.301 48.7996 139.018 48.6597 138.806 48.4476C138.621 48.2634 138.513 48.0046 138.331 47.8181C138.149 47.6316 138.009 47.4055 137.826 47.219C137.644 47.0325 137.473 46.8367 137.293 46.6479C137.113 46.459 136.81 46.3891 136.63 46.2003C136.45 46.0114 136.333 45.7643 136.153 45.5755C135.973 45.3867 135.8 45.1908 135.62 45.0044C135.44 44.8179 135.215 44.671 135.033 44.4845C134.82 44.2654 134.608 44.0486 134.39 43.8364C134.173 43.6243 133.937 43.4331 133.701 43.2396C133.465 43.0461 133.191 42.9319 132.927 42.7734C132.658 42.6125 132.485 42.3724 132.263 42.3071C131.971 42.2209 131.709 42.2698 131.466 42.3538C131.24 42.433 130.938 42.4866 130.721 42.7104C130.557 42.8806 130.403 43.1184 130.23 43.3702C130.071 43.6033 130.022 43.904 129.905 44.1558C129.788 44.4076 129.692 44.671 129.608 44.9391C129.524 45.2072 129.402 45.4613 129.33 45.7317C129.258 46.0021 129.325 46.3098 129.251 46.5779C129.178 46.839 128.979 47.0652 128.923 47.3286C128.867 47.592 128.937 47.8788 128.893 48.1468C128.849 48.4149 128.711 48.6644 128.678 48.9325C128.645 49.2006 128.732 49.4803 128.704 49.7507C128.676 50.0211 128.507 50.2729 128.482 50.541C128.456 50.8091 128.577 51.0935 128.552 51.3616C128.521 51.6577 128.416 51.9467 128.381 52.2405C128.346 52.5342 128.386 52.8303 128.379 53.1263C128.372 53.3944 128.234 53.6579 128.229 53.9259C128.224 54.194 128.304 54.4621 128.299 54.7302C128.295 54.9983 128.241 55.2641 128.236 55.5322C128.231 55.8002 128.173 56.066 128.171 56.3341C128.168 56.6022 128.178 56.8703 128.175 57.136C128.173 57.4018 128.264 57.6722 128.259 57.9403C128.255 58.2084 128.131 58.4742 128.126 58.7399C128.122 59.029 128.129 59.3157 128.122 59.6048C128.115 59.8939 128.138 60.1829 128.131 60.4697C128.124 60.7564 128.054 61.0432 128.044 61.3322C128.035 61.6213 128.159 61.9127 128.152 62.1994C128.145 62.4862 128.084 62.7753 128.08 63.062C128.075 63.3208 128.131 63.5795 128.136 63.8383C128.14 64.0971 128.133 64.3558 128.136 64.6146C128.138 64.8734 128.15 65.1345 128.143 65.3932C128.136 65.6543 128.126 65.9224 128.101 66.1835C128.075 66.4446 128.03 66.7104 127.984 66.9668C127.928 67.2652 127.741 67.4051 127.617 67.5333C127.472 67.6848 127.32 67.8363 127.03 67.8294C126.761 67.8224 126.584 67.6988 126.446 67.5543C126.327 67.4284 126.303 67.2349 126.254 66.9598C126.21 66.7243 126.107 66.4982 126.079 66.2604C126.051 66.0227 126.1 65.7802 126.097 65.5424C126.093 65.2487 126.011 64.9549 126.009 64.6612C126.006 64.3675 125.955 64.0737 125.955 63.78C125.955 63.4863 126.123 63.1925 126.123 62.8988C126.123 62.6051 126.025 62.3113 126.025 62.0176C126.025 61.7239 126.118 61.4301 126.116 61.1364C126.114 60.8427 125.988 60.5489 125.983 60.2552C125.978 59.9615 126.023 59.6654 126.02 59.3717C126.018 59.0779 126.03 58.7819 126.027 58.4881C126.025 58.1944 125.896 57.9007 125.894 57.6069C125.892 57.3132 125.988 57.0171 125.983 56.7234C125.978 56.4297 125.845 56.1383 125.84 55.8422C125.836 55.5461 125.95 55.2501 125.943 54.9563C125.936 54.6626 125.894 54.3689 125.882 54.0751C125.871 53.7814 125.96 53.483 125.943 53.1893C125.929 52.9095 125.775 52.6368 125.752 52.357C125.728 52.0773 125.812 51.7859 125.782 51.5061C125.752 51.2264 125.677 50.9513 125.642 50.6739C125.607 50.3965 125.536 50.1214 125.501 49.8416C125.466 49.5619 125.371 49.2915 125.335 49.0117C125.3 48.732 125.422 48.4359 125.394 48.1562C125.368 47.8904 125.254 47.634 125.202 47.3775C125.151 47.1211 125.104 46.8553 125.034 46.5989C124.964 46.3425 124.845 46.1024 124.765 45.8483C124.686 45.5942 124.581 45.3517 124.499 45.0999C124.417 44.8482 124.298 44.608 124.218 44.3539C124.139 44.0998 124.031 43.8854 123.905 43.6662C123.779 43.4471 123.683 43.2047 123.508 43.0135C123.332 42.8223 123.206 42.5799 122.993 42.4214C122.711 42.2115 122.393 42.2046 122.054 42.2955C121.776 42.3701 121.519 42.482 121.268 42.6079C121.018 42.7337 120.803 42.9202 120.579 43.0928C120.355 43.2653 120.074 43.3725 119.873 43.5753C119.681 43.7711 119.555 44.0299 119.366 44.2304C119.177 44.4309 118.889 44.5358 118.702 44.7363C118.515 44.9367 118.429 45.2305 118.242 45.431C118.055 45.6315 117.774 45.7457 117.587 45.9438C117.4 46.142 117.239 46.3681 117.047 46.5639C116.856 46.7598 116.725 47.0162 116.528 47.2074C116.332 47.3985 116.094 47.5454 115.897 47.7342C115.701 47.923 115.575 48.1865 115.376 48.3753C115.177 48.5641 114.986 48.76 114.787 48.9464C114.588 49.1329 114.376 49.3078 114.175 49.4943C113.974 49.6808 113.698 49.7834 113.497 49.9699C113.296 50.1564 113.17 50.4221 112.971 50.6086C112.772 50.7951 112.471 50.8744 112.272 51.0609C112.073 51.2474 111.849 51.4082 111.648 51.597C111.482 51.7532 111.36 51.9607 111.195 52.1169C111.029 52.2731 110.926 52.5016 110.755 52.6531C110.444 52.9258 110.075 52.9818 109.619 52.9655C109.233 52.9515 108.874 53.0028 108.726 52.6065C108.588 52.2335 108.761 51.9444 109.032 51.66C109.226 51.4572 109.378 51.2147 109.572 51.0119C109.766 50.8091 109.991 50.6343 110.185 50.4314C110.379 50.2286 110.636 50.0841 110.828 49.8813C111.019 49.6785 111.19 49.45 111.382 49.2472C111.573 49.0444 111.65 48.7273 111.842 48.5245C112.034 48.3217 112.286 48.1725 112.48 47.9673C112.674 47.7622 112.88 47.5734 113.071 47.3682C113.263 47.1654 113.368 46.881 113.558 46.6782C113.747 46.4754 113.95 46.2819 114.14 46.0767C114.329 45.8716 114.612 45.7527 114.799 45.5452C114.986 45.3377 115.117 45.0813 115.301 44.8715C115.484 44.6617 115.666 44.4495 115.851 44.2397C116.035 44.0299 116.159 43.7711 116.339 43.5567C116.519 43.3422 116.802 43.214 116.972 42.9925C117.143 42.771 117.194 42.4657 117.351 42.2349C117.508 42.0041 117.774 41.8386 117.905 41.5891C118.036 41.3397 118.127 41.0716 118.235 40.8105C118.342 40.5494 118.468 40.2953 118.562 40.0319C118.655 39.7661 118.716 39.4817 118.681 39.2369C118.646 38.9921 118.387 38.7916 118.27 38.5515C118.153 38.3114 118.059 38.083 117.928 37.8592C117.791 37.6237 117.601 37.4605 117.431 37.2787C117.248 37.0829 117.141 36.8264 116.93 36.6796C116.72 36.5327 116.517 36.3392 116.278 36.2273C116.04 36.1154 115.766 36.0944 115.516 36.0128C115.266 35.9312 114.995 35.9522 114.74 35.8869C114.427 35.8077 114.13 35.6771 113.815 35.6235C113.499 35.5699 113.184 35.4906 112.863 35.4627C112.543 35.4347 112.221 35.5233 111.898 35.5233C111.625 35.5233 111.351 35.4347 111.078 35.4347C110.804 35.4347 110.531 35.3834 110.26 35.3834C109.988 35.3834 109.713 35.5676 109.439 35.5676C109.166 35.5676 108.892 35.5349 108.619 35.5326C108.345 35.5303 108.074 35.3834 107.801 35.3834C107.527 35.3834 107.254 35.3578 106.983 35.3578C106.711 35.3578 106.436 35.3624 106.162 35.3601C105.889 35.3578 105.615 35.5023 105.342 35.5C105.068 35.4976 104.797 35.3391 104.524 35.3368C104.25 35.3344 103.977 35.3811 103.703 35.3787C103.43 35.3764 103.156 35.4067 102.883 35.4044C102.593 35.3997 102.301 35.4557 102.011 35.451C101.721 35.4463 101.434 35.2762 101.144 35.2668C100.854 35.2575 100.564 35.2575 100.274 35.2482C99.9846 35.2389 99.6948 35.2365 99.4049 35.2272C99.1151 35.2179 98.8206 35.3111 98.5308 35.3018C98.2409 35.2925 97.9511 35.2762 97.6613 35.2668C97.479 35.2622 97.3037 35.1713 97.1237 35.1433C97.0559 35.1316 96.9437 35.2202 96.8853 35.1899C96.4014 34.9288 96.537 34.4136 96.4949 34.0313C96.4646 33.7445 96.6889 33.5114 97.0092 33.4275C97.2733 33.3576 97.5351 33.269 97.8085 33.262C98.082 33.255 98.3531 33.2387 98.6243 33.2317C98.8954 33.2247 99.1689 33.1967 99.44 33.1897C99.7111 33.1827 99.9823 33.1011 100.256 33.0941C100.529 33.0871 100.803 33.192 101.076 33.1851C101.35 33.1781 101.618 33.0871 101.892 33.0825C102.165 33.0778 102.436 33.0871 102.71 33.0825C102.983 33.0778 103.255 33.0941 103.528 33.0895C103.801 33.0848 104.073 33.0172 104.344 33.0125C104.615 33.0079 104.891 33.1594 105.164 33.1547C105.442 33.1501 105.72 33.1221 105.999 33.1198C106.277 33.1175 106.555 33.1058 106.835 33.1058C107.116 33.1058 107.392 33.0079 107.672 33.0079C107.953 33.0079 108.231 33.1361 108.509 33.1361C108.787 33.1361 109.065 33.0871 109.346 33.0848C109.626 33.0825 109.904 33.0941 110.182 33.0918C110.461 33.0895 110.741 33.1384 111.019 33.1314C111.276 33.1268 111.536 33.1221 111.793 33.1128C112.05 33.1035 112.309 33.0755 112.564 33.0568C112.819 33.0382 113.083 33.0382 113.338 33.0079C113.593 32.9776 113.854 32.9426 114.107 32.896C114.397 32.8424 114.637 32.5743 114.925 32.4904C115.212 32.4064 115.507 32.3831 115.787 32.2805C116.068 32.178 116.33 32.0428 116.603 31.9309C116.846 31.8306 117.022 31.6931 117.201 31.5229C117.381 31.3527 117.662 31.2548 117.809 31.0473C117.956 30.8398 117.956 30.5368 118.094 30.3293C118.274 30.0566 118.506 29.8304 118.574 29.5483C118.644 29.25 118.569 28.9399 118.524 28.6345C118.482 28.3478 118.489 28.0261 118.361 27.73C118.242 27.4572 118.132 27.1728 117.992 26.9117C117.851 26.6506 117.552 26.4805 117.389 26.2333C117.225 25.9862 117.029 25.7764 116.835 25.548C116.664 25.3475 116.556 25.0957 116.383 24.8976C116.21 24.6994 116.115 24.436 115.942 24.2378C115.769 24.0397 115.507 23.9208 115.334 23.7226C115.161 23.5245 115.009 23.3077 114.834 23.1118C114.658 22.916 114.535 22.6736 114.359 22.4801C114.184 22.2866 113.908 22.1793 113.733 21.9859C113.544 21.7784 113.431 21.501 113.24 21.2958C113.048 21.0907 112.852 20.8902 112.66 20.685C112.468 20.4799 112.305 20.2491 112.113 20.044C111.921 19.8388 111.66 19.6989 111.468 19.4938C111.276 19.2886 111.176 18.9972 110.984 18.7921C110.792 18.5869 110.451 18.5217 110.257 18.3188C110.063 18.116 109.89 17.8922 109.699 17.6871C109.451 17.4213 109.252 17.1089 108.995 16.8502C108.717 16.5704 108.628 16.2511 108.771 15.885C108.916 15.5097 109.243 15.4957 109.591 15.4654C109.83 15.4444 110.026 15.4887 110.213 15.5727C110.4 15.6566 110.655 15.6939 110.818 15.8454C111.01 16.0203 111.185 16.2138 111.374 16.3909C111.564 16.5681 111.692 16.8105 111.882 16.9877C112.071 17.1649 112.23 17.377 112.419 17.5519C112.62 17.7384 112.931 17.8036 113.132 17.9878C113.333 18.172 113.534 18.3608 113.738 18.5426C113.941 18.7245 114.074 18.9856 114.275 19.1721C114.476 19.3586 114.64 19.5824 114.838 19.7689C115.037 19.9554 115.254 20.1255 115.448 20.319C115.657 20.5265 115.9 20.6967 116.103 20.9065C116.306 21.1163 116.526 21.3145 116.727 21.5266C116.928 21.7387 117.171 21.9136 117.372 22.1257C117.573 22.3379 117.732 22.592 117.933 22.8041C118.134 23.0163 118.26 23.3007 118.464 23.5128C118.667 23.725 118.99 23.8205 119.195 24.0303C119.399 24.2378 119.513 24.5316 119.719 24.7344C119.925 24.9372 120.14 25.1377 120.362 25.3218C120.584 25.506 120.789 25.7275 121.044 25.8767C121.325 26.0422 121.624 26.0515 121.839 26.1261C122.15 26.231 122.402 26.3056 122.641 26.224C122.867 26.1471 123.11 26.0049 123.337 25.7671C123.498 25.5969 123.709 25.4034 123.898 25.1517C124.066 24.9279 124.216 24.6504 124.321 24.38C124.426 24.1096 124.459 23.8182 124.555 23.5571C124.648 23.3053 124.59 23.0046 124.667 22.7505C124.744 22.4964 124.91 22.2656 124.976 22.0068C125.041 21.7481 125.188 21.5056 125.242 21.2422C125.296 20.9788 125.195 20.6897 125.242 20.4263C125.289 20.1628 125.347 19.9041 125.382 19.6383C125.417 19.3726 125.595 19.1255 125.623 18.8597C125.651 18.5939 125.667 18.3258 125.691 18.0577C125.719 17.7547 125.553 17.433 125.59 17.1299C125.628 16.8269 125.679 16.5308 125.712 16.2277C125.745 15.9247 125.801 15.6309 125.812 15.3279C125.822 15.0645 125.843 14.8034 125.852 14.5399C125.861 14.2765 125.889 14.0154 125.896 13.752C125.903 13.4886 125.896 13.2251 125.901 12.964C125.906 12.7029 125.969 12.4395 125.974 12.1761C125.978 11.9126 125.95 11.6492 125.955 11.3858C125.96 11.1224 125.896 10.8589 125.901 10.5955C125.906 10.3321 126.069 10.0733 126.074 9.80988C126.079 9.54646 125.992 9.28303 125.997 9.0196C126.006 9.0196 126.06 9.0196 126.069 9.0196L126.06 9.01261Z" fill="#D16A1B"/>
<path d="M99.9955 130.069H89.8678V148.831H60.5668V130.069H0.515625V102.829L45.9139 24.3555H89.8654V96.3343H99.9932V130.069H99.9955ZM60.5644 96.3343V54.1205H58.5754L33.6148 96.3343H60.5644Z" fill="#DDD6CF"/>
<path d="M346.515 130.069H336.387V148.831H307.086V130.069H247.037V102.829L292.435 24.3555H336.387V96.3343H346.515V130.069ZM307.084 96.3343V54.1205H305.095L280.134 96.3343H307.084Z" fill="#DDD6CF"/>
</g>
<defs>
<clipPath id="clip0_533_2048">
<rect width="346" height="148" fill="white" transform="translate(0.515625 0.832031)"/>
</clipPath>
</defs>
</svg>
