<?xml version="1.0" encoding="UTF-8"?><svg id="Capa_2" xmlns="http://www.w3.org/2000/svg" xmlns:xlink="http://www.w3.org/1999/xlink" viewBox="0 0 53.13 115.53"><defs><style>.cls-1{fill:url(#Degradado_sin_nombre_19);}.cls-2{fill:url(#Degradado_sin_nombre_19-2);}</style><linearGradient id="Degradado_sin_nombre_19" x1="-2.71" y1="103.5" x2="23.5" y2="77.3" gradientUnits="userSpaceOnUse"><stop offset="0" stop-color="#b28b50"/><stop offset=".39" stop-color="#eed0a3"/><stop offset="1" stop-color="#b28b50"/></linearGradient><linearGradient id="Degradado_sin_nombre_19-2" x1="-19.52" y1="95.88" x2="63.96" y2="12.4" xlink:href="#Degradado_sin_nombre_19"/></defs><g id="Modo_de_aislamiento"><g><path class="cls-1" d="M20.39,103.6v-26.41c0-4.01-3.26-7.27-7.27-7.27H4.66v40.95H13.12c4.01,0,7.27-3.26,7.27-7.27Zm-12.24,3.77v-33.71c0-.13,.1-.23,.23-.23h4.73c2.08,0,3.77,1.69,3.77,3.77v26.4c0,2.08-1.69,3.77-3.77,3.77h-4.96Z"/><path class="cls-2" d="M52.97,1.44c-2.06-.68-10.5-3.14-16.08,.51-2.76,1.8-4.28,5.66-3.19,8.51,.04,.1,0,.21-.07,.28-4.27,3.66-6.56,6.72-7.47,8.09-.13,.2-.43,.09-.42-.14,.1-2.29-.15-4.3-.5-5.94-.02-.11,.04-.22,.14-.26,1.87-.76,3.27-2.68,1.98-5.83-1.77-4.32-7.43-5.35-9.18-5.57-.2-.03-.33,.2-.22,.36,1.98,2.94,1.21,7.29,2.67,10.04,.37,.7,1.14,1.14,2.04,1.3,.14,.03,.28-.09,.28-.23,0-2.08-.26-3.44-.37-3.94-.03-.12,.04-.24,.16-.28,0,0,.41-.12,.68-.19,.12-.04,.26,.04,.29,.17,.34,1.41,1.78,9.02-3.71,20.28-2.75,5.63-3.06,18.1-3.09,23.8v8.37h.12s-.12,0-.12,0v.75c0,2.08-1.69,3.77-3.77,3.77h-4.73c-.13,0-.23-.1-.23-.23V32.83h4.96c1.72,0,3.17,1.15,3.62,2.72,.02,.05,.06,.08,.11,.08h.12c.06,0,.1-.04,.11-.1,.26-1.55,.56-3.01,.93-4.31-1.29-1.18-3.01-1.9-4.9-1.9H4.66v39.45H13.12c4.01,0,7.27-3.26,7.27-7.27v-5.71s.26-15.95,.5-18.27c.4-3.7,1.12-7.4,2.29-10.93l.11,.04c-1.02,4.06-1.62,7.5-1.86,11.82-.01,.28,.39,.34,.46,.07,0-.02,0-.03,.01-.05,.8-2.31,1.65-4.44,3.52-6.4,.16-.18,.34-.37,.52-.56l.03,.03c-.32,.35-.61,.72-.87,1.08-1.68,2.43-2.64,5.31-3.12,8.21-.41,2.46-.42,14.96-.42,14.96v5.71c0,3.46-2.17,6.6-5.36,7.85,3.19,1.26,5.36,4.39,5.36,7.85v26.41c0,4.65-3.79,8.44-8.44,8.44H3.49V28.15H13.12c1.99,0,3.82,.7,5.27,1.86,.01-.02,.02-.04,.03-.06,.22-.64,.46-1.23,.72-1.77,.21-.43,.41-.85,.6-1.27,.05-.1,.01-.23-.08-.29-1.88-1.23-4.12-1.95-6.54-1.95H.23c-.13,0-.23,.1-.23,.23V115.3c0,.13,.1,.23,.23,.23H13.12c6.59,0,11.93-5.34,11.93-11.93v-26.4c0-3-1.12-5.75-2.96-7.85,1.84-2.1,2.96-4.85,2.96-7.85v-21.88c.02-10.5,10.03-12.75,11.71-13.05,.13-.03,.25,.07,.27,.2l.09,.69c.02,.12-.07,.24-.19,.26-.69,.12-2.84,.59-5.04,1.88-.12,.07-.15,.23-.07,.34,.5,.69,1.24,1.25,2.26,1.58,5.25,1.68,5.66-3.83,11.64-4.54,.23-.02,.28-.33,.08-.43-2.08-1.06-8.25-3.98-11.72-3.05-1.76,.48-3,2.18-3.18,3.82,0,.09-.06,.16-.14,.19-.62,.21-3.24,1.17-5.3,2.61-.17,.12-.39-.02-.36-.22,.34-2.31,2.49-12,15.55-24.28,.09-.09,.25-.08,.33,.01,.13,.15,.32,.37,.46,.53,.08,.1,.07,.24-.02,.32-.66,.59-3.14,2.84-5.91,5.96-.09,.1-.08,.27,.04,.35,.84,.55,1.92,.94,3.3,1.08,6.74,.71,6.25-7.13,14.15-11.99,.17-.1,.14-.35-.04-.42Z"/></g></g></svg>