<svg width="41" height="89" viewBox="0 0 41 89" fill="none" xmlns="http://www.w3.org/2000/svg">
<g clip-path="url(#clip0_522_93)">
<path d="M10.1259 53.8672H3.59766V85.4111H10.1259C13.2195 85.4111 15.7361 82.8991 15.7361 79.8111V59.4673C15.7361 56.3792 13.2195 53.8672 10.1259 53.8672ZM13.0311 79.8097C13.0311 81.4134 11.7284 82.7151 10.1219 82.7151H6.29199V56.746C6.29199 56.648 6.37291 56.5672 6.47241 56.5672H10.1219C11.7284 56.5672 13.0311 57.8663 13.0311 59.4699V79.8097Z" fill="#DDD6CF"/>
<path d="M40.9138 1.43145C34.818 5.17498 35.1961 11.2147 29.9919 10.6651C28.9266 10.5526 28.0868 10.256 27.4421 9.83222C27.3519 9.77263 27.3386 9.64551 27.4103 9.56473C29.5474 7.16394 31.4577 5.42923 31.9685 4.97635C32.0415 4.91146 32.0481 4.80155 31.9844 4.72607C31.8823 4.60954 31.735 4.43872 31.6329 4.32087C31.5652 4.24539 31.4485 4.24009 31.3755 4.31027C21.2973 13.7691 19.6377 21.2323 19.3777 23.0147C19.3551 23.1696 19.5263 23.2756 19.6563 23.1855C21.2495 22.0745 23.2753 21.3356 23.7502 21.1727C23.8139 21.1515 23.855 21.0933 23.8616 21.0271C23.9969 19.7704 24.9521 18.4541 26.3132 18.0873C28.9863 17.367 33.7501 19.6168 35.3553 20.4365C35.5132 20.5173 35.4694 20.753 35.2956 20.7715C30.683 21.321 30.362 25.5665 26.3132 24.2727C25.5252 24.0211 24.9508 23.5868 24.5687 23.0584C24.5063 22.9723 24.5302 22.8505 24.6218 22.7962C26.3145 21.8017 27.9728 21.4455 28.5087 21.3502C28.6042 21.333 28.6679 21.2442 28.6546 21.1489L28.5817 20.6139C28.5671 20.512 28.4729 20.4418 28.3721 20.4616C27.0733 20.6934 19.3445 22.4321 19.3326 30.5177V47.3748C19.3326 49.6895 18.469 51.8056 17.0495 53.4238C18.469 55.0393 19.3326 57.1568 19.3326 59.4701V79.8113C19.3326 84.887 15.2108 89 10.126 89H0.179091C0.0809228 89 0 88.9192 0 88.8212V19.1811C0 19.0805 0.0809228 19.001 0.179091 19.001H10.126C11.9872 19.001 13.7211 19.5532 15.1697 20.5014C15.2427 20.549 15.2705 20.647 15.2334 20.7278C15.0888 21.0483 14.9349 21.3753 14.7731 21.7064C14.5714 22.1169 14.387 22.5737 14.2159 23.0677C14.2106 23.0836 14.2026 23.0995 14.192 23.1127C13.0763 22.2189 11.6635 21.6826 10.1246 21.6826H2.69698V86.3092H10.1246C13.7144 86.3092 16.6356 83.3946 16.6356 79.8113V59.4675C16.6356 56.8019 14.9588 54.3865 12.5006 53.4185C14.9588 52.4518 16.6356 50.0352 16.6356 47.3695V42.9745C16.6356 42.9745 16.6462 33.3475 16.9593 31.4539C17.3281 29.2252 18.071 27.0019 19.3684 25.1308C19.5714 24.8527 19.7956 24.564 20.0423 24.2979L20.0211 24.278C19.8805 24.421 19.7465 24.568 19.6205 24.707C18.1811 26.2166 17.5218 27.8587 16.9049 29.6344C16.9009 29.6463 16.8983 29.6583 16.8969 29.6702C16.8386 29.8781 16.5295 29.8317 16.5401 29.6146C16.7218 26.2868 17.1875 23.6331 17.9755 20.5067L17.8879 20.4775C16.9818 23.2014 16.4273 26.0471 16.1209 28.8982C15.9325 30.6885 15.7348 42.9745 15.7348 42.9745V47.3695C15.7348 50.4576 13.2183 52.9696 10.1246 52.9696H3.59642V22.5804H10.1246C11.5799 22.5804 12.9052 23.1365 13.9028 24.0463C13.6189 25.0527 13.3814 26.1756 13.1838 27.37C13.1772 27.4137 13.14 27.4455 13.0962 27.4455H12.9994C12.9596 27.4455 12.9264 27.419 12.9145 27.3819C12.5643 26.1716 11.4446 25.287 10.1207 25.287H6.29075V50.1014C6.29075 50.2007 6.37168 50.2815 6.47117 50.2815H10.1207C11.7272 50.2815 13.0299 48.9811 13.0299 47.3775V46.8014V40.3552C13.0485 35.9668 13.2926 26.3623 15.4138 22.0216C19.6523 13.348 18.5446 7.48705 18.2793 6.39855C18.2567 6.29923 18.1532 6.24229 18.0564 6.27142C17.8494 6.32969 17.5337 6.41974 17.5337 6.41974C17.4435 6.44887 17.3891 6.54024 17.4103 6.63426C17.4992 7.01563 17.7009 8.0644 17.6969 9.66802C17.6969 9.7819 17.5921 9.86797 17.4807 9.84811C16.7868 9.72496 16.1965 9.38861 15.91 8.84966C14.7837 6.72828 15.382 3.37803 13.8511 1.11628C13.7635 0.98916 13.8643 0.818337 14.0182 0.8382C15.3727 1.0077 19.7412 1.79958 21.1063 5.12863C22.1052 7.55723 21.0267 9.03769 19.582 9.62035C19.5011 9.65213 19.4546 9.73555 19.4732 9.81898C19.7465 11.0836 19.9349 12.6316 19.8606 14.3928C19.8539 14.5742 20.0874 14.655 20.1882 14.5027C20.8913 13.4486 22.6557 11.0929 25.9523 8.27363C26.0134 8.22066 26.0359 8.13459 26.0067 8.05911C25.163 5.86622 26.3384 2.89602 28.4663 1.50693C32.7751 -1.30702 39.2887 0.583952 40.8793 1.11099C41.0239 1.15998 41.0438 1.35199 40.9138 1.43145Z" fill="#DDD6CF"/>
</g>
<defs>
<clipPath id="clip0_522_93">
<rect width="41" height="89" fill="white"/>
</clipPath>
</defs>
</svg>
