<svg width="150" height="84" viewBox="0 0 150 84" fill="none" xmlns="http://www.w3.org/2000/svg">
<path d="M17.7227 73.2812H18.6608L20.7846 79.9845H20.8269C20.8269 79.9845 20.5528 77.1967 20.5528 76.3142V73.2812H21.6804V83.1043H20.7422L18.6185 76.4011H18.5762C18.5762 76.4011 18.8503 79.1599 18.8503 80.0558V83.1043H17.7227V73.2812Z" fill="#F5F5F5"/>
<path d="M23.7734 73.2812H24.901V83.1043H23.7734V73.2812Z" fill="#F5F5F5"/>
<path d="M26.9983 73.2812H28.1259V77.7605H28.4156L29.5432 73.2812H30.6842L29.4407 78.1794L30.7689 83.1043H29.6123L28.4134 78.6407H28.1237V83.1043H26.9961V73.2812H26.9983Z" fill="#F5F5F5"/>
<path d="M32.385 73.2812H33.5126V77.7605H33.8023L34.9299 73.2812H36.0709L34.8274 78.1794L36.1556 83.1043H34.999L33.8001 78.6407H33.5104V83.1043H32.3828V73.2812H32.385Z" fill="#F5F5F5"/>
<path d="M37.7734 73.2812H40.432V74.235H38.901V77.5866H40.2871V78.4825H38.901V82.1528H40.432V83.1065H37.7734V73.2835V73.2812Z" fill="#F5F5F5"/>
<path d="M42.1211 73.2812H43.2487V83.1043H42.1211V73.2812Z" fill="#F5F5F5"/>
<path d="M67.5273 73.2852H69.1653L70.0856 78.2413C70.2171 78.9722 70.3486 80.5811 70.3486 80.5811H70.4065C70.4065 80.5811 70.538 78.9722 70.6695 78.2413L71.5898 73.2852H73.2278V83.2263H72.0868V78.5042C72.0868 77.7889 72.2339 75.215 72.2339 75.215H72.1603C72.1603 75.215 71.8394 77.3788 71.7213 78.0206L70.772 83.2241H69.9831L69.0182 78.0206C68.9001 77.3922 68.5948 75.215 68.5948 75.215H68.5212C68.5212 75.215 68.6683 77.7866 68.6683 78.5042V83.2263H67.5273V73.2852Z" fill="#F5F5F5"/>
<path d="M75.2734 79.7321V73.2852H76.4144V80.463C76.4144 81.0469 76.4144 81.5884 76.5169 81.9093C76.6194 82.2302 76.8378 82.3773 77.1297 82.3773C77.4217 82.3773 77.6423 82.2302 77.7426 81.9093C77.8451 81.5884 77.8451 81.0313 77.8451 80.463V73.2852H78.9861V79.7321C78.9861 81.3544 78.9281 81.9539 78.7231 82.4219C78.4601 83.0213 77.8607 83.3422 77.1297 83.3422C76.3988 83.3422 75.7994 83.0213 75.5364 82.4219C75.3314 81.9539 75.2734 81.3544 75.2734 79.7321Z" fill="#F5F5F5"/>
<path d="M80.8856 79.6573H82.0266C82.0266 80.9587 82.0266 81.469 82.1291 81.908C82.2026 82.2289 82.4366 82.376 82.7419 82.376C83.0472 82.376 83.2544 82.2289 83.3547 81.908C83.4283 81.674 83.4572 81.1035 83.4572 80.7091C83.4572 79.9202 83.3547 79.6862 82.9893 79.3208L81.7034 78.006C81.1486 77.4511 80.8856 76.8516 80.8856 75.6237C80.8856 75.2003 80.9146 74.5273 81.104 74.1039C81.3825 73.4889 81.9218 73.168 82.7419 73.168C83.562 73.168 84.1458 73.4889 84.3932 74.1039C84.5982 74.6009 84.5982 75.8733 84.5982 77.0277H83.4572C83.4572 75.6973 83.4572 74.8193 83.3837 74.5563C83.2968 74.2644 83.0762 74.1329 82.7397 74.1329C82.4032 74.1329 82.1692 74.3089 82.0956 74.5719C82.0221 74.8505 82.0221 75.3474 82.0221 75.6237C82.0221 76.5151 82.138 76.807 82.548 77.2171L83.8338 78.5475C84.3598 79.1024 84.5937 79.5703 84.5937 80.6222C84.5937 81.0166 84.5782 81.8657 84.3442 82.4049C84.0656 83.049 83.5687 83.3409 82.7352 83.3409C81.9887 83.3409 81.3469 83.049 81.0839 82.4049C80.8789 81.908 80.8789 81.2929 80.8789 79.6573H80.8856Z" fill="#F5F5F5"/>
<path d="M86.5742 73.2852H87.7152V83.2263H86.5742V73.2852Z" fill="#F5F5F5"/>
<path d="M89.6875 78.2556C89.6875 76.4126 89.6875 74.8505 89.9505 74.1329C90.1689 73.5201 90.7839 73.168 91.5438 73.168C92.3037 73.168 92.8898 73.5045 93.1372 74.1173C93.3867 74.7168 93.3867 76.1497 93.4001 77.5224H92.2591C92.2591 76.4104 92.2591 75.0956 92.1566 74.6142C92.0831 74.2777 91.8068 74.1307 91.5438 74.1307C91.2653 74.1307 91.0023 74.2777 90.931 74.6276C90.8151 75.2115 90.8285 76.7759 90.8285 78.2533C90.8285 79.7308 90.8285 81.2796 90.931 81.8634C91.0045 82.2289 91.2809 82.376 91.5438 82.376C91.8068 82.376 92.0853 82.2289 92.1566 81.879C92.2591 81.4111 92.2591 80.4617 92.2591 79.3074H93.4001C93.3845 80.7403 93.3845 81.7632 93.1372 82.3916C92.8742 83.02 92.2591 83.3409 91.5438 83.3409C90.8285 83.3409 90.1689 83.0044 89.9505 82.376C89.6875 81.6161 89.6875 80.1386 89.6875 78.2533V78.2556Z" fill="#F5F5F5"/>
<path d="M117.633 73.2852H119.416C119.957 73.2852 120.483 73.401 120.791 73.7375C121.287 74.308 121.303 75.2284 121.303 76.0039C121.303 76.5588 121.303 77.1872 120.938 77.5972C120.806 77.7443 120.646 77.8312 120.485 77.9048V77.9204C120.661 77.9783 120.835 78.0808 120.953 78.2123C121.303 78.5778 121.348 79.0903 121.348 80.0686C121.348 81.1806 121.348 82.1589 120.924 82.6848C120.603 83.0792 120.135 83.2263 119.594 83.2263H117.635V73.2852H117.633ZM119.373 77.5683C119.681 77.5683 119.886 77.4813 120.002 77.2474C120.149 76.9688 120.162 76.356 120.162 76.0039C120.162 75.683 120.147 74.9654 120.002 74.5866C119.915 74.3682 119.723 74.2501 119.389 74.2501H118.774V77.5683H119.373ZM119.46 82.2614C119.768 82.2614 119.957 82.1455 120.06 81.9115C120.207 81.5617 120.207 80.4942 120.207 80.0686C120.207 79.6162 120.191 78.9878 120.046 78.7538C119.944 78.5778 119.754 78.4752 119.433 78.4752H118.776V82.2614H119.462H119.46Z" fill="#F5F5F5"/>
<path d="M124.286 73.2852H125.53L127.005 83.2263H125.85L125.601 81.3544H124.213L123.963 83.2263H122.809L124.284 73.2852H124.286ZM125.498 80.4474L125.251 78.7516C125.12 77.8736 124.959 75.4913 124.959 75.4913H124.857C124.857 75.4913 124.696 77.8736 124.565 78.7516L124.317 80.4474H125.501H125.498Z" fill="#F5F5F5"/>
<path d="M128.612 73.2835H130.424C131.008 73.2835 131.52 73.3994 131.812 73.7359C132.325 74.3063 132.325 75.4607 132.325 76.2206C132.325 76.9805 132.251 77.6825 131.944 78.0323C131.828 78.1794 131.665 78.2819 131.476 78.3399V78.3555C131.652 78.4134 131.797 78.5159 131.928 78.6474C132.265 78.9839 132.323 79.5098 132.323 80.3432V83.2224H131.182V80.2407C131.182 79.8753 131.182 79.4229 131.034 79.1889C130.916 78.9995 130.698 78.9103 130.361 78.9103H129.746V83.2224H128.605V73.2812L128.612 73.2835ZM130.366 78.0056C130.687 78.0056 130.907 77.9031 131.023 77.6847C131.17 77.4061 131.184 76.6462 131.184 76.2228C131.184 75.9019 131.199 74.9793 131.023 74.5849C130.921 74.3665 130.731 74.2484 130.395 74.2484H129.751V78.0056H130.366Z" fill="#F5F5F5"/>
<path d="M106.519 73.168H106.054C105.947 73.168 105.857 73.2059 105.784 73.2816C105.71 73.3574 105.668 73.4532 105.652 73.5691L104.367 83.1916C104.358 83.2362 104.367 83.2718 104.396 83.3008C104.425 83.3298 104.462 83.3454 104.511 83.3454H104.977C105.084 83.3454 105.173 83.3075 105.247 83.2317C105.32 83.1559 105.363 83.0601 105.378 82.9442L106.664 73.3217C106.673 73.2772 106.664 73.2415 106.635 73.2125C106.606 73.1836 106.568 73.168 106.519 73.168Z" fill="#FF5C00"/>
<path d="M56.3904 73.168H55.9246C55.8177 73.168 55.7285 73.2059 55.655 73.2816C55.5814 73.3574 55.5391 73.4532 55.5235 73.5691L54.2377 83.1916C54.2288 83.2362 54.2377 83.2718 54.2667 83.3008C54.2956 83.3298 54.3335 83.3454 54.3825 83.3454H54.8483C54.9552 83.3454 55.0444 83.3075 55.1179 83.2317C55.1915 83.1559 55.2338 83.0601 55.2494 82.9442L56.5352 73.3217C56.5441 73.2772 56.5352 73.2415 56.5063 73.2125C56.4773 73.1836 56.4394 73.168 56.3904 73.168Z" fill="#FF5C00"/>
<path d="M26.0074 38.7656H20.7794C20.717 38.7656 20.668 38.8147 20.668 38.877V64.4977C20.668 64.5601 20.717 64.6091 20.7794 64.6091H26.0074C28.5411 64.6091 30.5958 62.5545 30.5958 60.0207V43.354C30.5958 40.8203 28.5411 38.7656 26.0074 38.7656ZM28.3874 60.0207C28.3874 61.3355 27.3199 62.4029 26.0051 62.4029H22.9856C22.9232 62.4029 22.8741 62.3539 22.8741 62.2915V41.1211C22.8741 41.0387 22.941 40.974 23.0212 40.974H26.0074C27.3222 40.974 28.3874 42.0392 28.3874 43.354V60.0207Z" fill="#F5F5F5"/>
<path d="M26.0074 13.1328H20.7794C20.717 13.1328 20.668 13.1818 20.668 13.2442V37.92C20.668 37.9824 20.717 38.0314 20.7794 38.0314H26.0074C28.5411 38.0314 30.5958 35.9768 30.5958 33.443V17.7212C30.5958 15.1875 28.5411 13.1328 26.0074 13.1328ZM28.3874 33.443C28.3874 34.7578 27.3222 35.823 26.0074 35.823H23.0212C22.941 35.823 22.8741 35.7584 22.8741 35.6759V15.4526C22.8741 15.3902 22.9232 15.3412 22.9856 15.3412H26.0074C27.3222 15.3412 28.3874 16.4064 28.3874 17.7212V33.443Z" fill="#F5F5F5"/>
<path d="M33.5358 17.7197C33.5358 13.5614 30.1642 10.1875 26.0058 10.1875H17.8697C17.7873 10.1875 17.7227 10.2544 17.7227 10.3346V67.4055C17.7227 67.4879 17.7873 67.5526 17.8697 67.5526H26.0058C30.1642 67.5526 33.5358 64.1809 33.5358 60.0204V43.3537C33.5358 41.4573 32.8316 39.7235 31.6684 38.3976C32.8316 37.0717 33.5358 35.3379 33.5358 33.4415V17.7197ZM31.3296 33.4415C31.3296 35.6254 29.9591 37.6043 27.9468 38.3976C29.9591 39.1909 31.3296 41.1698 31.3296 43.3537V60.0204C31.3296 62.9575 28.9407 65.3464 26.0058 65.3464H20.0403C19.9779 65.3464 19.9288 65.2974 19.9288 65.235V12.5073C19.9288 12.4449 19.9779 12.3959 20.0403 12.3959H26.0058C28.9452 12.3959 31.3296 14.7804 31.3296 17.7197V33.4415Z" fill="#F5F5F5"/>
<path d="M78.168 64.5489H78.1747C78.4911 64.3461 78.7853 64.1121 79.0504 63.8492C78.7808 64.1099 78.4844 64.3439 78.168 64.5489ZM82.3396 62.677C82.3753 62.5856 82.4087 62.4943 82.4377 62.4029V62.3984C82.4065 62.492 82.3731 62.5834 82.3396 62.677ZM81.3101 64.5467C81.3168 64.5355 81.3235 64.5266 81.3302 64.5177C81.3235 64.5288 81.3146 64.5378 81.3079 64.5467H81.3101ZM78.1747 64.5489C78.4911 64.3461 78.7853 64.1121 79.0504 63.8492C78.7808 64.1099 78.4844 64.3439 78.168 64.5489H78.1747Z" fill="#F5F5F5"/>
<path d="M149.898 28.5308C148.597 28.0984 143.269 26.5474 139.743 28.8539C138.003 29.9926 137.042 32.4261 137.733 34.2222C137.755 34.2846 137.738 34.356 137.689 34.4005C134.99 36.7092 133.548 38.6413 132.973 39.5059C132.891 39.6285 132.699 39.5639 132.706 39.4146C132.766 37.9705 132.61 36.7003 132.387 35.6663C132.371 35.5972 132.412 35.5281 132.476 35.5014C133.66 35.0267 134.54 33.8122 133.724 31.8222C132.605 29.0946 129.033 28.4438 127.926 28.3057C127.801 28.2901 127.718 28.4282 127.788 28.533C129.04 30.3871 128.552 33.1325 129.472 34.8707C129.708 35.3142 130.19 35.5883 130.758 35.6886C130.849 35.7042 130.934 35.6284 130.934 35.5348C130.939 34.2245 130.774 33.3687 130.7 33.0545C130.682 32.9788 130.727 32.903 130.8 32.8807C130.8 32.8807 131.059 32.8049 131.228 32.7581C131.309 32.7336 131.393 32.7827 131.411 32.8629C131.627 33.7543 132.534 38.5566 129.067 45.6676C127.333 49.2243 127.132 57.0952 127.117 60.6897C127.097 61.2981 126.849 61.8663 126.413 62.2964C125.965 62.7332 125.379 62.9739 124.755 62.9739H124.701C123.424 62.9583 122.381 61.9064 122.381 60.6295V17.306C122.381 13.1878 119.123 9.73813 115.007 9.66014C110.793 9.58214 107.341 12.985 107.341 17.179V60.605C107.339 61.2468 107.087 61.8463 106.631 62.2964C106.183 62.7332 105.594 62.9739 104.97 62.9739H104.919C103.642 62.9493 102.599 61.8841 102.599 60.6095V17.306C102.599 13.1878 99.3412 9.73813 95.2252 9.66014C91.0112 9.58214 87.5593 12.985 87.5593 17.179V60.0323C87.5593 61.3426 86.4964 62.4034 85.1883 62.4034H84.0406C84.0027 62.4034 83.9671 62.4212 83.947 62.4546C83.8066 62.6819 83.2272 63.5711 82.3893 64.3555C82.3158 64.4246 82.367 64.5472 82.4673 64.5472H85.2105C87.2496 64.5449 89.1237 63.063 89.5739 61.0953C89.712 60.576 89.7098 60.0033 89.7076 59.4507C89.7076 59.3281 89.7076 59.2078 89.7076 59.0897V56.9771C89.712 52.3775 89.7098 47.2922 89.7076 41.9104C89.7031 33.2484 89.6964 24.2922 89.7321 16.7979C90.0129 13.5243 92.6491 11.8195 95.1094 11.8195C97.0615 11.8195 98.7618 12.8268 99.7713 14.5828C100.27 15.4363 100.489 16.5082 100.438 17.8564C100.438 20.4147 100.438 25.4666 100.438 30.4584C100.438 35.0936 100.438 39.6731 100.438 42.1578C100.447 42.5656 100.442 45.1618 100.435 48.4487C100.426 53.6611 100.411 60.8011 100.464 61.1242C100.721 63.3794 102.702 65.1399 104.977 65.1399C105.365 65.1399 105.75 65.0887 106.129 64.9884C108.023 64.5226 109.476 62.6975 109.512 60.7409C109.512 54.2361 109.53 24.0404 109.53 17.4219V17.1567L109.545 16.8714C109.548 16.8447 109.55 16.818 109.55 16.7912C109.55 16.7377 109.55 16.6842 109.559 16.6308L109.608 16.3076C109.991 13.7583 112.262 11.8396 114.891 11.8396C115.424 11.8396 115.952 11.922 116.458 12.0847C117.907 12.5371 119.137 13.6424 119.747 15.0374C120.046 15.7015 120.2 16.4659 120.195 17.2481L120.184 60.5783C120.182 61.5677 120.503 62.5393 121.084 63.3148C121.945 64.4892 123.275 65.16 124.737 65.16C126.664 65.16 128.347 64.0123 129.022 62.2385C129.107 62.0401 129.169 61.7928 129.225 61.5766L129.236 61.5298C129.307 61.1376 129.339 60.7543 129.332 60.2997C129.336 59.9476 129.339 59.5643 129.339 59.0986H129.334V58.947L129.339 58.8133C129.339 58.4389 129.334 58.0512 129.332 57.659C129.318 55.4573 129.263 48.2972 131.456 43.5082L131.734 43.5952C130.765 46.198 130.17 48.6649 130.036 52.7764C130.036 52.7764 130.988 48.6493 133.312 46.9245L133.477 47.1674C133.053 47.4705 132.692 47.9317 132.425 48.2994C131.507 49.6276 130.869 51.3056 130.48 53.4204C130.23 54.7286 130.098 56.2417 130.074 58.0445C130.076 59.8897 130.067 60.8969 130.045 61.1265C129.916 62.3699 129.359 63.5288 128.481 64.3912C127.939 64.9193 127.279 65.3338 126.573 65.5901C125.994 65.8018 125.381 65.9087 124.752 65.9087C124.614 65.9087 124.476 65.9021 124.338 65.8932C121.849 65.7372 119.705 63.6491 119.464 61.1421H119.475C119.46 61.044 119.451 60.8746 119.437 60.5849L119.424 17.2481C119.429 16.5617 119.299 15.9221 119.043 15.3472C118.517 14.1527 117.465 13.2101 116.226 12.8223C115.796 12.6842 115.348 12.6128 114.894 12.6128C112.679 12.6128 110.693 14.2887 110.374 16.428C110.314 16.7556 110.307 17.1299 110.31 17.4219C110.307 20.2832 110.31 28.0271 110.31 36.2858C110.31 46.2559 110.314 56.9771 110.31 60.7588C110.27 63.0675 108.558 65.2179 106.33 65.7661C105.888 65.8842 105.429 65.9444 104.973 65.9444C102.296 65.9444 99.963 63.8719 99.6621 61.2267C99.6131 60.8145 99.6175 60.2796 99.622 59.7626C99.6242 59.5131 99.6265 59.2746 99.622 59.0718C99.6064 53.7725 99.6109 47.5819 99.6175 41.0302C99.622 32.5464 99.6287 23.7774 99.5908 16.8157C99.339 14.0881 97.1194 12.6552 95.0559 12.6552C93.3979 12.6552 91.9605 13.5131 91.107 15.0084C90.8018 15.5656 90.6168 16.2007 90.5722 16.8469C90.5522 17.2146 90.5522 17.7896 90.5544 18.2999C90.5544 18.5316 90.5566 18.7523 90.5544 18.9328C90.5544 23.4655 90.5566 28.5374 90.5588 33.7431C90.5588 42.452 90.5633 51.5307 90.5588 59.0919C90.5588 59.1988 90.5588 59.3103 90.5611 59.4195C90.5611 60.0434 90.5655 60.6897 90.4029 61.2958C89.868 63.6335 87.6396 65.3984 85.2217 65.3984H85.1704C85.1704 65.3984 83.4879 65.3962 80.8338 65.3895C80.7358 65.3895 80.6868 65.2714 80.7536 65.2001C80.9497 64.9951 81.1347 64.7767 81.3063 64.5494C81.3063 64.5494 81.3219 64.5293 81.3286 64.5182C81.3352 64.5093 81.3419 64.5004 81.3486 64.4892C81.3664 64.4692 81.382 64.4469 81.3976 64.4246C81.44 64.3689 81.4801 64.3087 81.5202 64.2508C81.5982 64.1394 81.6717 64.0257 81.7386 63.9076C81.7742 63.8519 81.8077 63.7939 81.8411 63.7338C81.8901 63.6513 81.9347 63.5644 81.9793 63.4797C82.0706 63.3059 82.1531 63.1299 82.2289 62.9494C82.2667 62.8602 82.3024 62.7688 82.338 62.6775C82.3715 62.5839 82.4049 62.4925 82.4361 62.3989H82.4383C82.6835 61.6546 82.8172 60.8591 82.8172 60.0323V17.306C82.8172 13.1878 79.5592 9.73813 75.441 9.66014C71.2292 9.58214 67.7751 12.985 67.7751 17.179V60.0323C67.7751 60.8078 67.8932 61.5543 68.1115 62.2608C68.1338 62.3321 68.0826 62.4034 68.0068 62.4034H64.2563C64.2184 62.4034 64.1828 62.4212 64.1627 62.4546C64.0223 62.6819 63.4429 63.5711 62.6028 64.3577C62.5293 64.4268 62.5805 64.5494 62.6808 64.5494H67.6124L75.2716 64.5984H75.2983C77.7964 64.5984 79.8199 62.575 79.8199 60.0769V17.4352C79.8199 17.2859 79.8199 17.1344 79.8088 16.9985C79.7842 16.3522 79.6193 15.7104 79.3296 15.1377C78.4984 13.5644 77.041 12.6619 75.3318 12.6619C73.1746 12.6619 70.8459 14.2396 70.7746 17.1678V60.0791C70.7768 60.8591 70.9751 61.5967 71.325 62.2385C71.3673 62.312 71.3139 62.4034 71.2292 62.4034H70.5473C70.5027 62.4034 70.4626 62.3789 70.4447 62.3387C70.2531 61.9465 70.1149 61.5298 70.0325 61.0997C69.9656 60.732 69.93 60.3398 69.9255 59.9677C69.9322 59.7649 69.93 57.2579 69.9255 54.8355C69.9255 52.7274 69.9211 50.7374 69.9255 50.4521C69.9433 45.5495 69.9344 39.165 69.93 32.9921C69.9211 27.3363 69.9166 21.9969 69.93 17.6915H69.9367C69.93 17.6046 69.93 17.4508 69.93 17.1634C69.93 17.0965 69.9367 17.0363 69.9389 16.9762C69.9456 16.8492 69.95 16.7199 69.9612 16.5929C70.1216 15.0731 70.9729 13.6424 72.2364 12.7666C73.1434 12.1382 74.193 11.8061 75.2694 11.8061C77.8187 11.8061 80.5308 13.7338 80.6578 16.9606C80.6756 21.1835 80.6712 34.4607 80.6667 45.1306C80.6667 51.7001 80.6622 57.376 80.6667 59.7782C80.6712 60.4156 80.6065 60.9816 80.4661 61.4607C80.3815 61.7816 80.2634 62.0981 80.1118 62.3989C80.0316 62.5638 79.9402 62.7265 79.8377 62.8825C79.7731 62.985 79.704 63.0875 79.6305 63.1856C79.6149 63.2079 79.597 63.2279 79.5814 63.2502C79.5502 63.2925 79.5168 63.3349 79.4812 63.3772C79.4277 63.4463 79.3697 63.5131 79.3096 63.58C79.2695 63.6268 79.2271 63.6714 79.1825 63.7182C79.1402 63.7627 79.0956 63.8073 79.0511 63.8496C78.7859 64.1126 78.4917 64.3466 78.1753 64.5494C77.373 65.0597 76.4237 65.365 75.4053 65.3828C71.0085 65.3784 65.7182 65.3695 60.8178 65.3628C61.0718 65.1087 61.3081 64.8369 61.5242 64.5494C61.5844 64.4714 61.6423 64.3912 61.698 64.3109C61.698 64.3087 61.7025 64.3043 61.7047 64.302C61.7604 64.2196 61.8161 64.1371 61.8696 64.0524C61.9209 63.9722 61.9699 63.892 62.0167 63.8095C62.0947 63.6781 62.1682 63.5443 62.2351 63.4062C62.2685 63.3438 62.2997 63.2814 62.3287 63.2168C62.4535 62.9538 62.5627 62.6819 62.654 62.4034C62.654 62.4034 62.654 62.4019 62.654 62.3989C62.9014 61.6546 63.0351 60.8591 63.0351 60.0323V17.306C63.0351 13.1878 59.7771 9.73813 55.6589 9.66014C51.4471 9.58214 47.993 12.985 47.993 17.179V60.0323C47.993 60.8078 48.1111 61.5543 48.3295 62.2608C48.3518 62.3321 48.3005 62.4034 48.2248 62.4034H45.6219C44.316 62.4034 43.2531 61.3404 43.2531 60.0323L43.0815 20.2208C42.0029 10.4446 34.6556 1.89841 24.5808 0.0086694C24.0794 -0.0871545 23.8788 0.639324 24.3624 0.810916C32.3581 3.63438 38.0875 11.2579 38.0875 20.2208L38.1008 60.0323C38.1008 64.1795 41.4747 67.5534 45.6219 67.5534H85.1883C89.3421 67.5534 92.7093 64.1861 92.7093 60.0323V17.2481C92.7093 15.9734 93.6854 14.877 94.9601 14.8123C96.3216 14.7455 97.447 15.833 97.447 17.179V60.4713C97.447 62.4635 98.1802 64.4068 99.5663 65.8352C100.959 67.2726 102.831 68.086 104.828 68.1238H104.854C106.882 68.1528 108.79 67.3907 110.236 65.9711C111.691 64.5449 112.489 62.6396 112.489 60.605V17.179C112.491 15.833 113.621 14.7455 114.981 14.8123C116.253 14.877 117.231 15.9734 117.231 17.2481V60.4713C117.231 62.4635 117.962 64.4068 119.351 65.8352C120.741 67.2726 122.613 68.086 124.61 68.1238H124.757C126.738 68.1238 128.603 67.3639 130.018 65.9711C131.471 64.5449 132.273 62.6396 132.273 60.605V52.6271C132.282 46.0019 138.604 44.5779 139.667 44.3863C139.75 44.3729 139.826 44.4286 139.839 44.5111L139.899 44.9501C139.908 45.0281 139.857 45.0994 139.779 45.115C139.34 45.193 137.985 45.4849 136.599 46.3005C136.523 46.3428 136.505 46.4431 136.557 46.5144C136.869 46.9468 137.339 47.3055 137.983 47.5083C141.294 48.5713 141.557 45.0927 145.33 44.6425C145.473 44.6247 145.508 44.4331 145.379 44.3684C144.066 43.6954 140.169 41.8525 137.983 42.4408C136.871 42.7417 136.089 43.8225 135.977 44.852C135.973 44.9055 135.939 44.9523 135.888 44.9701C135.498 45.1038 133.842 45.71 132.536 46.6192C132.432 46.6927 132.291 46.6058 132.309 46.4788C132.523 45.0169 133.88 38.902 142.123 31.1492C142.183 31.0935 142.279 31.0979 142.335 31.1603C142.417 31.2584 142.54 31.3966 142.622 31.4924C142.674 31.5525 142.669 31.6439 142.609 31.6974C142.192 32.0696 140.628 33.4891 138.881 35.4568C138.821 35.5237 138.834 35.6284 138.908 35.6752C139.433 36.0228 140.12 36.268 140.991 36.3593C145.25 36.8095 144.94 31.8601 149.927 28.7915C150.032 28.7269 150.016 28.5686 149.898 28.5308ZM72.9273 17.2481C72.9273 15.9734 73.9033 14.877 75.178 14.8123C76.5374 14.7455 77.665 15.833 77.665 17.179L77.636 60.0568C77.636 60.9415 77.1457 61.7126 76.4237 62.1137C76.4126 62.1204 76.4037 62.127 76.3925 62.1315C76.3569 62.1516 76.319 62.1672 76.2833 62.185C76.2388 62.205 76.1964 62.2251 76.1518 62.2429C76.1407 62.2474 76.1318 62.2496 76.1206 62.2541C75.8555 62.3521 75.5702 62.4056 75.2716 62.4034C75.2426 62.4011 75.2092 62.4011 75.178 62.3989C73.9033 62.3365 72.9273 61.2379 72.9273 59.9632V17.2481ZM59.1866 63.8719C59.1197 63.9388 59.0506 64.0012 58.9793 64.0591C58.9437 64.0925 58.908 64.1215 58.8723 64.1505C58.8456 64.175 58.8189 64.1973 58.7899 64.2173C58.6517 64.3265 58.5091 64.4268 58.3598 64.5226C58.3464 64.5316 58.3308 64.5405 58.3152 64.5494C57.5041 65.0552 56.5414 65.3472 55.5141 65.3472V65.3539C49.8047 65.3472 45.5617 65.3405 45.5617 65.3405C44.9355 65.3405 44.316 65.2246 43.721 64.9928L43.6163 64.9527C43.594 64.9416 43.5695 64.9327 43.5472 64.9215C43.2441 64.7945 42.9478 64.6341 42.667 64.4424L42.6425 64.4268C42.5979 64.3956 42.5511 64.3622 42.5065 64.331C41.1026 63.3104 40.2714 61.6992 40.2803 60.0234C40.2714 58.2272 40.3182 23.9223 40.3182 23.9223C40.3204 22.4738 40.3137 20.9339 40.1822 19.3851C39.9884 16.3723 38.97 13.219 37.156 10.0145C37.1538 10.01 37.1515 10.0078 37.1493 10.0033C37.1359 9.98104 37.127 9.95429 37.127 9.92755C37.127 9.8451 37.1939 9.77379 37.2741 9.77825C37.3543 9.7827 37.4011 9.84956 37.4011 9.84956C40.4541 14.6541 41.0179 18.3578 41.029 23.9178C41.0536 26.5296 41.0937 60.4512 41.0937 60.4512C41.2185 62.214 42.531 63.8385 44.2826 64.4001L44.3205 64.4112C44.8798 64.5784 45.4481 64.5494 45.9762 64.5494H47.4916L55.5185 64.5984H55.5319C57.9364 64.5984 59.8997 62.7332 60.0646 60.3688C60.069 60.3019 60.0646 20.0247 60.0646 17.2837C60.0802 16.1204 59.659 14.9817 58.9147 14.1594C58.0456 13.1744 56.8489 12.6329 55.543 12.6329C53.4728 12.6329 51.7056 13.9566 51.1463 15.9266C50.9568 16.555 50.9702 17.9099 50.9702 17.9099C50.9791 22.3802 50.9791 60.1393 51.0014 60.3755C51.0504 61.0462 51.2421 61.6769 51.5496 62.2362C51.5897 62.312 51.5385 62.4034 51.4538 62.4034H50.7942C50.7518 62.4034 50.7117 62.3789 50.6939 62.341C50.3641 61.6747 50.1724 60.9437 50.1591 60.1972C50.1457 56.7609 50.1524 50.1691 50.1568 44.3551C50.1591 40.5934 50.1635 37.0925 50.1613 34.8217L50.168 17.9121C50.1613 17.2213 50.1524 16.4347 50.3774 15.706C50.9702 13.4998 53.1541 11.8351 55.4517 11.8351C55.4985 11.8329 55.5386 11.8329 55.5764 11.8329C56.9603 11.8329 58.3286 12.4257 59.3314 13.4574C60.3409 14.4959 60.8936 15.8931 60.8534 17.2882C60.8468 20.4615 60.8468 28.7179 60.8445 37.458C60.8445 47.0069 60.8401 56.8835 60.8334 60.0902C60.8245 60.8479 60.6484 61.6078 60.3253 62.2897C60.049 62.878 59.6568 63.4196 59.1866 63.8719ZM53.1452 59.9766V17.2481C53.1452 15.9734 54.1213 14.877 55.3959 14.8123C56.7553 14.7455 57.8829 15.833 57.8829 17.179V60.0301C57.8829 60.351 57.8183 60.6585 57.7024 60.937C57.7002 60.9437 57.6979 60.9482 57.6957 60.9549C57.669 61.0173 57.64 61.0774 57.6066 61.1376C57.6021 61.1443 57.5999 61.1532 57.5954 61.1621C57.5642 61.2201 57.5286 61.2758 57.4929 61.3315C57.4862 61.3404 57.4818 61.3493 57.4751 61.3582C57.4372 61.4139 57.3993 61.4652 57.357 61.5164C57.3503 61.5254 57.3436 61.5343 57.3369 61.541C57.2946 61.5922 57.25 61.6412 57.2032 61.6903L57.1854 61.7081C57.1364 61.7571 57.0851 61.8039 57.0316 61.8485C57.0272 61.8529 57.0227 61.8574 57.016 61.8596C56.9603 61.9064 56.9024 61.951 56.8422 61.9911C56.8422 61.9933 56.8378 61.9933 56.8355 61.9956C56.4589 62.2496 56.0043 62.3989 55.5141 62.3989C55.3514 62.3989 55.1909 62.3833 55.0394 62.3521C55.0394 62.3521 55.0379 62.3514 55.0349 62.3499C54.9681 62.3365 54.9035 62.3187 54.8411 62.3009C54.8188 62.2942 54.7965 62.2875 54.7764 62.2808C54.7385 62.2674 54.7007 62.2518 54.6628 62.2385C54.6115 62.2184 54.5625 62.1984 54.5135 62.1738C54.509 62.1738 54.5046 62.1716 54.5001 62.1694C53.6956 61.7727 53.1497 60.9237 53.1452 59.9766Z" fill="#F5F5F5"/>
<path d="M80.1056 62.3984C80.0231 62.5633 79.934 62.726 79.8359 62.882C79.9384 62.726 80.0298 62.5633 80.11 62.3984H80.1056Z" fill="#F5F5F5"/>
</svg>
