<?xml version="1.0" encoding="UTF-8"?>
<svg id="Capa_2" data-name="Capa 2" xmlns="http://www.w3.org/2000/svg" version="1.1" viewBox="0 0 673.1 374">
  <defs>
    <style>
      .cls-1 {
        fill: #f5f5f5;
      }

      .cls-1, .cls-2, .cls-3 {
        stroke-width: 0px;
      }

      .cls-2 {
        fill: none;
      }

      .cls-3 {
        fill: #e06200;
      }
    </style>
  </defs>
  <g id="Capa_1-2" data-name="Capa 1-2">
    <rect class="cls-2" width="673.1" height="374"/>
    <g id="Capa_1-2-2" data-name="Capa 1-2">
      <g>
        <g>
          <path class="cls-1" d="M116.7,174.2h-23.5c-.3,0-.5.2-.5.5v115c0,.3.2.5.5.5h23.5c11.4,0,20.6-9.2,20.6-20.6v-74.8c0-11.4-9.2-20.6-20.6-20.6h0ZM127.4,269.6c0,5.9-4.8,10.7-10.7,10.7h-13.5c-.3,0-.5-.2-.5-.5v-95c0-.4.3-.7.7-.7h13.4c5.9,0,10.7,4.8,10.7,10.7v74.8Z"/>
          <path class="cls-1" d="M116.7,59.2h-23.5c-.3,0-.5.2-.5.5v110.7c0,.3.2.5.5.5h23.5c11.4,0,20.6-9.2,20.6-20.6v-70.6c0-11.4-9.2-20.6-20.6-20.6ZM127.4,150.3c0,5.9-4.8,10.7-10.7,10.7h-13.4c-.4,0-.7-.3-.7-.7v-90.7c0-.3.2-.5.5-.5h13.6c5.9,0,10.7,4.8,10.7,10.7v70.6Z"/>
          <path class="cls-1" d="M150.5,79.8c0-18.7-15.1-33.8-33.8-33.8h-36.5c-.4,0-.7.3-.7.7v256.1c0,.4.3.7.7.7h36.5c18.7,0,33.8-15.1,33.8-33.8v-74.8c0-8.5-3.2-16.3-8.4-22.2,5.2-5.9,8.4-13.7,8.4-22.2v-70.6ZM140.6,150.3c0,9.8-6.2,18.7-15.2,22.2,9,3.6,15.2,12.4,15.2,22.2v74.8c0,13.2-10.7,23.9-23.9,23.9h-26.8c-.3,0-.5-.2-.5-.5V56.4c0-.3.2-.5.5-.5h26.8c13.2,0,23.9,10.7,23.9,23.9v70.6Z"/>
          <path class="cls-1" d="M350.8,289.9h0c1.4-.9,2.7-2,3.9-3.1-1.2,1.2-2.5,2.2-4,3.1ZM369.5,281.5c.2-.4.3-.8.4-1.2h0c-.1.4-.3.8-.4,1.2ZM364.9,289.9s0,0,0-.1c0,0,0,0-.1.1h0ZM350.8,289.9c1.4-.9,2.7-2,3.9-3.1-1.2,1.2-2.5,2.2-4,3.1h0Z"/>
        </g>
        <path class="cls-1" d="M672.7,128.3c-5.8-1.9-29.8-8.9-45.6,1.4-7.8,5.1-12.1,16-9,24.1,0,.3,0,.6-.2.8-12.1,10.4-18.6,19-21.2,22.9-.4.6-1.2.3-1.2-.4.3-6.5-.4-12.2-1.4-16.8,0-.3.1-.6.4-.7,5.3-2.1,9.3-7.6,5.6-16.5-5-12.2-21-15.2-26-15.8-.6,0-.9.6-.6,1,5.6,8.3,3.4,20.6,7.6,28.4,1.1,2,3.2,3.2,5.8,3.7.4,0,.8-.3.8-.7,0-5.9-.7-9.7-1-11.1,0-.3.1-.7.5-.8,0,0,1.2-.3,1.9-.6.4-.1.7.1.8.5,1,4,5,25.6-10.5,57.5-7.8,16-8.7,51.3-8.8,67.4,0,2.7-1.2,5.3-3.2,7.2-2,2-4.6,3-7.4,3h-.2c-5.7,0-10.4-4.8-10.4-10.5V77.9c0-18.5-14.6-34-33.1-34.3-18.9-.3-34.4,14.9-34.4,33.7v194.9c0,2.9-1.1,5.6-3.2,7.6-2,2-4.6,3-7.5,3h-.2c-5.7-.1-10.4-4.9-10.4-10.6V77.9c0-18.5-14.6-34-33.1-34.3-18.9-.3-34.4,14.9-34.4,33.7v192.3c0,5.9-4.8,10.6-10.6,10.6h-5.1c-.2,0-.3,0-.4.2-.6,1-3.2,5-7,8.5-.3.3-.1.9.4.9h12.3c9.1,0,17.6-6.7,19.6-15.5.6-2.3.6-4.9.6-7.4v-11.1c0-20.6,0-43.5,0-67.6,0-38.9,0-79.1.1-112.7,1.3-14.7,13.1-22.3,24.1-22.3s16.4,4.5,20.9,12.4c2.2,3.8,3.2,8.6,3,14.7v109.1c0,1.8,0,13.5,0,28.2,0,23.4-.1,55.4.1,56.9,1.1,10.1,10,18,20.2,18s3.5-.2,5.2-.7c8.5-2.1,15-10.3,15.2-19.1,0-29.2,0-164.7,0-194.4v-2.5c0-.1,0-.2,0-.4,0-.2,0-.5,0-.7l.2-1.4c1.7-11.4,11.9-20,23.7-20s4.8.4,7,1.1c6.5,2,12,7,14.8,13.3,1.3,3,2,6.4,2,9.9v194.4c0,4.4,1.4,8.8,4,12.3,3.9,5.3,9.8,8.3,16.4,8.3s16.2-5.1,19.2-13.1c.4-.9.7-2,.9-3v-.2c.4-1.8.5-3.5.5-5.5,0-1.6,0-3.3,0-5.4h0v-1.3c0-1.7,0-3.4,0-5.2,0-9.9-.3-42,9.5-63.5l1.2.4c-4.4,11.7-7,22.8-7.6,41.2,0,0,4.3-18.5,14.7-26.3l.7,1.1c-1.9,1.4-3.5,3.4-4.7,5.1-4.1,6-7,13.5-8.7,23-1.1,5.9-1.7,12.7-1.8,20.7,0,8.3,0,12.8-.1,13.8-.6,5.6-3.1,10.8-7,14.6-2.4,2.4-5.4,4.2-8.6,5.4-2.6,1-5.4,1.4-8.2,1.4s-1.2,0-1.9,0c-11.2-.7-20.8-10.1-21.9-21.3h0c0-.4-.1-1.2-.2-2.5V77.6c0-3.1-.6-5.9-1.8-8.5-2.4-5.4-7.1-9.6-12.6-11.3-1.9-.6-3.9-.9-6-.9-9.9,0-18.9,7.5-20.3,17.1-.3,1.5-.3,3.2-.3,4.5,0,12.8,0,47.6,0,84.6s0,92.9,0,109.8c-.2,10.4-7.9,20-17.9,22.5-2,.5-4,.8-6.1.8-12,0-22.5-9.3-23.8-21.2-.2-1.9-.2-4.2-.2-6.6,0-1.1,0-2.2,0-3.1,0-23.8,0-51.6,0-81,0-38.1,0-77.4-.1-108.7-1.1-12.2-11.1-18.7-20.4-18.7s-13.9,3.8-17.7,10.6c-1.4,2.5-2.2,5.3-2.4,8.2,0,1.7,0,4.2,0,6.5,0,1,0,2,0,2.8,0,20.3,0,43.1,0,66.5,0,39.1,0,79.8,0,113.7,0,.5,0,1,0,1.5,0,2.8,0,5.7-.7,8.4-2.4,10.5-12.4,18.4-23.2,18.4h-.2s-7.5,0-19.5,0c-.4,0-.7-.5-.4-.9.9-.9,1.7-1.9,2.5-2.9h0s0,0,.1-.1c0,0,0,0,0-.1,0,0,.1-.2.2-.3.2-.2.4-.5.5-.8.4-.5.7-1,1-1.5.2-.2.3-.5.5-.8.2-.4.4-.8.6-1.1.4-.8.8-1.6,1.1-2.4.2-.4.3-.8.5-1.2.1-.4.3-.8.4-1.2h0c1.1-3.3,1.7-6.9,1.7-10.6V77.9c0-18.5-14.6-34-33.1-34.3-18.9-.3-34.4,14.9-34.4,33.7v192.3c0,3.5.5,6.8,1.5,10,.1.3-.1.6-.5.6h-16.8c-.2,0-.3,0-.4.2-.6,1-3.2,5-7,8.5-.3.3-.1.9.4.9h22.1l34.4.2h.1c11.2,0,20.3-9.1,20.3-20.3V78.5c0-.7,0-1.3,0-2-.1-2.9-.9-5.8-2.1-8.3-3.7-7.1-10.3-11.1-17.9-11.1s-20.1,7.1-20.4,20.2v192.6c0,3.5.9,6.8,2.5,9.7.2.3,0,.7-.4.7h-3.1c-.2,0-.4-.1-.5-.3-.9-1.8-1.5-3.6-1.9-5.6-.3-1.6-.5-3.4-.5-5.1,0-.9,0-12.2,0-23,0-9.5,0-18.4,0-19.7,0-22,0-50.7,0-78.3,0-25.4,0-49.3,0-68.7h0c0-.4,0-1.1,0-2.4s0-.6,0-.8c0-.6,0-1.2.1-1.7.7-6.8,4.5-13.2,10.2-17.2,4.1-2.8,8.8-4.3,13.6-4.3,11.4,0,23.6,8.6,24.2,23.1,0,18.9,0,78.5,0,126.4,0,29.5,0,55,0,65.7,0,2.9-.3,5.4-.9,7.5-.4,1.4-.9,2.9-1.6,4.2-.4.7-.8,1.5-1.2,2.2-.3.5-.6.9-.9,1.4,0,.1-.1.2-.2.3-.1.2-.3.4-.5.6-.2.3-.5.6-.8.9-.2.2-.4.4-.6.6-.2.2-.4.4-.6.6-1.2,1.2-2.5,2.2-3.9,3.1-3.6,2.3-7.9,3.7-12.4,3.7-19.7,0-43.5,0-65.5,0,1.1-1.1,2.2-2.4,3.2-3.6.3-.4.5-.7.8-1.1,0,0,0,0,0,0,.2-.4.5-.7.7-1.1.2-.4.4-.7.7-1.1.4-.6.7-1.2,1-1.8.1-.3.3-.6.4-.9.6-1.2,1.1-2.4,1.5-3.6.3-.8.3-.8,0,0,1.1-3.3,1.7-6.9,1.7-10.6V77.9c0-18.5-14.6-34-33.1-34.3-18.9-.3-34.4,14.9-34.4,33.7v192.3c0,3.5.5,6.8,1.5,10,.1.3-.1.6-.5.6h-11.7c-5.9,0-10.6-4.8-10.6-10.6l-.8-178.6C188.5,47.1,155.5,8.8,110.3.3c-2.2-.4-3.1,2.8-1,3.6,35.9,12.7,61.6,46.9,61.6,87.1v178.6c0,18.6,15.2,33.8,33.8,33.8h177.6c18.6,0,33.8-15.1,33.8-33.8V77.6c0-5.7,4.4-10.6,10.1-10.9,6.1-.3,11.2,4.6,11.2,10.6v194.3c0,8.9,3.3,17.7,9.5,24.1,6.2,6.5,14.6,10.1,23.6,10.3h.1c9.1.1,17.7-3.3,24.1-9.7,6.5-6.4,10.1-15,10.1-24.1V77.3c0-6,5.1-10.9,11.2-10.6,5.7.3,10.1,5.2,10.1,10.9v194c0,8.9,3.3,17.7,9.5,24.1,6.2,6.5,14.6,10.1,23.6,10.3h.7c8.9,0,17.3-3.4,23.6-9.7,6.5-6.4,10.1-15,10.1-24.1v-35.8c0-29.7,28.4-36.1,33.2-37,.4,0,.7.2.8.6l.3,2c0,.4-.2.7-.5.7-2,.4-8,1.7-14.3,5.3-.3.2-.4.6-.2,1,1.4,1.9,3.5,3.6,6.4,4.5,14.9,4.8,16-10.8,33-12.9.6,0,.8-.9.2-1.2-5.9-3-23.4-11.3-33.2-8.6-5,1.4-8.5,6.2-9,10.8,0,.2-.2.4-.4.5-1.8.6-9.2,3.3-15,7.4-.5.3-1.1,0-1-.6,1-6.6,7-34,44-68.8.3-.2.7-.2,1,0,.4.4.9,1.1,1.3,1.5.2.3.2.7,0,.9-1.9,1.7-8.9,8-16.7,16.9-.3.3-.2.8.1,1,2.4,1.6,5.4,2.7,9.3,3.1,19.1,2,17.7-20.2,40.1-34,.5-.3.4-1-.1-1.2h0ZM327.3,77.6c0-5.7,4.4-10.6,10.1-10.9,6.1-.3,11.2,4.6,11.2,10.6v192.4c-.1,4-2.3,7.4-5.6,9.2,0,0,0,0-.1,0-.2,0-.3.2-.5.2-.2,0-.4.2-.6.3,0,0,0,0-.1,0-1.2.4-2.5.7-3.8.7-.1,0-.3,0-.4,0-5.7-.3-10.1-5.2-10.1-10.9V77.6h0ZM265.6,286.9c-.3.3-.6.6-.9.8-.2.1-.3.3-.5.4-.1.1-.2.2-.4.3-.6.5-1.3.9-1.9,1.4,0,0-.1,0-.2.1-3.6,2.3-8,3.6-12.6,3.6h0c-25.6,0-44.7,0-44.7,0-2.8,0-5.6-.5-8.3-1.6l-.5-.2c0,0-.2,0-.3-.1-1.4-.6-2.7-1.3-3.9-2.1h-.1c-.2-.2-.4-.4-.6-.5-6.3-4.6-10-11.8-10-19.3,0-8.1.2-162,.2-162,0-6.5,0-13.4-.6-20.4-.9-13.5-5.4-27.7-13.6-42,0,0,0,0,0,0,0,0,0-.2,0-.3,0-.4.3-.7.7-.7s.6.3.6.3c13.7,21.6,16.2,38.2,16.3,63.1.1,11.7.3,163.9.3,163.9.6,7.9,6.4,15.2,14.3,17.7h.2c2.5.8,5.1.7,7.4.7h6.8l36,.2h0c10.8,0,19.6-8.4,20.3-19,0-.3,0-181,0-193.3,0-5.2-1.8-10.3-5.2-14-3.9-4.4-9.3-6.8-15.1-6.8-9.3,0-17.2,5.9-19.7,14.8-.9,2.8-.8,8.9-.8,8.9,0,20.1,0,189.5.1,190.6.2,3,1.1,5.8,2.5,8.4.2.3,0,.8-.4.8h-3c-.2,0-.4-.1-.4-.3-1.5-3-2.3-6.3-2.4-9.6,0-15.4,0-45,0-71.1,0-16.9,0-32.6,0-42.8v-75.9c0-3.1,0-6.6,1-9.9,2.7-9.9,12.5-17.4,22.8-17.4.2,0,.4,0,.6,0,6.2,0,12.4,2.7,16.9,7.3,4.5,4.7,7,10.9,6.8,17.2,0,14.2,0,51.3,0,90.5,0,42.8,0,87.2,0,101.6,0,3.4-.8,6.8-2.3,9.9-1.2,2.6-3,5.1-5.1,7.1h0ZM238.5,269.4V77.6c0-5.7,4.4-10.6,10.1-10.9,6.1-.3,11.2,4.6,11.2,10.6v192.3c0,1.4-.3,2.8-.8,4.1,0,0,0,0,0,0-.1.3-.2.5-.4.8,0,0,0,0,0,.1-.1.3-.3.5-.5.8,0,0,0,0,0,.1-.2.2-.3.5-.5.7,0,0,0,0,0,.1-.2.2-.4.5-.6.7h0c-.2.3-.4.5-.7.7,0,0,0,0,0,0-.2.2-.5.4-.8.6,0,0,0,0,0,0-1.7,1.1-3.7,1.8-5.9,1.8s-1.4,0-2.1-.2-.5,0,0,0c-.3,0-.6-.1-.9-.2-.1,0-.2,0-.3,0-.2,0-.3-.1-.5-.2-.2,0-.4-.2-.7-.3,0,0,0,0,0,0-3.6-1.8-6.1-5.6-6.1-9.8h0Z"/>
        <path class="cls-1" d="M359.5,280.2c-.4.7-.8,1.5-1.2,2.2.5-.7.9-1.4,1.2-2.2h0Z"/>
        <g>
          <path class="cls-1" d="M79.5,329.1h4.2l9.6,30.2h.2s-1.2-12.5-1.2-16.5v-13.7h5.1v44.2h-4.2l-9.6-30.2h-.2s1.2,12.4,1.2,16.4v13.7h-5.1v-44.2h0Z"/>
          <path class="cls-1" d="M132.1,329.1h5.1v44.2h-5.1v-44.2Z"/>
          <path class="cls-1" d="M171.9,329.1h5.1v20.2h1.3l5.1-20.2h5.1l-5.6,22,6,22.2h-5.2l-5.4-20.1h-1.3v20.1h-5.1v-44.2Z"/>
          <path class="cls-1" d="M221.4,329.1h5.1v20.2h1.3l5.1-20.2h5.1l-5.6,22,6,22.2h-5.2l-5.4-20.1h-1.3v20.1h-5.1v-44.2h0Z"/>
          <path class="cls-1" d="M271,329.1h12v4.3h-6.9v15.1h6.2v4h-6.2v16.5h6.9v4.3h-12v-44.2h0Z"/>
          <path class="cls-1" d="M315.8,329.1h5.1v44.2h-5.1v-44.2Z"/>
          <path class="cls-1" d="M477.8,329.1h7.9c2.4,0,4.7.5,6.1,2,2.2,2.5,2.3,6.6,2.3,10.1s0,5.3-1.6,7.1c-.6.7-1.3,1-2,1.4h0c.8.3,1.6.8,2.1,1.4,1.6,1.6,1.8,3.9,1.8,8.3s0,9.3-1.9,11.6c-1.4,1.8-3.5,2.4-5.9,2.4h-8.7v-44.2h0ZM485.5,348.1c1.4,0,2.3-.4,2.8-1.4s.7-4,.7-5.5,0-4.6-.7-6.3c-.4-1-1.2-1.5-2.7-1.5h-2.7v14.8h2.7,0ZM485.9,369c1.4,0,2.2-.5,2.7-1.6.6-1.6.6-6.3.6-8.2s0-4.8-.7-5.8c-.5-.8-1.3-1.2-2.7-1.2h-2.9v16.8h3.1,0Z"/>
          <path class="cls-1" d="M532.6,329.1h5.5l6.6,44.2h-5.1l-1.1-8.3h-6.2l-1.1,8.3h-5.1l6.6-44.2h0,0ZM538,360.9l-1.1-7.5c-.6-3.9-1.3-14.5-1.3-14.5h-.5s-.7,10.6-1.3,14.5l-1.1,7.5h5.3Z"/>
          <path class="cls-1" d="M577.2,329.1h8.1c2.6,0,4.9.5,6.2,2,2.3,2.5,2.3,7.7,2.3,11.1s-.3,6.5-1.7,8.1c-.5.7-1.2,1.1-2.1,1.4h0c.8.3,1.4.8,2,1.4,1.5,1.5,1.8,3.8,1.8,7.5v12.8h-5.1v-13.3c0-1.6,0-3.6-.6-4.7-.5-.8-1.5-1.2-3-1.2h-2.7v19.2h-5.1v-44.2h0,0ZM585,350.1c1.4,0,2.4-.5,2.9-1.4.6-1.2.7-4.6.7-6.5s0-5.5-.7-7.3c-.5-1-1.3-1.5-2.8-1.5h-2.9v16.7h2.8Z"/>
          <path class="cls-3" d="M404.1,328.1h-2.1c-.5,0-.9.2-1.2.5s-.5.8-.6,1.3l-5.8,43.2v.5c0,0,.3.2.5.2h2.1c.5,0,.9-.2,1.2-.5s.5-.8.6-1.3l5.8-43.2v-.5c0,0-.3-.2-.5-.2Z"/>
        </g>
      </g>
    </g>
  </g>
</svg>