<svg width="66" height="58" viewBox="0 0 66 58" fill="none" xmlns="http://www.w3.org/2000/svg">
<g clip-path="url(#clip0_533_1325)">
<path d="M47.2146 11.4072C46.8359 11.4072 46.8359 11.5504 46.4572 11.5504C46.0785 11.5504 46.0785 11.5156 45.6998 11.5156C45.3211 11.5156 45.3211 11.5729 44.9424 11.5729C44.5637 11.5729 44.5637 11.5913 44.185 11.5913C43.8063 11.5913 43.8063 11.4379 43.4275 11.4379C43.0488 11.4379 43.0488 11.4522 42.6701 11.4522C42.2914 11.4522 42.2914 11.5831 41.9127 11.5831C41.534 11.5831 41.534 11.4747 41.1553 11.4747C40.7766 11.4747 40.7766 11.4727 40.3979 11.4727C40.0192 11.4727 40.0192 11.5054 39.6405 11.5054C39.2618 11.5054 39.2618 11.532 38.881 11.532C38.5003 11.532 38.5023 11.4359 38.1216 11.4359C37.8725 11.4359 37.6437 11.4502 37.4492 11.3397C37.2427 11.2231 37.0361 11.0758 36.9146 10.8754C36.7931 10.6749 36.7404 10.4233 36.7283 10.184C36.7161 9.95895 36.785 9.72371 36.8883 9.49869C36.9774 9.30232 37.0098 9.08344 37.0786 8.87479C37.1475 8.67023 37.2427 8.47386 37.2892 8.25907C37.3338 8.04838 37.2973 7.82541 37.3196 7.60653C37.3419 7.38766 37.3743 7.1831 37.3743 6.96218C37.3743 6.70443 37.4594 6.44669 37.429 6.19713C37.3966 5.94348 37.2325 5.71846 37.1718 5.473C37.109 5.22548 37.0847 4.97183 36.9936 4.73863C36.9024 4.50544 36.791 4.27633 36.6695 4.05337C36.548 3.8304 36.3617 3.65857 36.2139 3.45197C36.066 3.24536 35.9466 3.02649 35.7744 2.84238C35.6023 2.65828 35.4342 2.47418 35.2398 2.31258C35.0453 2.15098 34.8712 1.96483 34.6585 1.82778C34.4479 1.69072 34.2454 1.52708 34.0166 1.41662C33.7877 1.30616 33.5305 1.27343 33.2895 1.19365C33.0485 1.11387 32.8035 1.08319 32.5544 1.03409C32.3093 0.987045 32.0724 0.852037 31.8192 0.833627C31.5722 0.817263 31.319 0.931815 31.0639 0.946134C30.8087 0.960453 30.5819 0.950225 30.3469 0.993182C30.108 1.03614 29.8771 1.09342 29.6483 1.16501C29.4194 1.23661 29.1723 1.27343 28.9536 1.37161C28.7349 1.4698 28.5162 1.5864 28.3116 1.71118C28.1071 1.83596 27.8985 1.97097 27.7081 2.11825C27.5178 2.26553 27.4246 2.52532 27.2525 2.6951C27.0803 2.86489 26.9244 3.03671 26.7725 3.22695C26.6206 3.41719 26.4748 3.5972 26.3472 3.8038C26.2196 4.01041 25.9746 4.1536 25.8713 4.37248C25.768 4.59135 25.7619 4.85523 25.687 5.08638C25.6121 5.31753 25.5473 5.54868 25.4987 5.79006C25.4501 6.03144 25.5108 6.27486 25.4946 6.51829C25.4764 6.77807 25.3225 7.02968 25.3346 7.28333C25.3468 7.53698 25.4602 7.78859 25.5048 8.03815C25.5493 8.28771 25.5797 8.5475 25.6546 8.79092C25.7295 9.03435 25.928 9.22868 26.0333 9.45983C26.1386 9.69098 26.09 9.96304 26.0759 10.1881C26.0617 10.4274 25.9483 10.6319 25.8247 10.8304C25.7012 11.0288 25.523 11.1372 25.3164 11.2518C25.122 11.3602 24.9397 11.4584 24.6927 11.4584C24.3139 11.4584 24.3139 11.4993 23.9373 11.4993C23.5606 11.4993 23.5586 11.532 23.1799 11.532C22.8011 11.532 22.8011 11.5606 22.4245 11.5606C22.172 11.5606 21.9195 11.5606 21.667 11.5606C21.2883 11.5606 21.2883 11.5443 20.9096 11.5443C20.5309 11.5443 20.5309 11.4747 20.1522 11.4747C19.7735 11.4747 19.7735 11.4952 19.3948 11.4952C19.0161 11.4952 19.0161 11.5197 18.6374 11.5197C18.2587 11.5197 18.2587 11.4911 17.88 11.4911C17.5013 11.4911 17.5013 11.5504 17.1226 11.5504C16.7438 11.5504 16.7438 11.5934 16.3651 11.5934C15.9864 11.5934 15.9864 11.5238 15.6077 11.5238C15.3566 11.5238 15.148 11.6261 14.9435 11.7468C14.7328 11.8695 14.5668 12.0188 14.4453 12.2316C14.3238 12.4443 14.2995 12.655 14.2995 12.9107C14.2995 13.3321 14.2974 13.3321 14.2974 13.7535C14.2974 14.1749 14.1719 14.1749 14.1719 14.5963C14.1719 15.0177 14.2995 15.0177 14.2995 15.439C14.2995 15.6947 14.3035 15.9238 14.423 16.1305C14.5425 16.3371 14.7187 16.5068 14.9273 16.6296C15.1359 16.7523 15.3546 16.9344 15.6077 16.9344C15.8521 16.9344 16.0965 16.9344 16.3408 16.9344C16.7074 16.9344 16.7074 16.9344 17.074 16.9344C17.4405 16.9344 17.4405 16.8116 17.8091 16.8116C18.1777 16.8116 18.1756 16.8546 18.5442 16.8546C18.9128 16.8546 18.9108 16.9139 19.2794 16.9139C19.6479 16.9139 19.6459 16.8894 20.0125 16.8894C20.379 16.8894 20.379 16.8341 20.7456 16.8341C21.1121 16.8341 21.1121 16.7728 21.4807 16.7728C21.8493 16.7728 21.8473 16.7912 22.2159 16.7912C22.5845 16.7912 22.5824 16.83 22.951 16.83C23.3196 16.83 23.3176 16.83 23.6861 16.83C24.0547 16.83 24.0527 16.8137 24.4213 16.8137C24.7899 16.8137 24.7878 16.9241 25.1564 16.9241C25.525 16.9241 25.523 16.7462 25.8916 16.7462C26.2601 16.7462 26.2581 16.8996 26.6267 16.8996C26.9953 16.8996 26.9933 16.8382 27.3618 16.8382C27.7304 16.8382 27.7284 16.8812 28.097 16.8812C28.4656 16.8812 28.4635 16.918 28.8321 16.918C29.2007 16.918 29.1987 16.8444 29.5673 16.8444C29.9358 16.8444 29.9338 16.8566 30.3024 16.8566C30.671 16.8566 30.6689 16.7687 31.0375 16.7687C31.4061 16.7687 31.4041 16.8055 31.7727 16.8055C32.1413 16.8055 32.1392 16.7482 32.5078 16.7482C32.8764 16.7482 32.8744 16.7687 33.2429 16.7687C33.6115 16.7687 33.6095 16.8034 33.9781 16.8034C34.3467 16.8034 34.3446 16.8955 34.7132 16.8955C35.0818 16.8955 35.0818 16.8259 35.4484 16.8259C35.8149 16.8259 35.8149 16.8464 36.1835 16.8464C36.5521 16.8464 36.5501 16.9303 36.9186 16.9303C37.2872 16.9303 37.2852 16.8669 37.6538 16.8669C38.0224 16.8669 38.0203 16.8464 38.3889 16.8464C38.7575 16.8464 38.7555 16.9323 39.1241 16.9323C39.4926 16.9323 39.4926 16.7707 39.8592 16.7707C40.2257 16.7707 40.2257 16.8546 40.5943 16.8546C40.9629 16.8546 40.9629 16.8628 41.3295 16.8628C41.696 16.8628 41.698 16.8628 42.0646 16.8628C42.4312 16.8628 42.4332 16.7646 42.7997 16.7646C43.1663 16.7646 43.1683 16.8178 43.5349 16.8178C43.9014 16.8178 43.9035 16.9037 44.27 16.9037C44.6366 16.9037 44.6386 16.8566 45.0052 16.8566C45.3717 16.8566 45.3737 16.8607 45.7403 16.8607C46.1069 16.8607 46.1089 16.8832 46.4775 16.8832C46.846 16.8832 46.846 16.8955 47.2146 16.8955C47.4678 16.8955 47.729 16.8239 47.9336 16.7032C48.1381 16.5825 48.3325 16.38 48.454 16.1673C48.5755 15.9545 48.5229 15.6988 48.5229 15.4431C48.5229 15.0217 48.5674 15.0217 48.5674 14.6004C48.5674 14.179 48.5472 14.179 48.5472 13.7576C48.5472 13.3362 48.6059 13.3362 48.6059 12.9148C48.6059 12.6591 48.6039 12.3789 48.4844 12.1723C48.3649 11.9657 48.0996 11.8532 47.889 11.7304C47.6784 11.6077 47.4657 11.4134 47.2126 11.4134L47.2146 11.4072ZM31.4142 4.15769C31.6714 4.15769 31.9327 4.05132 32.1696 4.11473C32.4146 4.18019 32.6415 4.3152 32.8561 4.43998C33.0708 4.56476 33.3158 4.6834 33.492 4.86137C33.6682 5.03933 33.8505 5.24594 33.9761 5.46481C34.1016 5.68369 34.0591 5.97621 34.1239 6.22577C34.1887 6.47533 34.2333 6.6983 34.2333 6.95808C34.2333 7.21787 34.3264 7.48994 34.2616 7.72927C34.1968 7.9686 33.9983 8.1752 33.8728 8.39203C33.7472 8.60887 33.5973 8.80524 33.4191 8.98525C33.2409 9.16526 33.0647 9.34118 32.848 9.46801C32.6313 9.59483 32.4086 9.71757 32.1635 9.78507C31.9266 9.84848 31.6714 9.78916 31.4142 9.78916C31.157 9.78916 30.9059 9.83417 30.6689 9.76871C30.4239 9.70325 30.1687 9.64188 29.9541 9.51506C29.7394 9.38823 29.543 9.20822 29.3668 9.02821C29.1906 8.85024 29.0569 8.62932 28.9293 8.4084C28.8017 8.18748 28.66 7.97065 28.5931 7.72313C28.5263 7.47562 28.5364 7.21992 28.5364 6.96013C28.5364 6.70034 28.5 6.42828 28.5648 6.18895C28.6296 5.94143 28.7552 5.69801 28.8787 5.48118C29.0022 5.26435 29.2392 5.11911 29.4154 4.94115C29.5916 4.76318 29.7232 4.50953 29.9399 4.38066C30.1546 4.25588 30.4199 4.20269 30.6649 4.13519C30.9099 4.06768 31.157 4.15769 31.4142 4.15769Z" fill="#DDD6CF"/>
<path d="M48.5019 19.4555C48.5019 19.8217 48.6194 19.8217 48.6194 20.1858C48.6194 20.5499 48.5829 20.5519 48.5829 20.9181C48.5829 21.2843 48.6619 21.2843 48.6619 21.6484C48.6619 22.0125 48.6862 22.0145 48.6862 22.3786C48.6862 22.7428 48.6497 22.7448 48.6497 23.1089C48.6497 23.4751 48.51 23.4751 48.51 23.8412C48.51 24.2074 48.589 24.2074 48.589 24.5715C48.589 24.9377 48.5667 24.9377 48.5667 25.3038C48.5667 25.67 48.6416 25.67 48.6416 26.0361C48.6416 26.4023 48.6578 26.4023 48.6578 26.7664C48.6578 27.1305 48.6983 27.1326 48.6983 27.4987C48.6983 27.8649 48.6275 27.8649 48.6275 28.231C48.6275 28.5972 48.589 28.5972 48.589 28.9634C48.589 29.3295 48.6133 29.3295 48.6133 29.6957C48.6133 30.0618 48.5141 30.0618 48.5141 30.428C48.5141 30.7941 48.6376 30.7941 48.6376 31.1583C48.6376 31.5244 48.5991 31.5244 48.5991 31.8906C48.5991 32.2567 48.5404 32.2567 48.5404 32.6208C48.5404 32.985 48.5667 32.987 48.5667 33.3532C48.5667 33.7193 48.5465 33.7193 48.5465 34.0834C48.5465 34.4496 48.5566 34.4496 48.5566 34.8158C48.5566 35.1819 48.6983 35.1819 48.6983 35.5481C48.6983 35.9142 48.7004 35.9142 48.7004 36.2804C48.7004 36.6465 48.5303 36.6465 48.5303 37.0127C48.5303 37.3789 48.5222 37.3789 48.5222 37.745C48.5222 38.1112 48.6113 38.1112 48.6113 38.4773C48.6113 38.8435 48.5829 38.8435 48.5829 39.2097C48.5829 39.5758 48.5303 39.5758 48.5303 39.942C48.5303 40.3081 48.5465 40.3081 48.5465 40.6743C48.5465 41.0404 48.5161 41.0404 48.5161 41.4086C48.5161 41.7768 48.5323 41.7748 48.5323 42.143C48.5323 42.3967 48.51 42.6421 48.4938 42.8896C48.4776 43.1372 48.4594 43.3867 48.4229 43.6342C48.3865 43.8817 48.3338 44.1231 48.2812 44.3686C48.2285 44.6141 48.1576 44.8493 48.0867 45.0886C48.0159 45.33 48.0584 45.6062 47.9713 45.8414C47.8842 46.0767 47.7809 46.3078 47.6777 46.5369C47.5744 46.766 47.4893 47.0074 47.3698 47.2263C47.2503 47.4451 47.1045 47.6558 46.9688 47.8645C46.8332 48.0731 46.6347 48.2429 46.4848 48.4434C46.335 48.6439 46.2013 48.8566 46.0373 49.0448C45.8732 49.235 45.691 49.4048 45.5148 49.5828C45.3386 49.7607 45.1442 49.9142 44.9558 50.0778C44.7675 50.2414 44.6338 50.4746 44.4333 50.624C44.2328 50.7733 44.0121 50.8981 43.8035 51.0331C43.605 51.162 43.4207 51.299 43.3114 51.4933C43.202 51.6877 43.2365 51.927 43.2304 52.1582C43.2243 52.3811 43.0967 52.6491 43.204 52.8618C43.3843 53.2219 43.4673 53.1789 43.6455 53.5389C43.8237 53.8989 43.7488 53.9378 43.9291 54.2978C44.1093 54.6578 44.2632 54.5801 44.4435 54.9422C44.6237 55.3022 44.4698 55.382 44.65 55.742C44.7634 55.9691 44.7999 56.1634 44.7898 56.3904C44.7796 56.6318 44.8566 56.908 44.7331 57.1105C44.6095 57.313 44.324 57.3539 44.1154 57.4726C43.9189 57.583 43.7367 57.6669 43.4855 57.6669C43.121 57.6669 43.121 57.6771 42.7545 57.6771C42.3879 57.6771 42.3899 57.8346 42.0234 57.8346C41.6568 57.8346 41.6588 57.7589 41.2923 57.7589C40.9257 57.7589 40.9257 57.8285 40.5612 57.8285C40.1967 57.8285 40.1967 57.8346 39.8301 57.8346C39.4656 57.8346 39.4656 57.8162 39.099 57.8162C38.7325 57.8162 38.7345 57.8346 38.3679 57.8346C38.0014 57.8346 38.0014 57.763 37.6368 57.763C37.2723 57.763 37.2723 57.7712 36.9058 57.7712C36.5392 57.7712 36.5392 57.6526 36.1747 57.6526C35.8101 57.6526 35.8081 57.7283 35.4436 57.7283C35.079 57.7283 35.079 57.7283 34.7125 57.7283C34.3459 57.7283 34.3459 57.7733 33.9814 57.7733C33.6148 57.7733 33.6148 57.7344 33.2503 57.7344C32.8838 57.7344 32.8838 57.761 32.5192 57.761C32.1527 57.761 32.1527 57.6382 31.7881 57.6382C31.4236 57.6382 31.4216 57.7139 31.0571 57.7139C30.6925 57.7139 30.6925 57.6485 30.326 57.6485C29.9594 57.6485 29.9594 57.7753 29.5949 57.7753C29.2303 57.7753 29.2303 57.8244 28.8638 57.8244C28.4972 57.8244 28.4972 57.7794 28.1327 57.7794C27.7682 57.7794 27.7682 57.7794 27.4016 57.7794C27.0351 57.7794 27.0351 57.8346 26.6705 57.8346C26.304 57.8346 26.304 57.8264 25.9394 57.8264C25.5729 57.8264 25.5729 57.8367 25.2083 57.8367C24.8438 57.8367 24.8418 57.7201 24.4773 57.7201C24.1107 57.7201 24.1107 57.718 23.7462 57.718C23.3816 57.718 23.3796 57.6771 23.0151 57.6771C22.6506 57.6771 22.6485 57.6608 22.284 57.6608C21.9195 57.6608 21.9174 57.6587 21.5529 57.6587C21.1884 57.6587 21.1863 57.6955 20.8218 57.6955C20.4573 57.6955 20.4553 57.8428 20.0887 57.8428C19.7221 57.8428 19.7221 57.8121 19.3556 57.8121C19.1045 57.8121 18.908 57.6178 18.7096 57.5053C18.501 57.3866 18.3207 57.2598 18.1972 57.0594C18.0737 56.8589 18.0149 56.64 18.0048 56.3966C17.9947 56.1695 17.9825 55.9241 18.0959 55.697C18.2762 55.337 18.2397 55.3186 18.42 54.9585C18.6002 54.5985 18.5881 54.5924 18.7663 54.2324C18.9445 53.8723 19.0093 53.903 19.1895 53.543C19.3698 53.183 19.4447 53.2198 19.6249 52.8598C19.7303 52.647 19.7181 52.3832 19.712 52.1602C19.7059 51.9372 19.6938 51.6693 19.5804 51.4688C19.467 51.2683 19.3029 51.0597 19.1045 50.9308C18.8939 50.7958 18.6873 50.6669 18.4888 50.5176C18.2904 50.3683 18.0757 50.2414 17.8873 50.0778C17.699 49.9142 17.5228 49.7403 17.3466 49.5644C17.1704 49.3884 16.9375 49.2637 16.7735 49.0755C16.6095 48.8873 16.4859 48.6643 16.3361 48.4618C16.1862 48.2593 16.0748 48.0363 15.9411 47.8236C15.8075 47.6108 15.7022 47.3879 15.5827 47.1669C15.4632 46.946 15.2283 46.7865 15.125 46.5574C15.0217 46.3283 15.0703 46.0378 14.9832 45.8025C14.8962 45.5673 14.7281 45.3627 14.6572 45.1214C14.5863 44.88 14.5944 44.6222 14.5397 44.3768C14.485 44.1313 14.4182 43.894 14.3838 43.6445C14.3494 43.3949 14.319 43.1515 14.3008 42.8978C14.2825 42.6442 14.2663 42.4007 14.2663 42.1471C14.2663 41.7809 14.163 41.7809 14.163 41.4168C14.163 41.0527 14.2258 41.0507 14.2258 40.6845C14.2258 40.3184 14.2724 40.3184 14.2724 39.9542C14.2724 39.5901 14.3028 39.5881 14.3028 39.224C14.3028 38.8599 14.3028 38.8578 14.3028 38.4937C14.3028 38.1296 14.2258 38.1275 14.2258 37.7614C14.2258 37.3952 14.319 37.3952 14.319 37.0311C14.319 36.667 14.2704 36.665 14.2704 36.2988C14.2704 35.9326 14.2744 35.9326 14.2744 35.5665C14.2744 35.2003 14.1732 35.2003 14.1732 34.8362C14.1732 34.4721 14.159 34.47 14.159 34.1039C14.159 33.7377 14.3332 33.7377 14.3332 33.3716C14.3332 33.0054 14.1691 33.0054 14.1691 32.6393C14.1691 32.2731 14.159 32.2731 14.159 31.9069C14.159 31.5408 14.2481 31.5408 14.2481 31.1746C14.2481 30.8085 14.2137 30.8085 14.2137 30.4444C14.2137 30.0802 14.24 30.0782 14.24 29.712C14.24 29.3459 14.1752 29.3459 14.1752 28.9818C14.1752 28.6177 14.2015 28.6156 14.2015 28.2494C14.2015 27.8833 14.2967 27.8833 14.2967 27.5192C14.2967 27.1551 14.2582 27.153 14.2582 26.7869C14.2582 26.4207 14.1711 26.4207 14.1711 26.0545C14.1711 25.6884 14.1711 25.6884 14.1711 25.3222C14.1711 24.9561 14.1448 24.9561 14.1448 24.5899C14.1448 24.2238 14.1367 24.2238 14.1367 23.8576C14.1367 23.4914 14.1529 23.4914 14.1529 23.1253C14.1529 22.7591 14.1914 22.7591 14.1914 22.393C14.1914 22.0268 14.3271 22.0268 14.3271 21.6606C14.3271 21.2945 14.2441 21.2945 14.2441 20.9283C14.2441 20.5622 14.2684 20.5622 14.2684 20.194C14.2684 19.8258 14.3291 19.8278 14.3291 19.4596C14.3291 19.2039 14.2866 18.9564 14.404 18.7498C14.5215 18.5432 14.6815 18.3079 14.8921 18.1852C15.1027 18.0625 15.3701 17.9807 15.6212 17.9807C15.9877 17.9807 15.9877 18.1116 16.3543 18.1116C16.7208 18.1116 16.7208 18.042 17.0874 18.042C17.454 18.042 17.454 17.9827 17.8225 17.9827C18.1911 17.9827 18.1891 17.9827 18.5577 17.9827C18.9263 17.9827 18.9242 18.1566 19.2928 18.1566C19.6614 18.1566 19.6594 18.1545 20.0259 18.1545C20.3925 18.1545 20.3925 18.0891 20.759 18.0891C21.1256 18.0891 21.1256 18.0257 21.4942 18.0257C21.8628 18.0257 21.8607 18.1607 22.2293 18.1607C22.5979 18.1607 22.5959 18.0502 22.9645 18.0502C23.333 18.0502 23.331 18.0522 23.6996 18.0522C24.0682 18.0522 24.0661 17.9847 24.4347 17.9847C24.8033 17.9847 24.8013 18.0359 25.1699 18.0359C25.5385 18.0359 25.5364 18.085 25.905 18.085C26.2736 18.085 26.2716 18.1586 26.6401 18.1586C27.0087 18.1586 27.0067 18.0134 27.3753 18.0134C27.7439 18.0134 27.7418 18.0338 28.1104 18.0338C28.479 18.0338 28.477 18.1382 28.8456 18.1382C29.2141 18.1382 29.2121 18.0482 29.5807 18.0482C29.9493 18.0482 29.9473 18.1504 30.3158 18.1504C30.6844 18.1504 30.6824 18.0482 31.051 18.0482C31.4196 18.0482 31.4175 18.0829 31.7861 18.0829C32.1547 18.0829 32.1527 18.0093 32.5213 18.0093C32.8898 18.0093 32.8878 18.1198 33.2564 18.1198C33.625 18.1198 33.6229 18.1198 33.9915 18.1198C34.3601 18.1198 34.3581 18.1054 34.7267 18.1054C35.0952 18.1054 35.0953 18.0727 35.4618 18.0727C35.8284 18.0727 35.8284 18.0932 36.1969 18.0932C36.5655 18.0932 36.5635 18.0318 36.9321 18.0318C37.3007 18.0318 37.2986 18.1279 37.6672 18.1279C38.0358 18.1279 38.0338 18.1341 38.4024 18.1341C38.7709 18.1341 38.7689 18.0502 39.1375 18.0502C39.5061 18.0502 39.5061 17.9766 39.8726 17.9766C40.2392 17.9766 40.2392 18.0216 40.6078 18.0216C40.9764 18.0216 40.9764 18.0952 41.3429 18.0952C41.7095 18.0952 41.7115 18.1238 42.0781 18.1238C42.4446 18.1238 42.4466 17.997 42.8132 17.997C43.1797 17.997 43.1818 18.0952 43.5483 18.0952C43.9149 18.0952 43.9169 18.0093 44.2835 18.0093C44.65 18.0093 44.6521 18.0011 45.0186 18.0011C45.3852 18.0011 45.3872 17.995 45.7537 17.995C46.1203 17.995 46.1223 18.0829 46.4909 18.0829C46.8595 18.0829 46.8595 18.0482 47.2281 18.0482C47.4812 18.0482 47.7587 18.0563 47.9632 18.177C48.1678 18.2977 48.3379 18.5309 48.4614 18.7437C48.5849 18.9564 48.5161 19.206 48.5161 19.4617L48.5019 19.4555Z" fill="#DDD6CF"/>
<path d="M40.4542 41.9608C40.6061 41.9342 40.7579 41.924 40.9119 41.9015C41.2217 41.8565 41.5376 41.8094 41.8556 41.7829C41.73 41.7031 41.5862 41.6335 41.4668 41.5517C41.4566 41.5435 41.5478 41.4065 41.6085 41.3471C41.7624 41.4637 41.8779 41.699 42.0095 41.8094C42.3376 41.7931 42.7122 41.8156 43.0484 41.8094C42.9411 41.7378 42.8783 41.5312 42.852 41.3799C42.8358 41.2837 42.7669 41.2142 42.7365 41.1119C42.4935 41.1201 42.2586 41.0751 42.0176 41.0914C41.7766 41.1078 41.5437 41.2326 41.3047 41.2592C41.0658 41.2858 40.8086 41.2101 40.5716 41.249C40.3347 41.2878 40.1058 41.4044 39.8709 41.4535C39.636 41.5026 39.3808 41.4924 39.1479 41.5517C38.9616 41.5988 38.7935 41.7092 38.6133 41.7624C38.433 41.8156 38.3217 41.8524 38.1434 41.9117C38.3014 42.0406 38.3277 42.2533 38.5566 42.3311C38.6437 42.3597 38.7591 42.3924 38.8361 42.4211C39.0345 42.3638 39.237 42.2656 39.4416 42.2165C39.6461 42.1674 39.8264 42.0304 40.0309 41.9895C40.1686 41.9608 40.3185 41.9895 40.4602 41.9649L40.4542 41.9608ZM42.3862 41.2592C42.4247 41.3062 42.4105 41.3901 42.4773 41.4699C42.4064 41.5087 42.4085 41.5865 42.3214 41.6131C42.2951 41.6213 42.1918 41.5558 42.1999 41.5476C42.2667 41.474 42.3032 41.3287 42.3862 41.2612V41.2592ZM65.3598 46.054C65.4408 46.2136 65.4448 46.3486 65.2869 46.4243C65.1188 46.5081 64.9568 46.594 64.7887 46.6677C64.6206 46.7413 64.4829 46.9009 64.3107 46.9663C64.0596 47.0707 63.7943 47.1443 63.5472 47.2261C63.2333 47.3325 62.9032 47.3816 62.5893 47.4634C62.5407 47.4757 62.4658 47.3898 62.4172 47.4021C62.1094 47.4798 61.8036 47.535 61.4957 47.5902C61.4573 47.5964 61.4411 47.7375 61.4005 47.7437C61.1798 47.7825 60.9489 47.7478 60.7282 47.7743C60.5075 47.8009 60.2847 47.8173 60.0639 47.8357C59.8432 47.8541 59.6022 47.9298 59.3794 47.938C59.4098 47.7559 59.3612 47.5473 59.3713 47.3652C59.3713 47.3345 59.2579 47.1689 59.1769 47.1811C59.0372 47.2057 58.861 47.3816 58.865 47.4246C58.8853 47.5923 58.8914 47.7621 58.9562 47.9257C58.8488 47.9257 58.7476 48.0157 58.6402 48.0157C58.4256 48.0157 58.2109 47.9462 57.9962 47.938C57.7816 47.9298 57.5628 47.9728 57.3482 47.9584C57.1335 47.9441 56.9229 47.8623 56.7102 47.8419C56.4976 47.8214 56.2728 47.8869 56.0581 47.8603C55.7665 47.8234 55.4992 47.5964 55.2055 47.5493C54.8896 47.5002 54.5393 47.6352 54.2233 47.5759C54.0208 47.5391 53.8446 47.3632 53.6441 47.3223C53.4436 47.2814 53.2371 47.2711 53.0366 47.2282C52.826 47.1811 52.591 47.2384 52.3804 47.1893C52.1698 47.1402 51.9673 47.0502 51.7567 46.9991C51.5461 46.9479 51.382 46.8007 51.1714 46.7475C51.0843 46.5552 51.0013 46.4468 50.3978 46.4079C50.1487 46.3915 49.8631 46.3158 49.6768 46.2504C49.8024 46.1297 49.9968 45.9926 50.1041 45.8679C50.5173 45.9026 50.5213 45.9067 50.9243 46.009C51.3273 46.1113 51.301 46.2115 51.702 46.322C51.6939 46.3363 51.7141 46.2933 51.7182 46.3056C51.7668 46.4447 51.7911 46.6206 51.8822 46.7536C51.9086 46.7904 52.0503 46.7372 52.1171 46.7638C52.1577 46.7086 52.1637 46.7106 52.1496 46.6616C52.1232 46.5695 52.1374 46.3854 52.0847 46.2954C52.2549 46.3363 52.4452 46.4713 52.6153 46.5102C52.8077 46.5531 53.0265 46.4775 53.2209 46.5184C53.4153 46.5593 53.5854 46.7086 53.7798 46.7475C54.0897 46.8109 54.4117 46.7863 54.7215 46.8375C55.0051 46.8866 55.2764 47.0134 55.5599 47.0543C55.7442 47.0809 55.9265 47.1116 56.1088 47.1341C56.291 47.1566 56.4976 47.1157 56.6819 47.1341C56.6961 47.2098 56.8702 47.2445 56.9857 47.2936C57.0262 47.2527 57.095 47.1934 57.1153 47.1566C57.3259 47.1729 57.5385 47.2773 57.7492 47.2875C57.7917 47.2875 57.8362 47.3018 57.8788 47.3018C58.0995 47.31 58.3203 47.308 58.541 47.31C58.7617 47.312 58.9805 47.2466 59.2012 47.2405C59.422 47.2343 59.6447 47.2814 59.8655 47.265C60.0862 47.2486 60.3049 47.2261 60.5257 47.2016C60.554 47.1975 60.5804 47.1914 60.6087 47.1873C60.8335 47.1586 61.0623 47.1361 61.2871 47.0973C61.5119 47.0584 61.7367 47.0154 61.9595 46.9663C62.1823 46.9172 62.399 46.8497 62.6197 46.7884C62.883 46.7516 63.0065 46.5981 63.1665 46.5715C63.1321 46.5572 63.1078 46.594 63.0733 46.5777C63.2516 46.5225 63.4602 46.5388 63.6384 46.4734C63.8733 46.3874 64.1082 46.2995 64.3431 46.1993C64.578 46.099 64.7461 45.8781 64.973 45.7656C65.1309 45.6879 65.2828 45.8842 65.3577 46.0438L65.3598 46.054ZM54.7924 40.3734C54.8025 40.3878 54.7863 40.3694 54.7965 40.3837C55.001 40.4185 55.1812 40.5923 55.3858 40.623C55.5903 40.6537 55.8192 40.5044 56.0257 40.531C56.2323 40.5576 56.4207 40.7294 56.6272 40.7498C56.69 40.756 56.7609 40.6721 56.8257 40.6782C57.0586 40.6987 57.2894 40.7539 57.5223 40.7662C57.6013 40.7703 57.6803 40.7662 57.7573 40.7703C58.0509 40.7846 58.3466 40.891 58.6402 40.891C59.0473 40.8869 59.2275 40.7642 59.4523 40.756C59.7845 40.7396 60.1186 40.7498 60.4507 40.713C60.5216 40.7048 60.5885 40.6455 60.6593 40.6353C60.9975 40.5944 61.3216 40.5207 61.6598 40.4553C61.6598 40.4246 61.755 40.533 61.8258 40.486C62.1519 40.265 62.0709 39.903 61.7367 39.7905C61.5383 39.8314 61.3317 39.9377 61.1332 39.9705C61.117 39.9725 61.1049 40.0134 61.0887 40.0155C60.9044 40.0441 60.7079 39.9725 60.5237 39.995C60.4609 40.0032 60.4102 40.1423 60.3475 40.1505C60.2037 40.1648 60.0477 40.0421 59.9039 40.0523C59.6873 40.0687 59.4746 40.1689 59.2579 40.1771C59.0372 40.1914 58.8205 40.2405 58.5997 40.2405C58.2717 40.2405 57.9436 40.1914 57.6155 40.175C57.5345 40.1709 57.4555 40.1362 57.3745 40.1321C57.0586 40.1116 56.7487 40.0421 56.4328 40.0073C56.4247 40.0073 56.4065 40.1075 56.3984 40.1055C56.0622 40.0687 55.7463 39.8743 55.4121 39.8252C55.3493 39.815 55.2764 39.8621 55.2136 39.8518C54.8856 39.8007 54.4907 39.6984 54.1646 39.637C54.3347 39.8764 54.6162 40.1382 54.7924 40.3755V40.3734ZM59.1506 40.2753C59.3187 40.398 59.503 40.4839 59.6933 40.6394C59.6346 40.6619 59.5738 40.6455 59.5354 40.6373C59.4139 40.6128 59.2721 40.6169 59.2154 40.5576C59.1162 40.4573 58.9967 40.3653 58.9339 40.2507C58.9987 40.2446 59.1283 40.2589 59.1506 40.2732V40.2753ZM41.161 45.4731C40.8754 45.5099 40.5575 45.5979 40.28 45.651C40.2577 45.6551 40.2213 45.5754 40.199 45.5794C39.9236 45.6306 39.6745 45.7799 39.4092 45.8454C39.1439 45.9108 38.8685 45.9599 38.6072 46.0417C38.346 46.1236 38.0665 46.099 37.8113 46.1972C37.6716 46.0315 37.4589 45.9108 37.0985 45.9313C36.9952 45.9374 36.8757 45.9313 36.7846 45.9251C37.064 45.7963 37.384 45.8188 37.6817 45.7083C37.9146 45.7022 37.9855 45.7349 38.1232 45.7758C38.2002 45.7431 38.1961 45.7717 38.2427 45.7513C38.0989 45.7063 38.0017 45.6081 37.8538 45.5713C37.87 45.5651 37.9227 45.5999 37.9389 45.5938C38.0179 45.5651 38.0624 45.5181 38.1434 45.4915C38.2123 45.5344 38.2751 45.469 38.3399 45.5181C38.4735 45.4056 38.6113 45.3626 38.7166 45.2685C39.0467 45.1744 39.3727 45.0415 39.717 44.9678C39.7433 44.9699 39.8122 44.9412 39.8223 44.9412C39.8547 44.9719 39.8183 45.1478 39.8588 45.156C40.0491 45.1928 40.2314 45.2399 40.4238 45.2747C40.685 45.3728 40.9665 45.3974 41.165 45.471L41.161 45.4731ZM65.4651 49.5663C65.5461 49.7299 65.4752 49.9836 65.3172 50.0613C65.0985 50.1697 64.8231 50.1411 64.6044 50.2352C64.3857 50.3293 64.1588 50.407 63.934 50.4909C63.7092 50.5747 63.5351 50.8141 63.3083 50.8877C63.0814 50.9614 62.8344 50.9941 62.6035 51.0555C62.3726 51.1168 62.1458 51.2273 61.9129 51.2764C61.68 51.3255 61.4086 51.1843 61.1717 51.2211C60.9348 51.258 60.7079 51.3602 60.471 51.3868C60.234 51.4134 59.9931 51.4257 59.7541 51.4421C59.4199 51.4646 59.0858 51.4564 58.7516 51.4605C58.6949 51.4605 58.6949 51.4237 58.6402 51.4237C58.302 51.4237 57.9638 51.5178 57.6256 51.4993C57.3867 51.4871 57.1457 51.4748 56.9067 51.4523C56.6677 51.4298 56.4348 51.3336 56.1979 51.3071C55.9062 51.2723 55.5924 51.3562 55.3028 51.3111C55.2987 51.2784 55.2541 51.1782 55.2521 51.1516C55.2521 51.0657 55.1914 50.9614 55.0354 50.7629C54.7823 50.9061 54.756 50.9389 54.44 51.0268C54.2416 50.992 54.0795 50.9327 53.8811 50.8918C53.6826 50.8509 53.474 50.8611 53.2756 50.8182C53.1864 50.7998 53.0811 50.8652 52.992 50.8468C52.7308 50.7895 52.4695 50.722 52.2083 50.6607C51.947 50.5993 51.6757 50.5768 51.4164 50.5134C51.1572 50.45 50.9365 50.2209 50.6752 50.1554C50.6185 50.1411 50.2783 50.1718 49.9482 50.0879C49.6849 50.0204 49.4095 49.9549 49.2475 49.912C49.0024 49.8486 48.7412 49.8404 48.4941 49.777C48.247 49.7136 48.006 49.6338 47.7569 49.5704C47.5079 49.507 47.2851 49.3535 47.038 49.2922C46.7909 49.2308 46.5135 49.2922 46.2664 49.2349C46.0193 49.1776 45.8047 48.9321 45.5556 48.8769C45.2356 48.8401 44.9055 48.8442 44.5855 48.8258C44.3243 48.8094 44.059 48.883 43.7998 48.8769C43.8241 48.8503 43.8605 48.8012 43.8504 48.7828C43.8322 48.748 43.7046 48.7644 43.6499 48.7705C43.5952 48.7787 43.5486 48.791 43.5567 48.8278C43.5567 48.836 43.5385 48.8687 43.5486 48.8769C43.3583 48.8769 43.1659 48.7726 42.9775 48.7767C42.7892 48.7808 42.5948 48.7849 42.4064 48.7951C42.214 48.8053 42.0277 48.8319 41.8455 48.8462C41.6632 48.8605 41.4728 48.9158 41.2885 48.9383C41.2784 48.9383 41.2764 48.9956 41.2683 48.9976C40.9078 49.0406 40.5413 49.0385 40.1929 49.104C39.8223 49.1756 39.4861 49.3003 39.1479 49.3904C39.1277 49.376 39.077 49.4088 39.0548 49.3944C38.992 49.3535 38.8421 49.2288 38.749 49.2472C38.6659 49.2635 38.5546 49.3904 38.5424 49.4476C38.5343 49.4783 38.5687 49.509 38.5687 49.5376C38.2184 49.646 37.8741 49.7545 37.546 49.8874C37.2139 50.0245 36.9061 50.1922 36.6023 50.3518C36.4848 50.3129 36.3755 50.2454 36.256 50.2065C36.2175 50.1943 36.1608 50.2229 36.1183 50.2147C36.0838 50.137 36.1588 50.0756 36.1831 50.002C36.2054 49.9549 36.173 49.9181 36.1932 49.8936C36.2195 49.8629 36.2236 49.8117 36.26 49.7913C36.4767 49.6767 36.7076 49.5683 36.9364 49.466C36.985 49.4947 37.0377 49.5315 37.0843 49.5601C37.1329 49.5908 37.1471 49.5642 37.1795 49.5867C37.3253 49.4967 37.4286 49.4354 37.5096 49.3474C37.5298 49.3269 37.5298 49.3413 37.4427 49.2942C37.6898 49.196 37.9126 49.0467 38.1718 48.9628C38.192 49.0037 38.2164 49.0344 38.2447 49.0876C38.3662 49.016 38.5201 48.9669 38.51 48.9587C38.4837 48.9342 38.3925 48.9055 38.3622 48.881C38.5647 48.8176 38.8057 48.8605 39.0143 48.8053C39.2229 48.7501 39.4092 48.6314 39.6198 48.5864C39.8304 48.5414 40.0309 48.4596 40.2415 48.4228C40.2719 48.4167 40.3185 48.521 40.3489 48.5169C40.6729 48.4617 40.9827 48.2796 41.3149 48.2428C41.329 48.2428 41.3513 48.3123 41.3655 48.3103C41.7078 48.2735 42.0682 48.2264 42.4186 48.208C42.453 48.4023 42.615 48.2694 42.8601 48.1896C42.8682 48.1876 42.8905 48.2469 42.8986 48.2448C42.9532 48.2448 42.9593 48.2285 43.014 48.2264C43.0018 48.3123 43.0464 48.3328 43.0849 48.3737C43.1497 48.4453 43.259 48.4739 43.3643 48.5312C43.3805 48.4637 43.4757 48.4003 43.4373 48.3451C43.3967 48.2898 43.2489 48.2244 43.1416 48.161C43.3461 48.1589 43.579 48.2469 43.7836 48.251C43.9881 48.2551 44.1947 48.1896 44.3992 48.2019C44.6058 48.2121 44.8083 48.3062 45.0149 48.3246C45.2214 48.343 45.4219 48.3369 45.6285 48.3594C45.5637 48.3982 45.4179 48.4678 45.2478 48.5394C45.5475 48.613 45.752 48.5864 45.9242 48.5905C46.0173 48.5926 46.1652 48.5967 46.1409 48.5783C46.1145 48.5578 46.149 48.3717 46.1166 48.3512C46.3373 48.4023 46.5277 48.6151 46.7484 48.6683C46.9692 48.7214 47.2 48.7276 47.4208 48.7828C47.6415 48.838 47.8663 48.8728 48.0871 48.9281C48.3078 48.9833 48.5447 48.9771 48.7635 49.0344C48.9822 49.0917 49.205 49.1449 49.4237 49.2022C49.6464 49.2594 49.8753 49.2963 50.0981 49.3556C50.3208 49.4149 50.5193 49.5663 50.7441 49.6235C50.9689 49.6808 51.1876 49.7483 51.4124 49.8036C51.6372 49.8588 51.8681 49.8833 52.0908 49.9365C52.3136 49.9897 52.5384 50.0511 52.7632 50.1022C52.988 50.1534 53.1986 50.2761 53.4234 50.3231C53.6482 50.3702 53.8872 50.364 54.1119 50.407C54.3367 50.45 54.5534 50.5625 54.7803 50.6013C55.0071 50.6402 55.246 50.6136 55.4749 50.6463C55.7078 50.6811 55.9488 50.6668 56.1817 50.6934C56.4146 50.72 56.6414 50.8386 56.8763 50.8611C57.0586 50.8775 57.2489 50.8059 57.4332 50.8161C57.6175 50.8263 57.7998 50.8611 57.9821 50.8673C58.3101 50.8816 58.6382 50.7957 58.9663 50.7854C59.1972 50.7813 59.428 50.7977 59.6589 50.7854C59.8898 50.7732 60.1328 50.8836 60.3637 50.8591C60.5945 50.8345 60.8193 50.7568 61.0502 50.722C61.2811 50.6872 61.4957 50.585 61.7246 50.54C61.9534 50.495 62.1863 50.4847 62.4111 50.4275C62.6359 50.3702 62.8749 50.3579 63.0976 50.2884C63.3204 50.2188 63.527 50.1043 63.7457 50.0245C63.9644 49.9447 64.1649 49.8281 64.3816 49.734C64.5983 49.6399 64.7623 49.4579 64.9709 49.3556C65.1289 49.2778 65.3841 49.4088 65.461 49.5683L65.4651 49.5663ZM39.8162 38.4731C39.7069 38.4956 39.5712 38.6408 39.4639 38.6674C39.393 38.5652 39.3889 38.2788 39.2431 38.2358C38.996 38.1601 38.6335 38.2624 38.3196 38.244C38.6437 38.1417 38.9758 38.0947 39.314 38.0149C39.4193 37.9904 39.5246 37.9638 39.6319 37.9413C39.8851 37.886 40.1342 37.8103 40.3934 37.7653C40.5028 37.7469 40.6162 37.751 40.7255 37.7347C41.0779 37.6835 41.4263 37.5894 41.7888 37.5567C41.7969 37.5567 41.8029 37.5015 41.811 37.5015C41.9974 37.4851 42.1938 37.6099 42.3821 37.5996C42.5705 37.5894 42.7527 37.5219 42.9411 37.5158C43.0545 37.5137 43.1679 37.4933 43.2813 37.4912C43.5628 37.4912 43.8484 37.4524 44.1339 37.4646C44.2473 37.4687 44.3648 37.4544 44.4782 37.4605C44.6726 37.4708 44.8549 37.6528 45.0493 37.6672C45.2437 37.6815 45.4604 37.5096 45.6548 37.5321C45.8472 37.5731 46.0356 37.6651 46.2259 37.7122C46.4163 37.7592 46.6026 37.8431 46.795 37.8881C46.7788 37.9433 46.7282 37.9269 46.6816 37.9372C45.7561 38.1704 46.6289 38.2951 46.795 38.3504C47.0542 38.4363 47.36 38.5161 47.6213 38.602C47.9473 38.7083 48.1417 38.5202 48.2531 38.4015C48.2835 38.3688 48.2774 38.2317 48.2956 38.1929C48.3807 38.2154 48.6865 38.2931 49.0551 38.3851C49.2718 38.4404 49.4763 38.6756 49.7416 38.7411C49.9765 38.8004 50.2256 38.8515 50.4727 38.915C50.7198 38.9784 50.9729 39.0152 51.2078 39.0745C51.4731 39.142 51.7445 39.1195 51.9592 39.1727C52.3541 39.2709 52.6174 39.4079 52.6741 39.4202C52.8563 39.4611 53.0649 39.3875 53.2472 39.4263C53.4295 39.4652 53.6057 39.5634 53.7899 39.6002C53.9641 39.8539 54.199 40.173 54.3772 40.4266C54.035 40.3632 53.6522 40.1587 53.312 40.0871C53.1783 40.0032 53.0265 39.9705 52.8928 39.8866C52.8624 39.9255 52.8361 40.0584 52.7875 40.1198C52.6862 40.0973 52.3298 40.038 52.0098 39.9623C51.6453 39.8743 51.2787 39.7495 51.2625 39.7455C51.2402 39.727 51.2301 39.7189 51.2139 39.7045C51.1977 39.7127 51.1957 39.635 51.1815 39.6432C51.0965 39.6227 50.8575 39.4918 50.5537 39.4141C50.3431 39.3609 50.0818 39.4182 49.8733 39.3629C49.5168 39.2709 49.1725 39.2566 49.1685 39.2566C49.0672 39.1788 48.97 39.1175 48.8384 39.0745C48.8222 39.0684 48.7999 39.0929 48.7533 39.1216C48.6278 39.0888 48.3989 38.962 48.1134 38.8904C47.919 38.8413 47.7043 38.7656 47.4754 38.7083C47.2628 38.6552 47.0623 38.5283 46.8497 38.4752C46.6229 38.4199 46.4021 38.3626 46.2057 38.3156C45.9302 38.2481 45.6751 38.3095 45.5353 38.2788C45.2397 38.244 44.9541 38.1867 44.6605 38.1663C44.5369 38.0394 44.4255 37.8472 44.2899 37.7203C44.225 37.7653 44.1319 37.8922 44.138 37.9331C44.1501 38.0047 44.1218 38.152 44.1501 38.2195C43.8787 38.2092 43.5952 38.1867 43.3259 38.1888C43.0565 38.1908 42.773 38.2379 42.5057 38.2501C42.4388 38.1867 42.3983 38.0844 42.3396 38.019C42.2809 38.0947 42.2161 38.1274 42.2019 38.1458C42.2019 38.1601 42.2059 38.2338 42.2039 38.2461C41.9872 38.2604 41.7726 38.2911 41.5579 38.3115C41.4364 38.3238 41.3169 38.334 41.1974 38.3483C40.9382 38.3811 40.6729 38.3565 40.4177 38.3995C40.2172 38.4342 40.0086 38.4261 39.8142 38.467L39.8162 38.4731ZM36.4443 46.8477C36.4099 46.8497 36.3491 46.9193 36.3167 46.9091C36.2276 46.8845 36.1912 46.8252 36.1507 46.7495C36.4058 46.8007 36.7278 46.6268 36.9952 46.4468C37.0195 46.4304 37.0742 46.4345 37.1552 46.4549C36.9425 46.5511 36.7967 46.7516 36.5962 46.8579C36.5577 46.8784 36.4869 46.8416 36.4464 46.8457L36.4443 46.8477ZM44.6645 41.3206C44.6341 41.3983 44.5916 41.5149 44.5633 41.5926C44.4721 41.6519 44.3 41.6601 44.1744 41.701C44.3243 41.5476 44.3344 41.3574 44.1825 41.1815C44.1582 41.1549 44.1724 41.1242 44.2331 41.071C44.3162 41.0485 44.3263 41.1508 44.385 41.1549C44.4174 41.1896 44.5227 41.1262 44.5491 41.163C44.5734 41.1958 44.4498 41.3267 44.4559 41.3635C44.4822 41.3676 44.6382 41.3165 44.6665 41.3206H44.6645ZM44.1926 45.3258C44.0691 45.3197 43.976 45.246 43.8544 45.2419C43.7431 45.0599 43.338 45.2849 43.2246 45.3074C43.1254 45.3258 43.097 45.2951 43.1092 45.3217C42.9877 45.3217 42.8581 45.3012 42.7386 45.3053C42.5259 45.3135 42.3194 45.3892 42.1108 45.4056C41.8029 45.4281 41.4992 45.4731 41.1974 45.5099C41.2258 45.4813 41.2521 45.3585 41.2825 45.3299C41.3047 45.334 41.3412 45.2644 41.3635 45.2685C41.4263 45.2787 41.5235 45.2951 41.5437 45.2583C41.645 45.0803 41.2177 44.9801 41.3716 44.796C41.5862 44.7714 41.7705 44.7305 41.9872 44.7142C42.0804 44.8164 42.1654 44.9044 42.1634 45.0415C42.1634 45.0701 42.2424 45.1887 42.2829 45.2276C42.4085 45.1171 42.4166 44.8921 42.534 44.8533C42.6859 44.8021 42.8905 44.7714 43.0707 44.753C43.3542 44.7244 43.4433 44.7285 43.3583 44.6385C43.4251 44.6385 43.4028 44.6876 43.4697 44.6896C43.4697 44.8103 43.5426 44.8839 43.5365 45.0046C43.6195 44.9024 43.6782 44.796 43.7815 44.706C43.8362 44.7489 43.9456 44.7162 44.0104 44.751C44.0347 44.8001 44.0509 44.886 44.1461 44.9515C44.2514 45.0251 44.3061 45.2358 44.1947 45.3258H44.1926ZM44.0894 41.6969C44.1116 41.6908 44.1683 41.6765 44.1906 41.6683C44.1845 41.6765 44.1785 41.7174 44.1704 41.7256C44.1542 41.7256 44.1056 41.699 44.0894 41.6969ZM49.6019 45.7349C49.5249 45.8392 49.4621 45.8679 49.3872 45.9722C49.2657 45.8863 49.1523 45.8842 49.0915 45.7697C49.051 45.6919 48.8607 45.6244 48.8991 45.6429C48.6784 45.6633 48.5063 45.7247 48.3564 45.739C48.1377 45.7574 47.9615 45.6367 47.7975 45.6551C47.6901 45.6674 47.6638 45.7717 47.5605 45.7922C47.6739 45.831 47.6901 45.9722 47.7954 46.0152C47.8926 46.054 48.0222 46.0683 48.1296 46.1031C47.8015 46.0397 47.8501 46.0397 47.4754 45.9476C47.279 45.8986 47.0927 45.6817 46.8638 45.6265C46.635 45.5713 46.392 45.6163 46.1895 45.5672C45.912 45.5017 45.6892 45.3503 45.5515 45.3197C45.2113 45.2808 44.8751 45.2767 44.5349 45.2562C44.5551 45.2031 44.5329 45.2051 44.541 45.1519C44.5673 44.9944 44.5491 44.8369 44.5187 44.6733C44.6726 44.6814 44.8204 44.7183 44.9764 44.7305C45.108 44.8185 45.2498 44.841 45.5374 44.7735C45.6892 44.7367 45.989 44.8103 46.1895 44.8737C46.2036 44.8778 46.1571 44.9453 46.1692 44.9515C46.1449 44.976 46.1247 44.9903 46.1085 45.0128C46.0781 45.0537 46.3089 45.1192 46.4912 45.2767C46.6431 45.1724 46.7606 45.111 46.8841 45.0251C47.2345 45.0149 47.1777 45.1192 47.5706 45.2194C47.7792 45.2726 48.0101 45.3585 48.247 45.4178C48.484 45.4772 48.7088 45.5856 48.9174 45.6367C49.2941 45.7308 49.5756 45.7329 49.5958 45.739L49.6019 45.7349ZM64.8697 43.0266C64.6307 43.137 64.4282 43.2332 64.1892 43.3273C64.0758 43.3723 63.9786 43.4582 63.8672 43.4991C63.766 43.5359 63.6687 43.585 63.5655 43.6198C63.288 43.7118 62.9964 43.8489 62.7189 43.9246C62.6076 43.8346 62.4779 43.6975 62.3564 43.6116C62.2977 43.6546 62.1863 43.6566 62.0628 43.7466C62.16 43.81 62.5387 43.8264 62.4678 43.9696C62.2086 44.033 61.8724 44.0289 61.6132 44.078C61.4735 44.035 61.2304 44.033 61.0421 44.0207C60.9429 44.0146 60.7889 44.0105 60.6695 44.0289C60.7079 44.0719 60.8133 44.1905 60.8598 44.2294C60.7748 44.256 60.6411 44.2335 60.5399 44.2437C60.3292 44.2703 60.1166 44.2621 59.906 44.2785C59.6954 44.2948 59.4847 44.2703 59.2721 44.2785C59.0595 44.2866 58.8529 44.2764 58.6402 44.2764C58.4114 44.2764 58.1846 44.3214 57.9557 44.3132C57.7269 44.305 57.4899 44.4237 57.2611 44.4073C57.0322 44.391 56.8095 44.2866 56.5827 44.2641C56.3558 44.2416 56.1371 44.1373 55.9103 44.1087C55.6835 44.08 55.4384 44.1782 55.2116 44.1434C54.9848 44.1087 54.762 44.0514 54.5352 44.0125C54.3084 43.9737 54.1079 43.8059 53.8831 43.7609C53.8689 43.7589 53.8993 43.9082 53.8851 43.9062C53.9236 43.8837 53.8001 43.7957 53.8001 43.7773C53.8082 43.6648 53.7677 43.6341 53.6502 43.4336C53.4031 43.5932 53.2411 43.5891 53.2614 43.63C53.2755 43.6586 53.2836 43.6914 53.3059 43.718C53.2938 43.7159 52.992 43.6811 52.5748 43.5789C52.3743 43.5298 52.1374 43.4827 51.8802 43.4193C51.6635 43.3661 51.4428 43.2598 51.1997 43.2004C50.975 43.1452 50.736 43.1145 50.5011 43.0572C50.2661 43 50.0251 43 49.7943 42.9427C49.5634 42.8854 49.3589 42.6911 49.1341 42.6359C48.8931 42.5765 48.6399 42.5949 48.4212 42.5418C48.166 42.4783 47.9291 42.4313 47.7245 42.3822C47.3985 42.3024 47.1555 42.2247 47.034 42.194C47.0441 42.1408 47.1089 42.0754 47.0967 42.0365C47.0866 42.0079 46.9246 41.9301 46.8719 41.9056C46.8314 41.9547 46.7869 42.0754 46.7788 42.1265C46.5722 42.0774 46.3495 42.0999 46.1429 42.0508C45.9363 42.0017 45.75 41.8504 45.5455 41.8054C45.3612 41.7849 45.1769 41.7583 44.9926 41.744C44.8083 41.7297 44.6362 41.7235 44.4519 41.7133C44.4782 41.6499 44.4701 41.5947 44.4924 41.5312C44.7091 41.3942 44.8346 41.251 44.7739 41.1283C44.8751 41.1364 45.3186 41.1487 45.43 41.1589C45.3834 41.1794 45.3591 41.1426 45.3895 41.1753C45.6487 41.4106 45.8229 41.744 46.1024 41.971C46.1105 41.9772 46.23 41.8729 46.3596 41.8381C46.2725 41.7604 46.1874 41.6744 46.1064 41.5988C46.2806 41.5497 46.4608 41.5333 46.6249 41.5047C46.957 41.5578 46.9509 41.566 47.279 41.6458C47.6071 41.7256 47.6132 41.701 47.9412 41.7808C48.2693 41.8606 48.328 41.701 48.6379 41.8381C48.5873 41.9424 48.4556 42.1163 48.4192 42.2227C48.4131 42.239 48.5873 42.2636 48.6642 42.2922C48.7149 42.1776 48.8242 42.1142 48.8728 42.0017C48.8809 42.0038 48.8242 42.014 48.8323 42.016C48.9802 42.1531 49.209 42.237 49.531 42.2124C49.5756 42.2083 49.6059 42.2124 49.6485 42.2104C49.8166 42.2533 50.4201 42.3986 50.5537 42.4333C50.6124 42.4743 50.7137 42.4681 50.7664 42.5193C50.819 42.5704 50.8858 42.6318 50.9669 42.6706C50.9952 42.6338 51.0175 42.687 51.056 42.6379C51.3901 42.7238 51.7202 42.7729 52.0483 42.8506C52.182 42.8834 52.4999 42.9529 52.8138 43.0245C53.1277 43.0961 53.4517 43.2086 53.5733 43.2332C53.8122 43.2823 54.0512 43.3416 54.2902 43.3866C54.5291 43.4316 54.7742 43.4602 55.0152 43.4991C55.2562 43.538 55.5215 43.4193 55.7625 43.452C56.0035 43.4848 56.2424 43.54 56.4834 43.5666C56.7244 43.5932 56.9674 43.6177 57.2105 43.6341C57.4535 43.6505 57.6925 43.7671 57.9355 43.7773C58.1785 43.7875 58.4256 43.808 58.6686 43.808C58.9116 43.808 59.1587 43.765 59.4017 43.7527C59.6447 43.7405 59.8837 43.6505 60.1267 43.628C60.3151 43.6136 60.5176 43.5932 60.7079 43.5666C60.8153 43.675 61.0299 43.8305 61.2203 43.9103C61.2406 43.9184 61.3438 43.7793 61.4168 43.7405C61.3479 43.6607 61.1839 43.6321 61.2831 43.5155C61.5828 43.4643 61.8744 43.3825 62.1742 43.3109C62.2126 43.3027 62.2349 43.2291 62.2714 43.2188C62.565 43.1452 62.8789 43.1513 63.1726 43.0572C63.448 42.9693 63.687 42.779 63.9604 42.6706C64.2338 42.5622 64.5072 42.4865 64.7745 42.3597C64.8433 42.329 64.9365 42.419 65.0054 42.3843C65.0438 42.4231 65.1694 42.4538 65.1573 42.5029C65.135 42.5909 64.9406 42.6134 64.8555 42.685C64.6672 42.8445 64.734 42.955 64.8717 43.0347L64.8697 43.0266ZM64.1123 35.7607C64.1487 35.7668 64.2054 35.6686 64.2398 35.6727C64.2601 35.687 64.2925 35.7239 64.3107 35.7361C64.4748 35.8486 64.572 35.9693 64.4646 36.1043C64.1811 36.223 63.8915 36.2905 63.612 36.3866C63.3184 36.4869 63.0754 36.7057 62.7999 36.7835C62.7999 36.7671 62.7108 36.6157 62.7189 36.6035C62.885 36.3416 63.4804 36.2025 63.4541 35.8855C63.45 35.8384 63.8956 35.8057 64.1102 35.7607H64.1123ZM64.6672 39.2463C64.5983 39.1707 64.5274 39.0172 64.4646 38.9395C64.5517 38.9006 64.7056 38.8781 64.7927 38.8372C64.8494 38.9211 64.9649 38.9702 65.0114 39.0561C65.0256 39.0827 64.9223 39.1522 64.8839 39.1686C64.8474 39.185 64.6793 39.2607 64.6651 39.2463H64.6672ZM63.9442 35.5848C64.0576 35.5398 64.2115 35.55 64.3249 35.5029C64.4241 35.6461 64.57 35.7995 64.7704 35.867C64.8069 35.8793 64.817 35.9223 64.8494 35.9345C64.8312 35.9284 64.8251 35.8875 64.813 35.8814C64.6854 35.82 64.4889 35.7014 64.2398 35.6686C64.1669 35.6195 64.0191 35.6338 63.9462 35.5848H63.9442ZM45.9667 41.3696C45.8837 41.294 45.7439 41.249 45.6609 41.1753C45.8006 41.206 45.9606 41.2653 46.1004 41.2981C46.0558 41.3287 45.9768 41.3144 45.9323 41.3451C45.9181 41.3553 45.9768 41.3594 45.9647 41.3717L45.9667 41.3696ZM36.177 43.0716C36.0919 42.912 36.1 42.7136 36.2519 42.6318C36.5253 42.4865 36.823 42.4395 37.1187 42.3127C37.1815 42.4763 37.2827 42.6502 37.787 42.6952C37.8316 42.6993 37.9105 42.685 37.9531 42.689C37.7384 42.7688 37.5318 42.8772 37.3273 42.9672C37.0762 43.0736 36.8048 43.1186 36.5719 43.2413C36.418 43.3273 36.258 43.2229 36.175 43.0695L36.177 43.0716ZM36.58 36.1248C36.7521 36.0327 36.8757 35.91 37.058 35.8261C36.9142 35.7525 36.9243 35.7729 36.9425 35.7525C37.0134 35.6686 37.0701 35.4395 37.2281 35.3904C37.2645 35.3782 37.5885 35.6154 37.5845 35.6604C37.8093 35.5684 38.0321 35.4375 38.267 35.3597C38.4229 35.3066 38.6011 35.2861 38.7611 35.2391C38.7247 35.1756 38.7895 35.0099 38.8077 34.9179C38.6923 34.9138 38.51 34.9097 38.3946 34.9036C38.3196 34.8995 38.2204 34.8422 38.1536 34.8054C38.3723 34.7563 38.6234 34.7686 38.8442 34.7195C38.8644 34.6949 38.8887 34.6867 38.913 34.6581C38.9515 34.6724 38.9879 34.5845 39.0264 34.5988C39.0953 34.5865 39.15 34.5865 39.2188 34.5763C39.3241 34.5599 39.5712 34.7154 39.5793 34.7563C39.5874 34.8013 39.6178 34.8606 39.5752 34.9138C39.6157 34.9322 39.6319 34.9322 39.6644 34.9527C39.9479 34.8893 40.2274 34.7686 40.521 34.7215C40.6385 34.7011 40.7762 34.8013 40.8957 34.7849C41.1994 34.742 41.4931 34.5804 41.8029 34.5538C41.888 34.5456 41.9832 34.6704 42.0682 34.6642C42.3497 34.6438 42.6292 34.607 42.9148 34.5988C42.9998 34.5967 43.0828 34.6172 43.1679 34.6172C43.5102 34.6131 43.8524 34.6561 44.1987 34.6704C44.2797 34.6745 44.3668 34.5231 44.4478 34.5272C44.6301 34.5374 44.8144 34.5824 44.9966 34.5967C45.1789 34.6111 45.3733 34.5845 45.5576 34.6049C45.827 34.6642 46.0781 34.834 46.3495 34.8974C46.6208 34.9609 46.874 35.0877 47.1433 35.1531C47.3256 35.1981 47.5241 35.1777 47.7063 35.2247C47.8886 35.2718 48.083 35.237 48.2653 35.2841C48.2572 35.2636 48.2349 35.3066 48.2248 35.2841C48.2916 35.2738 48.4253 35.2841 48.565 35.2636C48.5873 35.3352 48.6703 35.3372 48.6906 35.4088C48.7635 35.4272 48.966 35.552 49.2596 35.6277C49.4581 35.6789 49.6667 35.7791 49.8652 35.8302C50.1932 35.9141 50.4464 35.8261 50.4666 35.8302C50.5152 35.8036 50.5456 35.8139 50.5983 35.7709C50.6165 35.7545 50.6833 35.8507 50.7259 35.8486C50.7218 35.908 50.7097 35.9836 50.7097 36.043C50.7684 36.0573 51.0539 36.135 51.3456 36.2066C51.538 36.2537 51.7789 36.18 51.9713 36.2271C52.2528 36.2946 52.4614 36.4869 52.5364 36.5032C52.7348 36.5482 52.9535 36.5503 53.154 36.5932C53.2755 36.5339 53.389 36.5216 53.4436 36.6239C53.9479 36.7671 54.438 36.763 54.4805 36.7691C54.7924 36.8244 55.0861 37.0187 55.3979 37.0637C55.4303 37.0494 55.5235 37.0146 55.5478 36.9942C55.7766 36.8264 55.6653 36.8141 55.8657 37.0044C55.9063 37.0432 56.0278 37.0269 56.0804 37.0514C56.1189 37.0617 56.1472 37.0637 56.1533 37.0658C56.2526 37.0453 56.4044 37.0064 56.4186 36.9573C56.4733 36.7691 56.5077 36.6689 56.0419 36.5339C55.9488 36.5073 55.8657 36.5134 55.7949 36.4746C55.5275 36.4378 55.2886 36.2516 55.0233 36.2087C54.758 36.1657 54.4866 36.1555 54.2193 36.1043C54.2092 36.1043 54.197 36.1105 54.1869 36.1084C53.9196 36.0573 53.6502 36.0246 53.3849 35.9693C53.1196 35.9141 52.8381 35.9223 52.5748 35.8609C52.508 35.8445 52.2123 35.6727 51.8012 35.5704C51.5582 35.5091 51.2646 35.5152 50.9891 35.4457C50.7137 35.3761 50.4423 35.2943 50.1973 35.2329C49.8085 35.1347 49.5047 35.0386 49.4075 35.012C49.1584 34.9465 48.8951 34.9343 48.644 34.8688C48.3929 34.8033 48.1782 34.607 47.925 34.5436C47.6719 34.4801 47.4187 34.4392 47.1656 34.3779C46.9125 34.3165 46.6613 34.2654 46.4082 34.206C46.155 34.1467 45.8897 34.1733 45.6366 34.1181C45.3915 34.0894 45.1587 33.9524 44.9136 33.934C44.6686 33.9156 44.4154 33.9422 44.1704 33.934C43.9253 33.9258 43.6762 33.9074 43.4292 33.9074C43.1821 33.9074 42.931 33.8624 42.6859 33.8726C42.4409 33.8828 42.1877 33.8931 41.9427 33.9115C41.6976 33.9299 41.4465 33.9647 41.2035 33.9953C40.9605 34.026 40.7053 34.0383 40.4643 34.0772C40.2233 34.116 39.9722 34.161 39.7312 34.2101C39.4902 34.2592 39.2877 34.4945 39.0507 34.5558C38.8138 34.6172 38.5586 34.6254 38.3257 34.7011C38.0928 34.7768 37.864 34.8811 37.6351 34.967C37.4063 35.0529 37.1795 35.1572 36.9567 35.2575C36.7339 35.3577 36.4443 35.3393 36.2276 35.4538C36.0737 35.5357 36.1021 35.7709 36.1851 35.9264C36.2681 36.0839 36.4261 36.2066 36.578 36.1248H36.58ZM55.244 36.3989C55.2683 36.3825 55.4627 36.4071 55.6551 36.448C55.4546 36.5953 55.244 36.628 55.1063 36.7282C55.0476 36.675 55.0212 36.718 55.0415 36.6812C55.0921 36.583 55.1306 36.4766 55.244 36.3989ZM58.3405 37.1967C58.383 37.121 58.3223 37.078 58.223 36.9573C58.1927 36.9205 58.2798 36.853 58.3081 36.806C58.3506 36.7303 58.4114 36.5175 58.5876 36.6689C58.8286 36.8776 59.2053 37.0126 59.5435 37.1619C59.3328 37.1721 59.0595 37.2887 58.8468 37.2928C58.5916 37.2805 58.4539 37.1987 58.3405 37.1967ZM61.0178 37.0821C60.9915 37.0637 61.0239 36.9942 61.0137 36.9778C60.9145 36.7937 60.7626 36.6341 60.6715 36.448C60.8983 36.4193 61.1272 36.3764 61.354 36.3355C61.3682 36.3334 61.3783 36.2966 61.3925 36.2925C61.6091 36.2537 61.8319 36.3048 62.0486 36.2557C62.1276 36.3314 62.1944 36.3559 62.0729 36.4664C62.2754 36.5564 62.2673 36.6157 62.3038 36.7344C62.0871 36.7876 61.9352 36.9287 61.7185 36.9717C61.7003 36.9757 61.6618 36.8694 61.6456 36.8735C61.4309 36.9144 61.2304 37.0535 61.0158 37.0842L61.0178 37.0821ZM62.6784 36.0184C62.7068 36.0021 62.723 35.9652 62.7554 35.9632C62.7493 35.9796 62.7675 36.1391 62.7615 36.1555C62.7473 36.1452 62.6926 36.0286 62.6805 36.0184H62.6784ZM36.2054 39.4877C36.1203 39.3282 36.096 39.1379 36.2499 39.0561C36.5415 38.9006 36.8878 38.8515 37.2017 38.7186C37.5156 38.5877 37.8194 38.4363 38.1536 38.3258C38.192 38.3483 38.2265 38.3545 38.2609 38.3524C38.8057 38.3422 38.8361 38.6081 39.0345 38.7513C38.6963 38.8454 38.2933 38.8515 37.9733 38.9681C37.864 39.007 37.7769 39.1052 37.6696 39.1461C37.5541 39.1911 37.4346 39.2279 37.3212 39.277C37.058 39.3895 36.8149 39.545 36.5699 39.6759C36.416 39.7577 36.2864 39.6432 36.2054 39.4877ZM64.9406 35.9182C64.9223 35.91 64.8859 35.8895 64.8656 35.8814C64.8859 35.8895 64.9163 35.91 64.9406 35.9182Z" fill="#D16A1B"/>
<path d="M3.15623 16.0903C2.99422 16.0903 2.8079 16.1599 2.70664 16.0474C2.55881 15.8858 2.59931 15.5626 2.55678 15.27C2.52033 15.0225 2.52843 14.7607 2.53248 14.507C2.53855 14.2043 2.5426 13.9281 2.55678 13.7379C2.56286 13.654 2.50008 13.6499 2.50818 13.5661C2.52438 13.3758 2.4454 13.1222 2.47577 12.8603C2.5021 12.6374 2.72487 12.4328 2.77347 12.2037C2.82208 11.9746 2.82613 11.7271 2.90916 11.5287C3.01245 11.2812 3.14813 11.1216 3.3223 11.0214C3.36483 10.9968 3.38305 10.9375 3.43773 10.9375C3.67265 10.9375 3.97643 11.1584 4.20325 11.3077C4.26805 11.3507 4.33488 11.3793 4.38754 11.41C4.69537 11.5962 5.04775 11.7189 5.35355 11.8928C5.54594 12.0032 5.66542 12.2487 5.85984 12.3612C6.05426 12.4737 6.28108 12.529 6.46942 12.6476C6.69826 12.7908 6.75294 12.7028 6.98179 12.846C7.17823 12.9688 7.31392 13.1938 7.51238 13.3186C7.71085 13.4433 7.88907 13.5927 8.08753 13.7174C8.286 13.8422 8.49864 13.9384 8.69508 14.0652C8.91785 14.2084 8.99684 14.2902 8.97861 14.3434C8.93811 14.4641 8.70724 14.5152 8.41156 14.6114C8.20904 14.6768 7.99235 14.7689 7.77566 14.8159C7.51036 14.8752 7.25721 14.8711 7.10937 14.8977C6.93318 14.9305 6.79345 14.9775 6.70636 15C6.45929 15.0634 6.17779 15.1207 5.88617 15.2025C5.62695 15.2741 5.38392 15.4623 5.10648 15.5462C4.82903 15.6301 4.5536 15.6566 4.28425 15.7487C4.10401 15.8101 3.93795 15.9123 3.76379 15.9758C3.58557 16.0412 3.40128 16.1128 3.22104 16.1742C3.21699 16.1742 3.20889 16.0944 3.20281 16.0944C3.19876 16.0944 3.19674 16.0964 3.19471 16.0964C3.18053 16.0964 3.16838 16.0903 3.15623 16.0903Z" fill="#D16A1B"/>
<path d="M7.05122 20.1774C6.96009 20.3594 6.7677 20.5006 6.66036 20.6847C6.55303 20.8688 6.4376 21.0529 6.30191 21.194C6.14192 21.3597 5.99003 21.5213 5.78751 21.5356C5.77131 21.5356 5.75511 21.5929 5.74094 21.5929C5.53032 21.5929 5.2873 21.4579 5.09085 21.3127C4.91669 21.1817 4.7891 20.9649 4.64329 20.7931C4.47925 20.6028 4.41445 20.3512 4.30509 20.1999C4.19775 20.0505 4.08839 19.9053 3.98713 19.7478C3.88588 19.5903 3.69146 19.4941 3.59425 19.3366C3.53755 19.2425 3.42009 19.1873 3.36338 19.0932C3.17301 18.7864 3.10213 18.4264 2.98265 18.097C2.93607 17.9661 2.87329 17.6163 3.0029 17.3852C3.02923 17.3402 2.96847 17.2399 3.0029 17.1949C3.02518 17.1663 3.011 17.1131 3.03328 17.0824C3.04543 17.064 3.12036 17.1192 3.14264 17.1131C3.38566 17.0395 3.6226 16.884 3.94461 16.7653C4.15927 16.6856 4.36787 16.5894 4.58659 16.5158C4.8053 16.4421 5.02402 16.3808 5.24477 16.3133C5.46551 16.2458 5.71663 16.299 5.93738 16.2355C6.15812 16.1721 6.37076 16.0883 6.59151 16.0289C6.81225 15.9696 7.01882 15.853 7.23956 15.7957C7.46031 15.7385 7.69523 15.7282 7.91597 15.673C8.13672 15.6178 8.34531 15.4971 8.56605 15.4419C8.87996 15.3641 9.21816 15.3907 9.52801 15.313C9.53409 15.313 9.52194 15.2721 9.52801 15.2721C9.56041 15.2721 9.60092 15.2393 9.64142 15.2557C9.65762 15.2618 9.69003 15.225 9.7042 15.2312C9.78116 15.2578 9.86217 15.3171 9.87229 15.3478C9.92292 15.5175 9.62522 15.806 9.43688 16.1087C9.26474 16.3828 9.06425 16.6447 8.95084 16.794C8.87996 16.8881 8.86375 16.9944 8.82933 17.0456C8.66124 17.2972 8.45264 17.5263 8.29265 17.784C8.13267 18.0418 7.9909 18.3159 7.83699 18.5736C7.73776 18.7393 7.60815 18.8907 7.50486 19.0584C7.40158 19.2262 7.42588 19.4716 7.3226 19.6373C7.22741 19.7867 7.15248 19.9789 7.05325 20.1774H7.05122Z" fill="#D16A1B"/>
<path d="M4.45222 10.1767C4.32463 9.94354 4.18084 9.71239 4.27805 9.43828C4.35298 9.22759 4.48057 8.97598 4.65676 8.76938C4.80865 8.59141 5.1023 8.53005 5.29874 8.36435C5.49518 8.19866 5.63289 7.98592 5.83541 7.84887C6.04805 7.70568 6.27285 7.58499 6.47536 7.47248C6.72446 7.33543 6.92293 7.1411 7.10924 7.06746C7.28746 6.99586 7.53048 7.07155 7.71882 7.01427C7.91931 6.95291 8.10361 6.82812 8.28385 6.82812C8.66458 6.82812 8.94405 7.03677 9.03519 7.46634C9.09999 7.76909 9.12632 8.09638 9.1567 8.40322C9.181 8.65892 9.13442 8.93098 9.17897 9.19077C9.2215 9.43419 9.22555 9.68784 9.27011 9.93127C9.31466 10.1747 9.42604 10.4099 9.4706 10.6513C9.49895 10.8027 9.55566 10.7904 9.58198 10.9418C9.59413 11.0072 9.52123 11.13 9.5516 11.265C9.58603 11.4143 9.64071 11.6434 9.69337 11.9073C9.73387 12.1119 9.72982 12.341 9.76425 12.5639C9.79868 12.7869 9.94246 13.0078 9.95056 13.2083C9.96272 13.4988 9.85943 13.7217 9.77235 13.8342C9.75007 13.8629 9.74805 13.9447 9.71159 13.9447C9.66501 13.9447 9.56781 13.8588 9.37744 13.7319C9.25796 13.6522 9.11012 13.601 8.99468 13.5008C8.89747 13.4149 8.84684 13.2615 8.73748 13.1817C8.55117 13.0446 8.35068 12.928 8.15626 12.8033C7.96184 12.6785 7.78565 12.523 7.58921 12.4044C7.39277 12.2857 7.16797 12.2059 6.97153 12.0914C6.72446 11.9462 6.45714 11.8112 6.21007 11.6598C6.10273 11.5943 5.95085 11.6045 5.83744 11.537C5.65517 11.4307 5.52961 11.2077 5.34329 11.087C5.15698 10.9663 4.99901 10.8231 4.84307 10.6779C4.67701 10.5265 4.55753 10.369 4.45424 10.1808L4.45222 10.1767Z" fill="#D16A1B"/>
<path d="M11.9193 22.831C11.9517 22.9721 11.9517 23.0458 11.8808 23.1419C11.8707 23.1583 11.8889 23.191 11.8707 23.1971C11.6803 23.2708 11.4839 23.3424 11.2672 23.3771C11.0708 23.4078 10.8602 23.4549 10.6374 23.4549C10.3944 23.4549 10.1372 23.4099 9.85971 23.373C9.62277 23.3424 9.37975 23.2339 9.1023 23.1726C8.90991 23.1317 8.68714 23.1869 8.49677 23.1276C8.30641 23.0683 8.13629 22.9394 7.94997 22.876C7.86289 22.8453 7.89125 22.7573 7.80416 22.7266C7.53887 22.6366 7.30192 22.5691 7.08928 22.4403C6.76525 22.2439 6.826 22.025 6.92929 21.5975C6.93334 21.5832 6.83613 21.5177 6.84423 21.5075C6.86448 21.4829 6.93131 21.4973 6.94954 21.4727C6.96979 21.442 7.00422 21.4154 7.01434 21.3827C7.01434 21.3745 7.08523 21.4134 7.0913 21.4052C7.22901 21.1802 7.34242 20.9449 7.47811 20.7281C7.6138 20.5113 7.68873 20.2372 7.82239 20.0224C7.94187 19.8342 8.11199 19.6787 8.22945 19.4885C8.34691 19.2983 8.49677 19.1285 8.61221 18.9382C8.72764 18.748 8.76612 18.5087 8.88156 18.3184C8.99699 18.1282 9.14078 17.9523 9.25419 17.7641C9.3757 17.5636 9.44658 17.3284 9.56809 17.1259C9.6896 16.9233 9.76048 16.6901 9.88402 16.4876C10.0076 16.2851 10.281 16.1849 10.4065 15.9865C10.447 15.9578 10.3923 15.9783 10.4065 15.9762C10.4106 15.9803 10.4693 15.8903 10.4774 15.9087C10.4916 15.9394 10.5017 15.9558 10.5219 15.9803C10.5341 15.9947 10.4187 16.0581 10.4227 16.0744C10.4733 16.3117 10.6718 16.5163 10.7224 16.7515C10.7731 16.9868 10.8196 17.2261 10.8723 17.4634C10.925 17.7007 10.852 17.9645 10.9047 18.2018C10.9574 18.4391 11.0019 18.6764 11.0546 18.9137C11.1072 19.151 11.3158 19.3514 11.3685 19.5867C11.4211 19.8219 11.4961 20.0551 11.5487 20.2904C11.6014 20.5256 11.5507 20.7874 11.6054 21.0227C11.6601 21.2579 11.6783 21.5034 11.731 21.7386C11.7836 21.9739 11.9456 22.1866 11.9983 22.4219C12.0023 22.4362 11.9821 22.475 11.978 22.4914C11.9679 22.5405 11.978 22.5691 11.9942 22.6203C12.0003 22.6428 11.9031 22.6776 11.9112 22.6939C11.9031 22.7348 11.9051 22.7921 11.9153 22.8371L11.9193 22.831Z" fill="#D16A1B"/>
<path d="M9.75449 7.58296C9.72411 7.25362 9.77069 6.84041 9.98536 6.58881C10.0927 6.46198 10.1838 6.28811 10.3479 6.27583C10.5342 6.26356 10.6921 6.30243 10.8339 6.30243C11.079 6.30243 11.328 6.29424 11.5711 6.31675C11.8141 6.33925 12.051 6.43334 12.29 6.4763C12.529 6.51926 12.7477 6.65017 12.9826 6.71563C13.2175 6.78109 13.4828 6.74632 13.7117 6.83428C13.7157 6.83428 13.7178 6.85269 13.7218 6.85473C13.9729 6.98769 14.1025 7.1718 14.1977 7.34772C14.303 7.54 14.3213 7.74047 14.2504 8.00844C14.1977 8.2089 14.2058 8.46665 14.0924 8.67734C13.9891 8.86963 13.7238 8.98009 13.6064 9.17237C13.5679 9.23578 13.5841 9.33397 13.5456 9.39534C13.416 9.60808 13.3532 9.86582 13.2216 10.0786C13.0899 10.2913 12.9725 10.5163 12.8429 10.727C12.7153 10.9336 12.4945 11.085 12.3649 11.2957C12.2353 11.5064 12.1705 11.7518 12.0429 11.9625C11.9153 12.1732 11.7655 12.3676 11.6399 12.5783C11.5184 12.7808 11.3645 12.9199 11.2653 13.059C11.0972 13.2922 10.9838 13.4558 10.8886 13.5315C10.8339 13.5765 10.8177 13.5315 10.8015 13.4599C10.8015 13.4517 10.7752 13.4476 10.7731 13.4374C10.7266 13.2001 10.5787 12.9812 10.5322 12.7419C10.4856 12.5026 10.5504 12.2428 10.5038 12.0034C10.4572 11.7641 10.3519 11.5371 10.3074 11.2977C10.2628 11.0584 10.198 10.8232 10.1534 10.5818C10.1251 10.3997 10.1717 10.2013 10.1393 10.0151C10.1069 9.829 10.119 9.63672 10.0866 9.45466C10.0502 9.24806 10.0076 9.04145 9.97118 8.83076C9.93473 8.62006 9.85777 8.42164 9.82739 8.213C9.79702 8.00435 9.77271 7.79365 9.75449 7.585V7.58296Z" fill="#D16A1B"/>
<path d="M17.4808 19.9431C17.4869 19.9718 17.4363 19.9513 17.416 19.9718C17.3735 20.0188 17.3917 20.0352 17.3492 20.0822C17.169 20.2827 17.0292 20.5159 16.849 20.7061C16.6687 20.8964 16.5189 21.1336 16.3224 21.3116C16.126 21.4896 15.9073 21.6471 15.6886 21.8025C15.4779 21.9519 15.2167 22.0869 14.9716 22.2444C14.9656 22.2485 14.9554 22.2526 14.9494 22.2567C14.921 22.2669 14.9068 22.2935 14.8825 22.3098C14.8319 22.3467 14.7104 22.2935 14.6476 22.3344C14.3803 22.4899 14.2041 22.7742 13.9712 22.8601C13.6776 22.9665 13.3758 22.8724 13.1247 22.8724C13.0903 22.8724 13.0558 22.9337 13.0214 22.9317C13.0113 22.9317 13.0133 22.8887 13.0032 22.8847C12.8837 22.8397 12.8391 22.7599 12.7703 22.6453C12.7642 22.6351 12.6974 22.6637 12.6953 22.6535C12.6386 22.4101 12.5941 22.1667 12.5394 21.9273C12.4847 21.688 12.343 21.463 12.2883 21.2236C12.2336 20.9843 12.2134 20.7307 12.1587 20.4913C12.104 20.252 11.9946 20.0188 11.94 19.7795C11.8853 19.5401 11.8508 19.2906 11.7962 19.0492C11.7415 18.8078 11.7212 18.5583 11.6686 18.3169C11.6159 18.0755 11.6504 17.8137 11.5977 17.5723C11.545 17.3309 11.4256 17.1039 11.3729 16.8625C11.3202 16.6211 11.2878 16.3756 11.2372 16.1322C11.2372 16.1261 11.3182 16.1199 11.3182 16.1138C11.3182 16.0913 11.2554 16.0627 11.2514 16.0402C11.2433 16.0013 11.223 15.9665 11.2271 15.9276C11.3 15.8908 11.3425 15.9645 11.4154 15.9276C11.4377 15.942 11.4742 15.8049 11.4964 15.8172C11.8043 15.9972 12.0696 16.2468 12.3754 16.4227C12.5779 16.5393 12.7784 16.6641 12.9829 16.7827C13.1875 16.9013 13.39 17.0179 13.5945 17.1366C13.7991 17.2552 14.0502 17.29 14.2527 17.4127C14.4552 17.5355 14.6294 17.7032 14.8299 17.828C15.0304 17.9528 15.1843 18.1512 15.3827 18.278C15.5812 18.4048 15.804 18.4969 15.9984 18.6299C16.1786 18.7526 16.365 18.8815 16.5736 19.0165C16.7538 19.1331 16.934 19.2742 17.1467 19.4072C17.1548 19.4194 17.1507 19.4358 17.1609 19.4481C17.3269 19.6138 17.4464 19.757 17.4788 19.9431H17.4808Z" fill="#D16A1B"/>
<path d="M10.7814 4.54129C10.5384 4.54129 10.3014 4.6763 10.0624 4.69267C9.82347 4.70903 9.57235 4.63744 9.3354 4.67016C9.09846 4.70289 8.87366 4.82972 8.63874 4.88086C8.40382 4.932 8.17295 4.99746 7.94411 5.06496C7.71526 5.13246 7.48844 5.21224 7.26365 5.29407C7.03886 5.37589 6.78166 5.38612 6.56294 5.48635C6.34422 5.58658 6.13968 5.72364 5.92906 5.83819C5.71844 5.95274 5.54428 6.1348 5.34176 6.26367C5.13924 6.39254 4.91445 6.48868 4.72206 6.63187C4.52966 6.77506 4.25424 6.82211 4.06995 6.97757C3.88566 7.13304 3.8006 7.4051 3.62846 7.57488C3.45632 7.74467 3.26596 7.89399 3.10597 8.07605C2.94598 8.25811 2.83662 8.47903 2.69081 8.67336C2.54499 8.86769 2.42348 9.0702 2.28982 9.27476C2.15616 9.47932 1.90099 9.6041 1.78353 9.81684C1.66607 10.0296 1.56481 10.2546 1.46355 10.4755C1.36229 10.6964 1.38659 10.9685 1.29951 11.1976C1.21243 11.4267 1.03421 11.619 0.965358 11.8522C0.896502 12.0854 0.831696 12.3227 0.781067 12.56C0.730438 12.7972 0.716261 13.0427 0.681833 13.2841C0.647405 13.5255 0.647405 13.7668 0.631204 14.0123C0.615003 14.2578 0.511719 14.4951 0.511719 14.7405C0.511719 14.986 0.598801 15.2294 0.615003 15.4688C0.631204 15.7081 0.702085 15.9495 0.736513 16.1868C0.770941 16.424 0.791193 16.6695 0.843847 16.9068C0.896502 17.1441 0.93093 17.3875 0.999786 17.6187C1.06864 17.8498 1.1942 18.0646 1.28129 18.2917C1.36837 18.5187 1.42305 18.7581 1.52431 18.9769C1.62556 19.1958 1.79973 19.3779 1.91719 19.5906C2.03465 19.8033 2.13996 20.0181 2.2716 20.2206C2.40323 20.4232 2.46196 20.6809 2.6098 20.8732C2.75764 21.0655 3.00268 21.1759 3.16267 21.358C3.32266 21.54 3.44822 21.7507 3.62036 21.9205C3.7925 22.0903 3.97274 22.2499 4.15703 22.4074C4.34132 22.5649 4.56814 22.659 4.76256 22.8042C4.95698 22.9494 5.12709 23.1192 5.32961 23.2501C5.53213 23.3811 5.73059 23.514 5.94526 23.6286C6.15993 23.7431 6.35435 23.8904 6.57509 23.9886C6.79584 24.0868 7.0024 24.2218 7.23125 24.3057C7.46009 24.3895 7.70716 24.4018 7.94006 24.4693C8.17295 24.5368 8.4099 24.5634 8.64684 24.6145C8.88379 24.6657 9.10251 24.8089 9.34148 24.8416C9.58045 24.8743 9.83157 24.7843 10.0726 24.8027C10.3136 24.8211 10.5485 24.8661 10.7915 24.8661C11.0345 24.8661 11.2735 24.858 11.5125 24.8416C11.7514 24.8252 12.0005 24.8539 12.2375 24.8211C12.4744 24.7884 12.7174 24.7434 12.9524 24.6943C13.1873 24.6452 13.4283 24.592 13.6592 24.5245C13.89 24.457 14.0804 24.2566 14.3052 24.1747C14.53 24.0929 14.7527 24.005 14.9715 23.9068C15.1902 23.8086 15.4109 23.7165 15.6236 23.602C15.8362 23.4874 16.1197 23.4936 16.3243 23.3647C16.5288 23.2358 16.6807 23.0231 16.8751 22.8799C17.0695 22.7367 17.2619 22.5894 17.4462 22.4319C17.6305 22.2744 17.746 22.0453 17.9181 21.8755C18.0902 21.7057 18.3677 21.6362 18.5277 21.4541C18.6877 21.2721 18.7788 21.0286 18.9246 20.8364C19.0704 20.6441 19.2365 20.4641 19.3701 20.2616C19.5038 20.059 19.5281 19.7931 19.6476 19.5804C19.7671 19.3676 19.9595 19.1999 20.0628 18.979C20.166 18.7581 20.3017 18.5514 20.3888 18.3244C20.4759 18.0973 20.6014 17.8785 20.6723 17.6453C20.7432 17.4121 20.7594 17.1605 20.8121 16.9232C20.8647 16.6859 20.8667 16.4384 20.9032 16.1949C20.9397 15.9515 20.9316 15.7101 20.9498 15.4667C20.968 15.2233 20.9498 14.984 20.9498 14.7385C20.9498 14.493 20.9417 14.2537 20.9235 14.0123C20.9052 13.7709 20.8951 13.5275 20.8607 13.2882C20.8262 13.0488 20.8485 12.7952 20.7979 12.5579C20.7473 12.3206 20.6642 12.0874 20.5954 11.8563C20.5265 11.6251 20.4253 11.4001 20.3402 11.1731C20.2551 10.946 20.1863 10.7087 20.083 10.4898C19.9797 10.271 19.8197 10.0807 19.7002 9.86798C19.5808 9.65524 19.4228 9.47318 19.2912 9.27067C19.1595 9.06815 19.0765 8.83291 18.9287 8.63858C18.7808 8.44425 18.5986 8.28674 18.4386 8.10469C18.2786 7.92263 18.1247 7.74058 17.9525 7.57079C17.7804 7.40101 17.5819 7.266 17.3976 7.10849C17.2133 6.95098 17.0311 6.80166 16.8346 6.65846C16.6382 6.51527 16.5126 6.2739 16.3081 6.14503C16.1035 6.01615 15.8322 6.00593 15.6195 5.89137C15.4069 5.77682 15.2206 5.61727 14.9998 5.51703C14.7791 5.4168 14.5563 5.33498 14.3275 5.25111C14.0986 5.16724 13.9082 4.977 13.6754 4.9095C13.4425 4.84199 13.2035 4.78267 12.9665 4.73358C12.7296 4.68448 12.4886 4.63948 12.2476 4.60471C12.0066 4.56993 11.7555 4.66812 11.5145 4.65175C11.2735 4.63539 11.0366 4.53516 10.7935 4.53516L10.7814 4.54129ZM10.7814 24.3159C10.5323 24.3159 10.2812 24.4325 10.0361 24.4141C9.79107 24.3957 9.55412 24.2688 9.3111 24.23C9.06808 24.1911 8.80683 24.2259 8.56786 24.1686C8.32889 24.1113 8.08182 24.05 7.84893 23.9743C7.61603 23.8986 7.37504 23.8147 7.14822 23.7206C6.9214 23.6265 6.73103 23.4404 6.51029 23.3258C6.28954 23.2113 6.05867 23.1213 5.84805 22.9904C5.63744 22.8594 5.39036 22.7776 5.1919 22.6303C4.99343 22.483 4.82332 22.2887 4.63497 22.1271C4.44663 21.9655 4.35955 21.6975 4.18336 21.5216C4.00717 21.3457 3.73985 21.2598 3.57783 21.0716C3.41582 20.8834 3.29026 20.6625 3.14647 20.46C3.00268 20.2575 2.81637 20.0815 2.68676 19.8688C2.55714 19.6561 2.41741 19.4433 2.30602 19.2204C2.19464 18.9974 2.22907 18.7069 2.13388 18.4758C2.0387 18.2446 1.94352 18.0216 1.86656 17.7844C1.7896 17.5471 1.59924 17.3425 1.54253 17.0991C1.48583 16.8557 1.54253 16.5918 1.50405 16.3422C1.46558 16.0927 1.43925 15.8533 1.42102 15.6017C1.4028 15.3501 1.36027 15.1087 1.36027 14.8571C1.36027 14.6055 1.34204 14.3539 1.36027 14.1085C1.37849 13.863 1.50203 13.6237 1.54051 13.3782C1.57899 13.1327 1.55063 12.8729 1.60734 12.6315C1.66404 12.3902 1.69037 12.1345 1.76733 11.8972C1.84428 11.6599 1.95162 11.4308 2.0468 11.2017C2.14198 10.9726 2.26957 10.7558 2.38298 10.5328C2.49639 10.3098 2.57335 10.0664 2.70093 9.85366C2.82852 9.64092 3.00268 9.45477 3.1485 9.2543C3.29431 9.05384 3.39152 8.80837 3.55151 8.62017C3.71149 8.43198 3.89984 8.25811 4.074 8.08219C4.24817 7.90627 4.49929 7.81013 4.6856 7.64852C4.87192 7.48692 4.99343 7.23532 5.19392 7.09008C5.39441 6.94485 5.63136 6.8487 5.84198 6.71779C6.0526 6.58687 6.26726 6.46209 6.48801 6.34754C6.70875 6.23298 6.90722 6.06729 7.13606 5.97115C7.36491 5.87501 7.61603 5.83205 7.85095 5.75432C8.08587 5.67659 8.32889 5.62545 8.56989 5.56613C8.81088 5.50681 9.05998 5.50271 9.30503 5.46385C9.55007 5.42498 9.79512 5.44135 10.0422 5.42294C10.2893 5.40453 10.5282 5.32884 10.7773 5.32884C11.0264 5.32884 11.2755 5.30634 11.5206 5.32679C11.7656 5.34725 12.0005 5.47817 12.2436 5.51499C12.4866 5.55181 12.7519 5.48839 12.9908 5.54567C13.2298 5.60295 13.4627 5.70932 13.6956 5.785C13.9285 5.86069 14.1634 5.9507 14.3902 6.04479C14.6171 6.13889 14.8196 6.29435 15.0383 6.40686C15.257 6.51937 15.4717 6.64005 15.6823 6.77097C15.8929 6.90189 16.0914 7.04508 16.2899 7.19236C16.4883 7.33964 16.7658 7.39078 16.9521 7.55238C17.1384 7.71398 17.3227 7.8899 17.4989 8.06582C17.6751 8.24174 17.833 8.44016 17.993 8.6304C18.153 8.82064 18.1895 9.10702 18.3353 9.30953C18.4811 9.51204 18.6897 9.66546 18.8193 9.8782C18.9489 10.0909 19.0643 10.3098 19.1757 10.5328C19.2871 10.7558 19.4755 10.946 19.5706 11.1751C19.6658 11.4042 19.6071 11.6926 19.684 11.9299C19.761 12.1672 19.9068 12.382 19.9655 12.6254C20.0243 12.8688 20.0385 13.1184 20.0769 13.3659C20.1154 13.6134 20.2572 13.8487 20.2774 14.0982C20.2977 14.3478 20.2086 14.6014 20.2086 14.853C20.2086 15.1047 20.1519 15.3501 20.1336 15.5976C20.1154 15.8452 20.0364 16.0845 19.9979 16.33C19.9595 16.5754 19.9554 16.825 19.8987 17.0664C19.842 17.3077 19.8137 17.5593 19.7387 17.7946C19.6638 18.0298 19.6071 18.2794 19.5119 18.5085C19.4167 18.7376 19.3377 18.981 19.2243 19.2019C19.1109 19.4229 18.9894 19.6458 18.8598 19.8586C18.7302 20.0713 18.5783 20.2718 18.4325 20.4743C18.2867 20.6768 18.0801 20.8302 17.9201 21.0184C17.7601 21.2066 17.6082 21.403 17.4341 21.5809C17.2599 21.7589 17.0938 21.943 16.9055 22.1067C16.7172 22.2703 16.5065 22.4012 16.3061 22.5465C16.1056 22.6917 15.9334 22.8819 15.7228 23.0108C15.5122 23.1397 15.3137 23.3033 15.093 23.4158C14.8722 23.5283 14.6171 23.5733 14.3882 23.6674C14.1594 23.7615 13.9406 23.8904 13.7057 23.9661C13.4708 24.0418 13.2258 24.097 12.9848 24.1563C12.7438 24.2157 12.5068 24.2975 12.2598 24.3363C12.0127 24.3752 11.7656 24.4018 11.5185 24.4223C11.2715 24.4427 11.0224 24.3118 10.7733 24.3118L10.7814 24.3159Z" fill="#D16A1B"/>
<path d="M11.6967 13.6563C11.8222 13.4599 11.9417 13.2594 12.0693 13.061C12.1969 12.8626 12.4298 12.7378 12.5554 12.5394C12.6809 12.341 12.7478 12.1078 12.8733 11.9094C12.9989 11.7109 13.0738 11.4818 13.1973 11.2834C13.3209 11.085 13.4444 10.8866 13.5659 10.6881C13.6874 10.4897 13.9568 10.3813 14.0783 10.1808C14.1998 9.98037 14.3193 9.77786 14.4388 9.57739C14.5583 9.37693 14.621 9.13964 14.7405 8.93713C14.86 8.73462 14.9208 8.49938 15.0382 8.29686C15.0544 8.26823 15.1172 8.36641 15.1496 8.36641C15.1881 8.36641 15.2205 8.25391 15.259 8.25391C15.5627 8.25391 15.8463 8.31118 16.1156 8.42573C16.3667 8.5321 16.6543 8.64257 16.8933 8.85735C16.8933 8.85735 16.8649 8.90235 16.867 8.9044C17.0269 9.07009 17.1444 9.2726 17.2882 9.44852C17.432 9.62444 17.513 9.84741 17.6446 10.0356C17.7763 10.2238 18.0193 10.3363 18.1347 10.5327C18.2502 10.7291 18.3413 10.9438 18.4425 11.1525C18.5438 11.3611 18.5377 11.6087 18.6208 11.8234C18.6248 11.8357 18.7119 11.8193 18.7119 11.8316C18.718 12.1548 18.5499 12.3103 18.3251 12.4453C18.3069 12.4555 18.3453 12.5558 18.3291 12.568C18.315 12.5803 18.2866 12.5598 18.2684 12.5639C18.0638 12.6089 17.8735 12.7276 17.6689 12.7705C17.4239 12.8237 17.1566 12.7664 16.9115 12.8196C16.6665 12.8728 16.4214 12.924 16.1764 12.9751C15.9313 13.0262 15.6903 13.0937 15.4453 13.1449C15.2245 13.1919 15.0078 13.2717 14.7851 13.3188C14.5623 13.3658 14.3355 13.3924 14.1127 13.4415C13.8899 13.4906 13.6814 13.597 13.4586 13.644C13.2358 13.691 12.9928 13.646 12.77 13.6951C12.5473 13.7442 12.3245 13.7872 12.1017 13.8363C12.0531 13.8465 11.9397 13.9549 11.806 13.9549C11.7919 13.9549 11.7777 14.0286 11.7655 14.0286C11.6906 14.0245 11.6197 13.8383 11.6602 13.7749C11.6602 13.7749 11.7271 13.7851 11.7271 13.7831C11.7068 13.7136 11.6663 13.7033 11.6987 13.6522L11.6967 13.6563Z" fill="#D16A1B"/>
<path d="M19.1564 16.6966C19.1038 16.9461 18.8891 17.1527 18.8142 17.3982C18.7393 17.6437 18.7474 17.9117 18.6522 18.1489C18.6522 18.153 18.5874 18.1244 18.5853 18.1264C18.4355 18.4128 18.2451 18.736 17.915 18.736C17.8624 18.736 17.8158 18.7319 17.7591 18.7156C17.751 18.7135 17.7469 18.7197 17.7388 18.7156C17.5667 18.6071 17.352 18.5949 17.2022 18.4987C17.0341 18.3903 16.9105 18.2349 16.7586 18.1346C16.5683 18.0078 16.3982 17.8421 16.2017 17.7132C16.0053 17.5844 15.8311 17.4371 15.6306 17.3123C15.4301 17.1875 15.2418 17.0668 15.0413 16.9441C14.8408 16.8214 14.6099 16.7682 14.4074 16.6454C14.2049 16.5227 14.0611 16.3263 13.8586 16.2056C13.6561 16.085 13.4394 16.0134 13.2348 15.8927C13.0303 15.772 12.8399 15.6574 12.6354 15.5367C12.4308 15.416 12.1858 15.3956 11.9813 15.279C11.9489 15.2606 11.9063 15.2544 11.8658 15.2319C11.722 15.1563 11.5539 14.9537 11.5762 14.8351C11.5904 14.7656 11.7382 14.5426 11.9286 14.518C11.9752 14.5119 12.0177 14.4955 12.0602 14.4894C12.0926 14.4853 12.1392 14.563 12.1676 14.5467C12.1979 14.5405 12.2202 14.4996 12.2506 14.4935C12.4875 14.4403 12.7306 14.4158 12.9695 14.3646C13.2085 14.3135 13.4313 14.1969 13.6702 14.1457C13.9092 14.0946 14.1522 14.068 14.3892 14.0189C14.6261 13.9698 14.8854 14.0128 15.1223 13.9616C15.3592 13.9105 15.5921 13.8225 15.8271 13.7714C16.0458 13.7244 16.2483 13.5914 16.467 13.5443C16.6857 13.4973 16.9045 13.4502 17.1252 13.4032C17.3459 13.3562 17.5586 13.2825 17.7773 13.2355C17.7955 13.2314 17.7935 13.2232 17.8138 13.2191C17.9839 13.1823 18.1601 13.1618 18.3322 13.125C18.3444 13.1291 18.3768 13.17 18.3909 13.172C18.6015 13.2007 18.7048 13.3827 18.8446 13.4973C18.8567 13.5075 18.9155 13.4502 18.9215 13.4646C19.0147 13.6753 19.0613 13.9453 19.1078 14.2521C19.1463 14.5017 19.1078 14.7737 19.1159 15.0622C19.122 15.326 19.2294 15.5981 19.2091 15.8783C19.1888 16.1586 19.203 16.4307 19.1564 16.7007V16.6966Z" fill="#D16A1B"/>
<path d="M3.1556 16.2421C2.99359 16.2421 2.83562 16.1296 2.73436 16.0171C2.58653 15.8555 2.49539 15.5753 2.45084 15.2827C2.41439 15.0352 2.35161 14.755 2.35566 14.4993C2.36173 14.1965 2.39413 13.9102 2.41034 13.7199C2.41641 13.6361 2.40831 13.6361 2.41439 13.5522C2.43059 13.3619 2.56425 13.1308 2.59665 12.869C2.62298 12.646 2.66146 12.4128 2.71006 12.1837C2.75867 11.9546 2.85992 11.7337 2.94296 11.5373C3.04624 11.2898 3.16167 11.1384 3.33584 11.0382C3.37837 11.0136 3.38444 11.0157 3.43912 11.0157C3.67404 11.0157 3.96162 11.1752 4.18844 11.3266C4.25324 11.3696 4.38893 11.2836 4.44159 11.3143C4.74941 11.5005 5.05116 11.7071 5.35696 11.883C5.54936 11.9935 5.67694 12.2246 5.87136 12.3392C6.06578 12.4537 6.27639 12.5355 6.46474 12.6521C6.69358 12.7953 6.68953 12.8035 6.91837 12.9467C7.11482 13.0694 7.34569 13.139 7.54415 13.2617C7.74262 13.3844 7.95931 13.4765 8.15778 13.6013C8.35625 13.7261 8.56079 13.8406 8.75521 13.9674C8.97798 14.1106 9.02658 14.2968 9.00835 14.3479C8.96785 14.4686 8.70458 14.5013 8.41093 14.5975C8.20841 14.6629 7.99982 14.7857 7.78312 14.8348C7.51783 14.8941 7.26063 14.8798 7.11482 14.9084C6.93863 14.9411 6.78876 14.9452 6.70168 14.9677C6.45461 15.0311 6.18121 15.117 5.88756 15.1968C5.62834 15.2684 5.36304 15.383 5.08559 15.4668C4.80814 15.5507 4.54689 15.6284 4.27755 15.7205C4.09731 15.7819 3.94744 15.9291 3.77328 15.9926C3.59506 16.058 3.3966 16.0846 3.21433 16.146C3.21028 16.146 3.21028 16.1071 3.2042 16.1071C3.20015 16.1071 3.19813 16.0805 3.1961 16.0805C3.18193 16.0805 3.16978 16.2401 3.15762 16.2401L3.1556 16.2421Z" fill="#D16A1B"/>
<path d="M6.96436 20.1296C6.87323 20.3117 6.80235 20.5183 6.69501 20.7024C6.58768 20.8865 6.44997 21.0603 6.31428 21.2015C6.15429 21.3672 5.98823 21.4511 5.78368 21.4654C5.76748 21.4654 5.75533 21.5636 5.74115 21.5636C5.53054 21.5636 5.30169 21.4347 5.10728 21.2895C4.93311 21.1585 4.7954 20.9581 4.64756 20.7862C4.48352 20.596 4.26075 20.461 4.15139 20.3117C4.04406 20.1623 4.09064 19.9005 3.98938 19.743C3.88812 19.5855 3.71193 19.4771 3.61472 19.3196C3.55802 19.2255 3.57017 19.0884 3.51346 18.9943C3.3231 18.6875 3.01729 18.4543 2.89983 18.1249C2.85326 17.994 2.86541 17.6074 2.99502 17.3783C3.02135 17.3333 3.04767 17.2985 3.08413 17.2515C3.1064 17.2228 2.99704 17.0981 3.01932 17.0653C3.03147 17.0469 3.14083 17.1717 3.16311 17.1656C3.40613 17.0919 3.65928 16.9712 3.98128 16.8526C4.19595 16.7728 4.40656 16.689 4.62326 16.6153C4.83995 16.5417 5.01007 16.3228 5.23081 16.2553C5.45155 16.1878 5.69053 16.196 5.91127 16.1326C6.13201 16.0691 6.33453 15.9403 6.55527 15.881C6.77602 15.8216 6.99676 15.7562 7.21953 15.6989C7.4423 15.6416 7.66912 15.6028 7.88986 15.5475C8.11061 15.4923 8.32933 15.4166 8.5521 15.3614C8.866 15.2836 9.19408 15.2755 9.50595 15.1977C9.51203 15.1977 9.52621 15.1875 9.53431 15.1875C9.56671 15.1875 9.57279 15.3164 9.61329 15.3327C9.62949 15.3389 9.67404 15.2755 9.68822 15.2816C9.76518 15.3082 9.77733 15.3368 9.78745 15.3696C9.83808 15.5393 9.72467 15.8625 9.53633 16.1653C9.36419 16.4394 9.12927 16.689 9.01586 16.8383C8.94498 16.9324 8.91055 17.0203 8.87612 17.0715C8.70803 17.3231 8.44274 17.5154 8.28275 17.7731C8.12276 18.0309 8.02758 18.3356 7.87366 18.5913C7.77443 18.757 7.61849 18.892 7.51521 19.0598C7.41192 19.2275 7.418 19.4628 7.31269 19.6264C7.21751 19.7757 7.06359 19.9291 6.96436 20.1276V20.1296Z" fill="#D16A1B"/>
<path d="M4.35077 10.2344C4.22319 10.0012 4.18876 9.71482 4.28799 9.44071C4.36292 9.23001 4.48038 8.97227 4.65657 8.76567C4.80846 8.5877 5.04743 8.45679 5.24388 8.29314C5.44032 8.12949 5.65701 8.01699 5.86155 7.87993C6.0742 7.73674 6.27874 7.58537 6.48126 7.47286C6.73035 7.33581 6.99768 7.31945 7.18399 7.24376C7.36221 7.17216 7.51005 6.98397 7.69839 6.92669C7.89888 6.86533 8.1095 6.86328 8.28771 6.86328C8.66845 6.86328 8.81831 7.06375 8.90944 7.49332C8.97425 7.79606 9.02893 8.10495 9.0593 8.41178C9.08361 8.66748 9.08968 8.9375 9.13424 9.19728C9.17676 9.44071 9.23144 9.68618 9.27397 9.9296C9.3165 10.173 9.50282 10.396 9.54737 10.6374C9.57572 10.7887 9.57775 10.7867 9.60408 10.9381C9.61623 11.0035 9.47446 11.1426 9.50484 11.2756C9.53927 11.4249 9.58382 11.654 9.63648 11.9179C9.67698 12.1225 9.80457 12.3291 9.839 12.55C9.87342 12.7709 9.8714 13.0061 9.8795 13.2087C9.89165 13.4991 9.8309 13.6894 9.74179 13.8019C9.71951 13.8305 9.75394 13.8285 9.71749 13.8285C9.67091 13.8285 9.6142 13.7937 9.42384 13.6648C9.30435 13.585 9.19297 13.5073 9.07753 13.405C8.98032 13.3191 8.88109 13.2168 8.77173 13.135C8.58541 12.998 8.38695 12.8732 8.19253 12.7484C7.99811 12.6236 7.80572 12.4907 7.60928 12.372C7.41284 12.2534 7.2164 12.1245 7.01793 12.01C6.77086 11.8647 6.44885 11.8238 6.20178 11.6724C6.09445 11.607 5.98711 11.5374 5.8737 11.472C5.69144 11.3656 5.48082 11.2797 5.29653 11.159C5.11224 11.0383 4.93807 10.8869 4.78214 10.7437C4.61607 10.5924 4.46013 10.4185 4.35685 10.2323L4.35077 10.2344Z" fill="#D16A1B"/>
<path d="M11.9941 22.8125C12.0265 22.9536 11.9273 23.0273 11.8564 23.1255C11.8463 23.1418 11.8868 23.1868 11.8686 23.193C11.6782 23.2666 11.4656 23.2277 11.2489 23.2625C11.0524 23.2932 10.86 23.3505 10.6353 23.3505C10.3922 23.3505 10.1411 23.3627 9.86366 23.3259C9.62672 23.2952 9.38572 23.2032 9.10827 23.1418C8.91588 23.1009 8.69514 23.1602 8.50477 23.1009C8.3144 23.0416 8.11594 23.0007 7.92962 22.9352C7.84254 22.9045 7.89519 22.7491 7.80608 22.7184C7.54079 22.6284 7.31397 22.5486 7.0993 22.4197C6.77527 22.2234 6.86843 22.0331 6.97171 21.6056C6.97576 21.5913 6.90083 21.5667 6.91096 21.5565C6.93121 21.532 6.99601 21.5381 7.01222 21.5135C7.03247 21.4829 6.93728 21.3949 6.94741 21.3622C6.94741 21.354 7.0831 21.4072 7.08715 21.399C7.22486 21.174 7.19651 20.8487 7.33219 20.6319C7.46788 20.4151 7.69672 20.2392 7.83241 20.0264C7.9519 19.8382 8.0005 19.605 8.11796 19.4148C8.23542 19.2245 8.40149 19.067 8.51895 18.8768C8.63641 18.6866 8.82475 18.5413 8.94018 18.3511C9.05562 18.1608 9.16498 17.9645 9.28041 17.7742C9.40192 17.5738 9.4404 17.3201 9.56394 17.1176C9.68747 16.9151 9.83328 16.7289 9.95884 16.5285C10.0844 16.328 10.2707 16.1705 10.3963 15.9721C10.4368 15.9434 10.4125 15.9005 10.4246 15.8984C10.4287 15.9025 10.3538 15.9434 10.3598 15.9619C10.374 15.9925 10.453 16.0028 10.4732 16.0273C10.4854 16.0416 10.6049 16.0191 10.6089 16.0355C10.6596 16.2728 10.5461 16.5448 10.5968 16.7821C10.6474 17.0194 10.694 17.2567 10.7466 17.494C10.7993 17.7313 10.8702 17.9624 10.9228 18.1997C10.9755 18.437 10.9876 18.6825 11.0403 18.9177C11.0929 19.153 11.261 19.3636 11.3157 19.6009C11.3704 19.8382 11.3866 20.0816 11.4392 20.3169C11.4919 20.5521 11.6256 20.771 11.6782 21.0062C11.7309 21.2415 11.8099 21.4726 11.8645 21.7079C11.9192 21.9431 11.9374 22.1886 11.9921 22.4238C11.9962 22.4381 11.8585 22.4463 11.8564 22.4606C11.8463 22.5097 11.9253 22.5854 11.9435 22.6386C11.9496 22.6611 11.9334 22.6754 11.9435 22.6938C11.9354 22.7348 11.9921 22.7757 12.0022 22.8186L11.9941 22.8125Z" fill="#D16A1B"/>
<path d="M9.624 7.59633C9.59363 7.26699 9.66248 6.74742 9.87715 6.49376C9.98448 6.36694 10.1971 6.44058 10.3612 6.43035C10.5475 6.41808 10.6953 6.41399 10.8371 6.41399C11.0821 6.41399 11.3231 6.38535 11.5661 6.4058C11.8092 6.42626 12.0623 6.38535 12.3013 6.43035C12.5403 6.47535 12.7448 6.66968 12.9797 6.73514C13.2146 6.8006 13.4941 6.72287 13.725 6.81083C13.729 6.81083 13.7047 6.88447 13.7108 6.88651C13.9619 7.01948 14.1827 7.13198 14.2799 7.3079C14.3852 7.50019 14.4419 7.77429 14.371 8.04227C14.3184 8.24273 14.1604 8.44115 14.047 8.65185C13.9437 8.84413 13.7614 9.00369 13.644 9.19393C13.6055 9.25734 13.6197 9.35348 13.5812 9.41485C13.4516 9.62759 13.2713 9.81169 13.1397 10.0244C13.0081 10.2372 12.8724 10.452 12.7428 10.6626C12.6152 10.8693 12.4613 11.0636 12.3317 11.2722C12.202 11.4809 12.1818 11.757 12.0542 11.9677C11.9266 12.1784 11.6917 12.3216 11.5661 12.5323C11.4446 12.7348 11.3555 12.9128 11.2563 13.0498C11.0882 13.283 10.9302 13.3833 10.8371 13.459C10.7824 13.504 10.7844 13.5408 10.7682 13.4712C10.7682 13.463 10.6467 13.4774 10.6467 13.4651C10.6001 13.2278 10.6042 12.9782 10.5576 12.7369C10.511 12.4955 10.5414 12.2439 10.4948 12.0045C10.4482 11.7652 10.4381 11.5197 10.3936 11.2804C10.349 11.0411 10.2457 10.812 10.2032 10.5726C10.1749 10.3906 10.2012 10.1942 10.1688 10.0101C10.1364 9.82601 10.1202 9.63577 10.0878 9.45371C10.0513 9.24711 9.89133 9.06096 9.85487 8.85027C9.81842 8.63957 9.76374 8.43502 9.73336 8.22432C9.70299 8.01363 9.64831 7.80293 9.62805 7.59428L9.624 7.59633Z" fill="#D16A1B"/>
<path d="M17.4888 19.9455C17.4949 19.9742 17.4807 19.9926 17.4605 20.013C17.4179 20.0601 17.4828 20.1194 17.4402 20.1664C17.26 20.3669 17.0676 20.553 16.8874 20.7433C16.7071 20.9335 16.5228 21.1381 16.3264 21.3161C16.1299 21.494 15.8707 21.5942 15.652 21.7477C15.4414 21.897 15.2247 22.0995 14.9796 22.257C14.9736 22.2611 14.9675 22.2795 14.9594 22.2816C14.931 22.2918 14.8419 22.1977 14.8176 22.2161C14.767 22.2529 14.7285 22.3225 14.6637 22.3634C14.3964 22.5188 14.206 22.7786 13.9731 22.8646C13.6795 22.9709 13.3777 23.018 13.1266 23.018C13.0922 23.018 13.0638 22.8318 13.0294 22.8298C13.0193 22.8298 13.0112 22.9034 13.001 22.8993C12.8816 22.8543 12.7499 22.8195 12.679 22.705C12.673 22.6948 12.7216 22.66 12.7175 22.6498C12.6608 22.4063 12.4927 22.1916 12.436 21.9522C12.3793 21.7129 12.4461 21.4388 12.3915 21.1995C12.3368 20.9601 12.2274 20.7269 12.1727 20.4876C12.1181 20.2483 12.0735 20.0007 12.0188 19.7614C11.9642 19.5221 12.0067 19.2541 11.954 19.0148C11.9014 18.7754 11.7333 18.5566 11.6806 18.3152C11.628 18.0738 11.6604 17.812 11.6077 17.5706C11.5551 17.3292 11.5227 17.0838 11.47 16.8424C11.4174 16.601 11.3586 16.3617 11.306 16.1182C11.306 16.1121 11.1602 16.1182 11.1602 16.1121C11.1602 16.0896 11.2047 16.0732 11.2007 16.0507C11.1926 16.0119 11.2331 15.9812 11.2391 15.9444C11.312 15.9075 11.3282 15.9157 11.4012 15.8789C11.4234 15.8932 11.3931 15.9444 11.4153 15.9566C11.7232 16.1366 12.029 16.3146 12.3368 16.4926C12.5393 16.6092 12.76 16.6992 12.9646 16.8158C13.1691 16.9324 13.4101 16.9835 13.6147 17.1022C13.8192 17.2208 14.0379 17.3129 14.2404 17.4356C14.443 17.5583 14.6435 17.6831 14.8439 17.8079C15.0444 17.9327 15.168 18.1781 15.3664 18.307C15.5649 18.4359 15.8464 18.4359 16.0408 18.5668C16.2211 18.6895 16.3487 18.9084 16.5552 19.0434C16.7355 19.16 16.9177 19.2991 17.1283 19.4321C17.1364 19.4443 17.1587 19.4259 17.1688 19.4382C17.3349 19.6039 17.4524 19.7553 17.4848 19.9414L17.4888 19.9455Z" fill="#D16A1B"/>
<path d="M11.7157 13.6708C11.8412 13.4744 12.0276 13.3169 12.1531 13.1185C12.2787 12.92 12.3253 12.6725 12.4508 12.4761C12.5764 12.2798 12.8113 12.1529 12.9369 11.9545C13.0624 11.7561 13.1475 11.5352 13.271 11.3368C13.3946 11.1383 13.4351 10.8867 13.5586 10.6883C13.6821 10.4899 13.8057 10.2915 13.9272 10.091C14.0487 9.89053 14.2431 9.73711 14.3626 9.5346C14.4821 9.33209 14.5124 9.07844 14.6319 8.87797C14.7514 8.6775 15.0329 8.57113 15.1484 8.36657C15.1646 8.33794 15.1099 8.28271 15.1423 8.28271C15.1808 8.28271 15.2172 8.16406 15.2557 8.16406C15.5595 8.16406 15.8329 8.34203 16.1002 8.45658C16.3513 8.56295 16.6429 8.655 16.8819 8.86979C16.8819 8.86979 16.886 8.88001 16.888 8.88206C17.048 9.04775 17.1735 9.24617 17.3173 9.42209C17.4611 9.59801 17.5867 9.79439 17.7183 9.98054C17.8499 10.1667 17.9471 10.3774 18.0626 10.5758C18.178 10.7742 18.3481 10.942 18.4474 11.1506C18.5466 11.3593 18.6701 11.5577 18.7552 11.7725C18.7592 11.7847 18.7775 11.8216 18.7775 11.8338C18.7835 12.157 18.6114 12.425 18.3866 12.56C18.3684 12.5702 18.2732 12.4823 18.257 12.4945C18.2428 12.5068 18.2712 12.513 18.2529 12.5171C18.0484 12.5621 17.8398 12.5886 17.6332 12.6336C17.3882 12.6868 17.1472 12.7523 16.9022 12.8055C16.6571 12.8587 16.4181 12.9425 16.1751 12.9937C15.9321 13.0448 15.7033 13.188 15.4602 13.2412C15.2395 13.2882 14.9863 13.19 14.7636 13.2391C14.5408 13.2882 14.3221 13.3516 14.0993 13.4007C13.8765 13.4498 13.672 13.5746 13.4492 13.6217C13.2265 13.6687 13.0219 13.8058 12.7992 13.8528C12.5764 13.8999 12.3212 13.7914 12.0984 13.8405C12.0498 13.8508 11.9364 13.8896 11.8028 13.8896C11.7886 13.8896 11.7744 14.0328 11.7623 14.0328C11.6873 14.0287 11.6245 13.8467 11.6651 13.7833C11.6651 13.7833 11.6873 13.7976 11.6894 13.7976C11.6833 13.7301 11.6833 13.7198 11.7157 13.6687V13.6708Z" fill="#D16A1B"/>
<path d="M19.0455 16.6753C18.9928 16.9248 18.9867 17.1826 18.9118 17.428C18.8369 17.6735 18.8085 17.9353 18.7133 18.1726C18.7133 18.1767 18.6404 18.1501 18.6384 18.1542C18.4886 18.4406 18.2496 18.8477 17.9175 18.8477C17.8648 18.8477 17.8324 18.6881 17.7757 18.6717C17.7676 18.6697 17.7797 18.6717 17.7716 18.6677C17.5995 18.5592 17.4395 18.4611 17.2896 18.3649C17.1216 18.2565 16.9697 18.1501 16.8178 18.0499C16.6274 17.9231 16.356 17.9169 16.1576 17.7881C15.9591 17.6592 15.8498 17.4117 15.6493 17.2869C15.4488 17.1621 15.1571 17.2092 14.9566 17.0864C14.7562 16.9637 14.661 16.6855 14.4605 16.5628C14.26 16.44 14.0311 16.3827 13.8286 16.2621C13.6261 16.1414 13.4114 16.0636 13.2069 15.945C13.0024 15.8264 12.8727 15.6034 12.6662 15.4847C12.4596 15.3661 12.1862 15.3968 11.9817 15.2802C11.9493 15.2618 11.929 15.2127 11.8885 15.1902C11.7447 15.1145 11.5402 14.9508 11.5645 14.8322C11.5787 14.7626 11.7528 14.6399 11.9432 14.6174C11.9898 14.6113 12.0363 14.599 12.0789 14.5908C12.1113 14.5867 12.1295 14.5254 12.1579 14.511C12.1882 14.5049 12.2368 14.5601 12.2672 14.554C12.5042 14.5008 12.7371 14.4292 12.976 14.376C13.215 14.3229 13.4378 14.2063 13.6767 14.1551C13.9157 14.104 14.183 14.1919 14.42 14.1408C14.6569 14.0897 14.8797 13.9608 15.1166 13.9096C15.3536 13.8585 15.5784 13.7358 15.8153 13.6867C16.034 13.6396 16.2568 13.6089 16.4755 13.5619C16.6942 13.5148 16.9271 13.5292 17.1459 13.4821C17.3646 13.4351 17.563 13.2878 17.7818 13.2407C17.8 13.2366 17.8121 13.296 17.8324 13.2919C18.0025 13.2551 18.1747 13.2203 18.3448 13.1835C18.3569 13.1876 18.3832 13.1426 18.3974 13.1446C18.608 13.1732 18.7984 13.2714 18.9361 13.386C18.9483 13.3962 18.9847 13.4208 18.9908 13.4351C19.084 13.6458 19.1467 13.9321 19.1933 14.239C19.2318 14.4885 19.2055 14.7708 19.2115 15.0593C19.2176 15.3231 19.1609 15.5932 19.1407 15.8714C19.1204 16.1496 19.0921 16.4073 19.0475 16.6773L19.0455 16.6753Z" fill="#D16A1B"/>
<path d="M9.79853 13.8546C9.77625 13.8832 9.7479 13.873 9.71144 13.873C9.66487 13.873 9.61019 13.7953 9.41982 13.6664C9.30033 13.5866 9.18895 13.5109 9.07149 13.4086C8.97428 13.3227 8.77986 13.3514 8.67051 13.2695C8.48419 13.1325 8.3728 12.8891 8.17839 12.7622C7.98397 12.6354 7.7288 12.6129 7.53236 12.4943C7.33592 12.3756 7.11315 12.2958 6.91468 12.1813C6.66761 12.0361 6.46509 11.7906 6.21599 11.6392C6.10866 11.5738 6.02158 11.4674 5.90817 11.4019C5.7259 11.2956 5.51326 11.2199 5.32897 11.0992C5.14468 10.9785 5.00899 10.8046 4.85103 10.6614C4.68496 10.5101 4.46624 10.4139 4.36296 10.2278C4.23537 9.99457 4.2131 9.7266 4.3103 9.45045C4.38524 9.23975 4.49054 8.98406 4.66673 8.77745C4.81862 8.59949 5.10215 8.52789 5.29859 8.3622C5.49503 8.19651 5.68337 8.05946 5.88589 7.9224C6.09853 7.77921 6.29498 7.6217 6.49749 7.5092C6.74659 7.37214 6.96126 7.231 7.14555 7.15736C7.32376 7.08576 7.48578 6.92007 7.67412 6.86484C7.87461 6.80347 8.10346 6.92621 8.28167 6.92621C8.6624 6.92621 8.92365 7.04076 9.01478 7.47033C9.07959 7.77308 9.13832 8.09423 9.1687 8.40311C9.193 8.65881 9.07554 8.9411 9.12009 9.20089C9.16262 9.44431 9.32261 9.66932 9.36717 9.91275C9.41172 10.1562 9.32261 10.4303 9.36717 10.6717C9.39552 10.823 9.5069 10.8005 9.53525 10.9519C9.54741 11.0174 9.47045 11.1442 9.50083 11.2771C9.53525 11.4265 9.62436 11.6454 9.67702 11.9113C9.71752 12.1158 9.81473 12.3286 9.84916 12.5515C9.88358 12.7745 9.87548 13.0098 9.88358 13.2102C9.89574 13.5007 9.88763 13.7421 9.79853 13.8546Z" fill="#D16A1B"/>
<path d="M9.06922 14.3694C9.02871 14.4901 8.73709 14.6087 8.44344 14.7049C8.24092 14.7703 8.01613 14.8685 7.79943 14.9176C7.53413 14.9769 7.27086 14.9463 7.12505 14.9728C6.94886 15.0056 6.8314 15.114 6.74229 15.1365C6.49522 15.1999 6.20765 15.2224 5.914 15.3042C5.65477 15.3758 5.3996 15.5108 5.12215 15.5947C4.8447 15.6786 4.5551 15.6561 4.28576 15.7481C4.10551 15.8095 3.93743 15.9077 3.76326 15.9711C3.58504 16.0365 3.40075 16.1061 3.21849 16.1695C3.21444 16.1695 3.20634 16.055 3.20026 16.055C3.19621 16.055 3.19419 16.0897 3.19216 16.0897C3.17798 16.0897 3.16583 16.1736 3.15368 16.1736C2.99167 16.1736 2.91269 16.055 2.8094 15.9445C2.66156 15.7829 2.56436 15.562 2.52183 15.2715C2.48537 15.024 2.40234 14.756 2.40639 14.5003C2.41247 14.1976 2.53803 13.9235 2.55221 13.7332C2.55828 13.6494 2.57651 13.6514 2.58461 13.5675C2.60081 13.3773 2.61094 13.138 2.64131 12.8761C2.66764 12.6532 2.536 12.3872 2.58461 12.1581C2.63321 11.929 2.83978 11.7286 2.92281 11.5301C3.0261 11.2826 3.0828 11.0044 3.25697 10.9042C3.29949 10.8796 3.3805 10.8633 3.43518 10.8633C3.6701 10.8633 3.94755 11.1906 4.17437 11.3419C4.23918 11.3849 4.29386 11.4381 4.34651 11.4688C4.65434 11.6549 4.99254 11.8042 5.30037 11.9802C5.49276 12.0906 5.68313 12.2072 5.87957 12.3218C6.07601 12.4363 6.2522 12.5734 6.44054 12.692C6.66939 12.8352 6.67344 12.8291 6.90431 12.9723C7.10075 13.095 7.30124 13.2116 7.49971 13.3364C7.69817 13.4612 7.91487 13.5512 8.11131 13.6759C8.30775 13.8007 8.49812 13.9378 8.69253 14.0626C8.9153 14.2058 9.08542 14.3162 9.06922 14.3694Z" fill="#D16A1B"/>
<path d="M9.09939 16.9056C9.02851 16.9997 8.85839 16.9874 8.82397 17.0386C8.65588 17.2902 8.48171 17.5418 8.32172 17.7995C8.16173 18.0572 8.01997 18.3314 7.86606 18.5891C7.76683 18.7548 7.68379 18.9348 7.58253 19.1046C7.48128 19.2744 7.39014 19.4482 7.28686 19.6119C7.19168 19.7612 7.05599 19.9269 6.95676 20.1253C6.86562 20.3074 6.83525 20.5385 6.72791 20.7226C6.62058 20.9067 6.47274 21.0847 6.33705 21.2258C6.17706 21.3915 5.99277 21.5429 5.79026 21.5572C5.77405 21.5572 5.75583 21.5061 5.74165 21.5061C5.53103 21.5061 5.36497 21.3506 5.17055 21.2033C4.99639 21.0724 4.75134 20.9967 4.6035 20.8249C4.43946 20.6347 4.28758 20.4424 4.17822 20.291C4.07088 20.1417 4.04455 19.931 3.9433 19.7735C3.84204 19.616 3.71445 19.4769 3.61724 19.3194C3.56054 19.2253 3.45928 19.1598 3.40055 19.0678C3.21018 18.7609 3.18588 18.3948 3.06842 18.0654C3.02184 17.9345 2.77477 17.5581 2.90438 17.329C2.93071 17.284 3.00362 17.2677 3.04007 17.2206C3.06235 17.192 3.03804 17.1286 3.05829 17.0979C3.07045 17.0795 3.11702 17.102 3.1393 17.0958C3.38232 17.0222 3.63142 16.9015 3.95342 16.7829C4.16809 16.7031 4.37668 16.6028 4.59338 16.5312C4.81007 16.4597 5.06119 16.4965 5.27991 16.429C5.49863 16.3615 5.67887 16.1671 5.89961 16.1037C6.12036 16.0403 6.3411 15.981 6.56185 15.9217C6.78259 15.8623 7.00333 15.801 7.2261 15.7437C7.44887 15.6864 7.69797 15.7417 7.91871 15.6844C8.13946 15.6271 8.3602 15.5576 8.58095 15.5023C8.89485 15.4246 9.19457 15.2978 9.50443 15.22C9.5105 15.22 9.52063 15.1484 9.52873 15.1484C9.56113 15.1484 9.61176 15.2119 9.65226 15.2262C9.66846 15.2323 9.70087 15.1914 9.71504 15.1955C9.792 15.2221 9.86693 15.3141 9.87706 15.3448C9.92769 15.5146 9.70694 15.8583 9.5186 16.161C9.34646 16.4351 9.20875 16.7583 9.09534 16.9076L9.09939 16.9056Z" fill="#D16A1B"/>
<path d="M11.9275 23.1755C11.9174 23.1918 11.8607 23.11 11.8425 23.1161C11.6521 23.1898 11.4759 23.288 11.2592 23.3207C11.0628 23.3514 10.8602 23.3146 10.6375 23.3146C10.3945 23.3146 10.1373 23.4086 9.85981 23.3698C9.62286 23.3391 9.35757 23.3452 9.08012 23.2839C8.88772 23.243 8.70343 23.1386 8.51307 23.0793C8.3227 23.02 8.13233 22.9566 7.94602 22.8932C7.85894 22.8625 7.85894 22.8604 7.77185 22.8298C7.50656 22.7397 7.25746 22.6497 7.04279 22.5209C6.71876 22.3245 6.84635 22.0279 6.95166 21.6004C6.95571 21.586 6.95166 21.6044 6.95976 21.5942C6.98001 21.5697 6.94558 21.5022 6.96381 21.4776C6.98406 21.4469 7.05292 21.4265 7.06304 21.3938C7.06304 21.3856 6.96381 21.3344 6.96988 21.3242C7.1076 21.0992 7.21493 20.8599 7.35264 20.641C7.49035 20.4221 7.68882 20.2298 7.82248 20.0171C7.94197 19.8289 8.03918 19.6264 8.15664 19.4361C8.2741 19.2459 8.49687 19.1211 8.6123 18.9309C8.72774 18.7406 8.69938 18.4604 8.81482 18.2702C8.93025 18.0799 9.12062 17.9326 9.23605 17.7444C9.35757 17.544 9.4892 17.3476 9.61274 17.1451C9.73627 16.9426 9.89424 16.7646 10.0178 16.5621C10.1413 16.3596 10.1474 16.0773 10.2729 15.8768C10.3134 15.8482 10.4107 15.9362 10.4228 15.9341C10.4269 15.9382 10.522 15.8687 10.5301 15.8871C10.5443 15.9177 10.4694 15.9893 10.4896 16.0139C10.5018 16.0282 10.5585 16.0262 10.5625 16.0446C10.6132 16.2819 10.6699 16.5171 10.7205 16.7523C10.7711 16.9876 10.759 17.2392 10.8096 17.4765C10.8602 17.7138 10.8461 17.9654 10.8987 18.2006C10.9514 18.4358 11.0304 18.669 11.083 18.9043C11.1357 19.1395 11.2268 19.3686 11.2795 19.6039C11.3321 19.8391 11.3807 20.0784 11.4334 20.3137C11.486 20.5489 11.4718 20.8026 11.5245 21.0378C11.5772 21.2731 11.806 21.4694 11.8587 21.7047C11.9113 21.9399 11.9012 22.1936 11.9559 22.4268C11.9599 22.4411 11.8789 22.4452 11.8749 22.4595C11.8647 22.5086 11.8668 22.5986 11.883 22.6518C11.889 22.6743 11.9842 22.6702 11.9923 22.6886C11.9842 22.7295 11.9923 22.7684 12.0024 22.8113C12.0348 22.9525 12.0024 23.0773 11.9316 23.1734L11.9275 23.1755Z" fill="#D16A1B"/>
<path d="M18.7226 11.8355C18.7287 12.1587 18.6113 12.4205 18.3865 12.5556C18.3682 12.5658 18.2852 12.4942 18.269 12.5065C18.2548 12.5187 18.3075 12.666 18.2872 12.6701C18.0827 12.7151 17.8417 12.5965 17.6371 12.6415C17.3921 12.6947 17.1673 12.8399 16.9223 12.891C16.6772 12.9422 16.4342 13.0056 16.1891 13.0588C15.9441 13.112 15.7011 13.1733 15.456 13.2265C15.2353 13.2736 15.0145 13.3349 14.7918 13.382C14.569 13.429 14.3381 13.4331 14.1154 13.4822C13.8926 13.5313 13.6556 13.5088 13.4349 13.5579C13.2142 13.607 12.9934 13.6786 12.7727 13.7277C12.5519 13.7768 12.315 13.7686 12.0942 13.8177C12.0456 13.8279 11.9363 13.8668 11.8046 13.8668C11.7905 13.8668 11.7763 14.0079 11.7662 14.0059C11.6912 14.0018 11.6467 13.8606 11.6872 13.7972L11.7722 13.8504C11.8046 13.7993 11.7641 13.7727 11.7965 13.7215C11.9221 13.5252 11.9565 13.2695 12.0841 13.071C12.2117 12.8726 12.3292 12.6722 12.4547 12.4758C12.5803 12.2794 12.7706 12.1239 12.8962 11.9255C13.0218 11.7271 13.2 11.5655 13.3235 11.3671C13.4471 11.1687 13.4936 10.9211 13.6172 10.7227C13.7407 10.5243 13.8561 10.3218 13.9777 10.1213C14.0992 9.92085 14.245 9.73675 14.3665 9.53629C14.488 9.33582 14.6176 9.13944 14.7351 8.93898C14.8525 8.73851 15.0166 8.56055 15.132 8.35803C15.1482 8.3294 15.1178 8.34167 15.1502 8.33962C15.1887 8.33962 15.2231 8.21484 15.2616 8.21484C15.5654 8.21484 15.8712 8.26598 16.1405 8.38054C16.3917 8.48691 16.6043 8.71192 16.8433 8.9267C16.8433 8.9267 16.898 8.8817 16.9 8.88375C17.06 9.04944 17.1329 9.29286 17.2787 9.46878C17.4245 9.6447 17.6736 9.74494 17.8052 9.93108C17.9369 10.1172 17.9551 10.3832 18.0705 10.5816C18.186 10.78 18.3703 10.9416 18.4715 11.1482C18.5728 11.3548 18.6659 11.5675 18.749 11.7823C18.753 11.7946 18.7267 11.8273 18.7267 11.8396L18.7226 11.8355Z" fill="#D16A1B"/>
<path d="M14.1835 7.9884C14.1308 8.18886 14.1126 8.41388 13.9992 8.62253C13.8959 8.81481 13.8189 9.03573 13.6995 9.22802C13.661 9.29143 13.5192 9.28938 13.4828 9.35075C13.3531 9.56349 13.3552 9.8601 13.2235 10.0728C13.0919 10.2856 12.9684 10.5065 12.8367 10.7172C12.7091 10.9238 12.4985 11.0813 12.3689 11.292C12.2393 11.5027 12.0591 11.6766 11.9295 11.8873C11.7998 12.098 11.7411 12.3475 11.6155 12.5582C11.494 12.7607 11.4495 12.9776 11.3503 13.1167C11.1822 13.3499 10.9918 13.4603 10.8966 13.536C10.8419 13.581 10.7852 13.536 10.769 13.4644C10.769 13.4562 10.7528 13.448 10.7508 13.4378C10.7042 13.2005 10.6252 12.9673 10.5787 12.728C10.5321 12.4887 10.4328 12.2616 10.3863 12.0223C10.3397 11.7829 10.4409 11.517 10.3944 11.2756C10.3478 11.0343 10.1837 10.8195 10.1392 10.5801C10.1108 10.3981 10.0278 10.2222 9.99541 10.036C9.96301 9.84987 10.1027 9.63509 10.0683 9.45303C10.0319 9.24643 9.85567 9.06233 9.81922 8.85368C9.78277 8.64503 9.85972 8.41797 9.83137 8.20932C9.80302 8.00067 9.6572 7.80225 9.63695 7.5936C9.60658 7.26426 9.74631 6.81628 9.95896 6.56468C10.0663 6.43785 10.1858 6.28443 10.3498 6.2742C10.5361 6.26193 10.6941 6.40103 10.8359 6.40103C11.0809 6.40103 11.3178 6.43376 11.5609 6.45422C11.8039 6.47467 12.055 6.42353 12.294 6.46853C12.533 6.51354 12.782 6.53399 13.017 6.59945C13.2519 6.66491 13.4645 6.80401 13.6934 6.89197C13.6974 6.89197 13.7541 6.78969 13.7582 6.79174C14.0093 6.9247 14.2017 7.12312 14.2969 7.29904C14.4022 7.49132 14.2544 7.72656 14.1835 7.99453V7.9884Z" fill="#D16A1B"/>
<path d="M19.1177 16.6912C19.0651 16.9408 18.9497 17.174 18.8747 17.4194C18.7998 17.6649 18.7694 17.9226 18.6742 18.1599C18.6742 18.164 18.5608 18.1108 18.5588 18.1149C18.4089 18.4013 18.2469 18.8125 17.9168 18.8125C17.8642 18.8125 17.8156 18.7491 17.7568 18.7327C17.7487 18.7306 17.7811 18.6693 17.773 18.6652C17.6009 18.5568 17.368 18.5731 17.2181 18.477C17.05 18.3686 16.8961 18.2602 16.7442 18.1599C16.5539 18.0331 16.325 17.9595 16.1286 17.8326C15.9321 17.7058 15.76 17.5565 15.5595 17.4297C15.359 17.3028 15.1666 17.1924 14.9661 17.0696C14.7656 16.9469 14.6522 16.6994 14.4497 16.5767C14.2472 16.4539 14.0548 16.3394 13.8523 16.2187C13.6498 16.098 13.3703 16.1328 13.1658 16.0121C12.9612 15.8914 12.8478 15.6398 12.6433 15.5211C12.4387 15.4025 12.1977 15.3739 11.9912 15.2573C11.9588 15.2388 11.9304 15.2041 11.8879 15.1816C11.7441 15.1059 11.493 14.9443 11.5173 14.8256C11.5314 14.7561 11.7319 14.529 11.9223 14.5065C11.9689 14.5004 12.0134 14.5045 12.056 14.4963C12.0884 14.4922 12.1167 14.5147 12.1451 14.5004C12.1754 14.4943 12.2362 14.6027 12.2666 14.5965C12.5035 14.5433 12.7364 14.4718 12.9754 14.4186C13.2144 14.3654 13.4473 14.2999 13.6862 14.2488C13.9252 14.1976 14.148 14.0749 14.3849 14.0238C14.6219 13.9726 14.8467 13.8499 15.0836 13.8008C15.3205 13.7517 15.5656 13.721 15.8025 13.6719C16.0213 13.6249 16.2562 13.6515 16.4749 13.6044C16.6936 13.5574 16.9326 13.5983 17.1513 13.5512C17.37 13.5042 17.5624 13.3262 17.7811 13.2792C17.7994 13.2751 17.7953 13.2546 17.8135 13.2505C17.9837 13.2137 18.1659 13.2342 18.3381 13.1953C18.3502 13.1994 18.3543 13.2996 18.3684 13.3017C18.5791 13.3303 18.8099 13.2485 18.9476 13.361C18.9598 13.3712 18.8889 13.4592 18.895 13.4756C18.9881 13.6863 19.0955 13.9399 19.1441 14.2467C19.1826 14.4963 19.2251 14.7704 19.2312 15.0588C19.2372 15.3227 19.2393 15.5989 19.219 15.8791C19.1988 16.1594 19.1583 16.4232 19.1117 16.6912H19.1177Z" fill="#D16A1B"/>
<path d="M17.4139 19.9695C17.3714 20.0165 17.4584 20.0983 17.4159 20.1454C17.2357 20.3459 17.0777 20.5627 16.8975 20.7529C16.7172 20.9432 16.5066 21.1191 16.3102 21.2971C16.1137 21.475 15.8687 21.5916 15.65 21.7471C15.4394 21.8964 15.253 22.146 15.008 22.3035C15.0019 22.3076 14.9756 22.3096 14.9695 22.3117C14.9412 22.3219 14.9472 22.3505 14.9229 22.3689C14.8723 22.4058 14.7407 22.3444 14.6759 22.3853C14.4085 22.5408 14.1878 22.7249 13.9529 22.8108C13.6592 22.9171 13.3757 22.9008 13.1246 22.9008C13.0901 22.9008 13.0517 22.999 13.0172 22.9969C13.0071 22.9969 13.0213 22.8701 13.0112 22.866C12.8917 22.821 12.7438 22.821 12.675 22.7065C12.6689 22.6962 12.6001 22.688 12.598 22.6778C12.5413 22.4344 12.4866 22.193 12.432 21.9537C12.3773 21.7143 12.4401 21.4423 12.3854 21.203C12.3307 20.9636 12.2193 20.7304 12.1646 20.4911C12.11 20.2518 12.0553 20.0063 12.0006 19.767C11.9459 19.5276 11.9844 19.2617 11.9317 19.0203C11.8791 18.7789 11.8548 18.5294 11.8021 18.2901C11.7495 18.0507 11.5551 17.838 11.5024 17.5966C11.4498 17.3552 11.3748 17.1179 11.3222 16.8766C11.2695 16.6352 11.2108 16.3938 11.1602 16.1524C11.1602 16.1463 11.3161 16.1238 11.3161 16.1177C11.3161 16.0951 11.2796 16.0624 11.2756 16.0399C11.2675 16.0011 11.1905 15.9376 11.1966 15.8988C11.2695 15.862 11.3019 15.7985 11.3748 15.7617C11.3971 15.776 11.472 15.8149 11.4923 15.8292C11.8001 16.0092 12.0269 16.3263 12.3348 16.5022C12.5373 16.6188 12.7843 16.6597 12.9889 16.7784C13.1934 16.897 13.4223 16.9686 13.6268 17.0893C13.8314 17.21 13.9792 17.4227 14.1817 17.5434C14.3842 17.6641 14.5928 17.7725 14.7953 17.8973C14.9979 18.0221 15.1882 18.1591 15.3867 18.286C15.5852 18.4128 15.7593 18.5764 15.9537 18.7094C16.134 18.8321 16.3304 18.9487 16.537 19.0837C16.7172 19.2003 16.9238 19.3006 17.1364 19.4335C17.1445 19.4458 17.1304 19.4663 17.1425 19.4765C17.3086 19.6422 17.5172 19.7506 17.5476 19.9367C17.5536 19.9654 17.4321 19.9511 17.4119 19.9715L17.4139 19.9695Z" fill="#D16A1B"/>
</g>
<defs>
<clipPath id="clip0_533_1325">
<rect width="65" height="57" fill="white" transform="translate(0.5 0.832031)"/>
</clipPath>
</defs>
</svg>
