<?xml version="1.0" encoding="UTF-8"?><svg id="Capa_2" xmlns="http://www.w3.org/2000/svg" viewBox="0 0 34.44 48.4"><defs><style>.cls-1{fill:#d16a1a;}</style></defs><g id="Arte"><path class="cls-1" d="M20.91,.49c.19-.23,.02-.57-.26-.48-.48,.15-1,.49-1.64,.75-.52,.2-1.03,.51-1.61,.79-.52,.25-1.18,.28-1.72,.59s-1.02,.64-1.51,.99-.88,.82-1.32,1.23-.93,.78-1.3,1.25-.69,.99-.96,1.53-.61,1.06-.75,1.66-.24,1.19-.24,1.82c0,.55,.21,1.06,.29,1.53,.09,.53,.23,1.02,.4,1.48,.19,.5,.45,.93,.69,1.36,.31,.55,.52,1.14,.85,1.63,.35,.52,.88,.91,1.16,1.42s.5,1.12,.61,1.74c.03,.09,.17,.19,.17,.28,.03,.18-.2,.39-.2,.59,0,.7-.02,1.41-.32,1.99s-.86,1.07-1.42,1.45-1.17,.69-1.85,.78c-.63,.08-1.28-.14-1.96-.37-.63-.21-1.14-.57-1.6-1.05s-.98-.96-1.16-1.6c-.24-.9-.24-1.83,.02-2.6,.1-.3,0-.35-.22-.12-.39,.4-.86,.73-1.21,1.17s-.71,.88-1.02,1.35-.69,.91-.95,1.41-.61,.98-.82,1.5-.05,1.18-.2,1.72-.61,1.01-.72,1.57-.07,1.14-.12,1.71,.21,1.12,.22,1.7-.26,1.18-.2,1.76,.27,1.14,.4,1.71,.12,1.19,.31,1.74,.48,1.08,.72,1.61,.45,1.09,.75,1.6,.78,.89,1.12,1.37,.68,.95,1.06,1.39,.68,.98,1.1,1.38,.98,.66,1.44,1.01,1.03,.55,1.53,.86,.98,.62,1.5,.87,1.03,.54,1.58,.74,1.09,.42,1.66,.56,1.17,.03,1.75,.11,1.13,.21,1.72,.23c.62,.02,1.24,.25,1.85,.21s1.21-.32,1.81-.43,1.22-.21,1.8-.38,1.23-.24,1.79-.48,1.11-.55,1.65-.85,1.05-.65,1.55-1.01,1.04-.68,1.5-1.09,.76-.99,1.17-1.44,.9-.85,1.27-1.34,.63-1.05,.94-1.58,.58-1.07,.84-1.63,.51-1.11,.7-1.7,.43-1.15,.56-1.76,.21-1.21,.28-1.82,0-1.22,0-1.84c0-.42-.04-.81-.07-1.2-.03-.4,.15-.81,.1-1.19-.08-.58-.18-1.16-.32-1.71s-.44-1.09-.63-1.62-.31-1.13-.55-1.65-.64-.97-.93-1.47-.67-.94-1-1.41c0-.01,0-.05,0-.06-.34-.49-.7-.96-1.06-1.43s-.73-.95-1.11-1.39-.74-.94-1.14-1.38-.83-.86-1.24-1.29-.97-.73-1.38-1.15-.7-1-1.1-1.42c-.42-.44-.92-.8-1.3-1.23-.41-.46-.86-.87-1.21-1.33-.37-.5-.43-1.17-.71-1.67-.3-.54-.68-1.01-.85-1.55s-.24-1.16-.24-1.75-.16-1.17-.09-1.65c.1-.61,.51-1.07,.69-1.51,.24-.61,.37-1.15,.65-1.49Z"/></g></svg>