<svg width="154" height="219" viewBox="0 0 154 219" fill="none" xmlns="http://www.w3.org/2000/svg">
<g clip-path="url(#clip0_533_1381)">
<g style="mix-blend-mode:multiply">
<path d="M38.1572 163.103C38.3746 162.191 38.4608 161.355 38.8055 160.588C38.9674 160.244 39.6469 159.83 40.0719 159.847C41.536 159.867 43.0284 159.935 44.4289 160.242C45.0951 160.394 45.592 161.123 46.1221 161.626C46.6936 162.182 47.1994 162.775 47.738 163.35C47.9419 163.571 48.2373 163.761 48.3497 164.013C49.289 165.984 50.786 167.634 52.3322 169.256C54.2803 171.29 56.0021 173.444 57.1698 175.906C57.7768 177.206 58.3356 178.479 56.602 179.566C56.3854 179.701 56.3785 180.088 56.2797 180.352C55.6738 181.936 54.4634 182.262 53.0472 181.188C52.7493 180.956 52.5076 180.669 52.2788 180.385C50.5157 178.179 48.7888 175.941 47.0057 173.756C45.9503 172.475 44.8293 171.231 43.7049 170C42.1631 168.31 40.5488 166.684 39.0692 164.97C38.6012 164.442 38.4518 163.709 38.1702 163.106L38.1572 163.103Z" fill="#D16A1B"/>
<path d="M95.3274 211.793C94.8117 212.68 94.5522 213.954 93.7097 214.407C92.1396 215.246 90.2343 215.58 88.6211 214.259C87.5425 213.373 86.4673 212.474 85.349 211.633C83.0063 209.88 80.522 208.242 78.2952 206.369C76.8714 205.168 75.801 203.633 74.595 202.241C74.49 202.116 74.4775 201.905 74.4675 201.736C74.4938 200.246 77.18 198.348 78.8287 198.764C80.6031 199.227 82.4719 199.494 83.9041 200.766C85.1608 201.866 86.8821 202.578 88.1224 203.688C89.7396 205.148 91.0735 206.837 92.5327 208.422C93.1986 209.141 93.9173 209.82 94.5668 210.549C94.8309 210.855 94.9931 211.232 95.3179 211.776L95.3274 211.793Z" fill="#D16A1B"/>
<path d="M111.24 168.696C111.938 169.299 112.672 169.663 112.89 170.193C113.826 172.537 114.217 174.999 113.46 177.456C113.143 178.48 112.681 179.631 111.187 180.033C110.811 180.14 110.544 180.568 110.243 180.861C109.754 181.339 109.364 181.914 108.802 182.303C107.478 183.208 106.7 183.11 105.826 181.877C105.373 181.243 105.015 180.509 104.827 179.765C104.199 177.254 103.685 174.732 103.731 172.138C103.753 170.509 103.847 168.871 103.73 167.245C103.629 165.763 104.414 164.546 105.252 163.441C106.076 162.332 107.67 162.386 109.019 162.471C111.218 162.591 112.265 163.801 111.965 165.744C111.876 166.33 111.749 166.906 111.593 167.488C111.454 168.005 111.276 168.511 111.224 168.705L111.24 168.696Z" fill="#D16A1B"/>
<path d="M69.2793 109.052C70.8164 110.089 71.2489 111.522 71.6685 112.952C72.5601 115.977 73.4352 119.013 74.3103 122.048C74.5861 122.981 74.7783 123.865 74.0737 124.784C73.8412 125.082 74.0557 125.625 74.022 126.059C73.9884 126.494 74.0433 127.063 73.7625 127.334C73.277 127.799 72.6127 127.538 72.1055 127.207C71.7878 126.997 71.3821 126.805 71.199 126.506C70.234 124.888 68.3355 123.907 67.539 122.126C67.0489 121.01 65.9936 120.089 65.1799 119.094C63.4322 116.933 62.3714 114.486 61.1897 112.075C61.0927 111.869 61.0648 111.612 61.098 111.385C61.3108 110.181 64.1662 108.634 65.528 108.931C66.1166 109.061 66.7251 109.17 67.3321 109.18C67.9357 109.204 68.561 109.095 69.2828 109.039L69.2793 109.052Z" fill="#D16A1B"/>
<path d="M39.375 125.258C40.2739 125.472 41.2662 125.544 42.0776 125.929C44.1838 126.911 46.4436 127.837 47.9312 129.471C49.744 131.441 52.0189 132.981 53.8421 134.913C54.059 135.138 54.3051 135.356 54.44 135.628C54.7629 136.283 55.636 136.851 54.7316 137.689C53.8599 138.508 53.2707 139.514 51.553 139.149C49.4957 138.707 47.676 138.051 46.3208 136.647C44.2832 134.533 41.5594 133.219 38.8486 131.908C37.4032 131.201 36.5686 130.283 36.2609 128.953C35.8695 127.212 37.317 125.592 39.3844 125.274L39.375 125.258Z" fill="#D16A1B"/>
<path d="M77.1409 19.9906C76.8814 22.5544 76.6606 25.1286 76.346 27.6914C76.2776 28.2552 76.0228 28.8936 75.6382 29.3446C74.8034 30.2845 73.7089 30.8497 72.2418 30.6355C70.7747 30.4213 70.1688 29.4268 69.9691 28.4167C69.451 25.7548 69.0796 23.0629 68.8738 20.3741C68.7889 19.2978 69.1533 18.1483 69.5004 17.0634C69.8753 15.8752 72.5174 14.4509 73.725 14.6507C75.0654 14.8724 76.6141 16.5362 76.7011 17.8625C76.7471 18.5679 76.806 19.2768 76.865 19.9857C76.9589 19.9971 77.0434 19.9921 77.1374 20.0035L77.1409 19.9906Z" fill="#D16A1B"/>
<path d="M119.902 67.5236C119.969 70.1614 119.722 72.7838 118.704 75.2271C117.863 77.2741 116.311 79.13 114.046 80.3369C113.253 80.7612 112.533 80.7063 111.792 80.1608C110.67 79.3325 110.094 78.332 110.201 77.0578C110.505 73.2447 112.015 69.7419 114.058 66.3686C114.239 66.0568 114.549 65.7798 114.881 65.5778C115.915 64.9272 117.101 64.3311 118.319 64.8527C119.502 65.3508 119.598 66.5409 119.902 67.5236Z" fill="#D16A1B"/>
<path d="M100.191 47.8367C99.8523 48.8405 99.5729 50.1377 98.9644 51.3186C98.5774 52.0878 97.5857 52.1677 96.6222 51.9364C94.3814 51.4034 92.8681 50.1233 91.8101 48.439C90.8501 46.9057 89.8607 45.3784 89.8222 43.5107C89.8005 42.7148 89.3796 41.9086 89 41.1551C88.501 40.1755 88.707 39.3576 89.4718 38.5237C90.2365 37.6897 91.1171 38.0234 92.0586 38.027C94.3082 38.0634 95.4953 39.4221 96.4558 40.7476C97.8281 42.6551 98.8197 44.7928 99.946 46.8421C100.056 47.0518 100.058 47.3019 100.182 47.8203L100.191 47.8367Z" fill="#D16A1B"/>
<path d="M45.5482 92.958C44.7786 92.7789 43.8932 92.721 43.2533 92.3688C41.951 91.6445 40.7024 90.8237 39.5626 89.9075C38.0837 88.706 36.7792 87.3712 35.3401 86.1249C34.8796 85.7239 34.2809 85.4244 33.6882 85.1542C32.3418 84.5428 31.1767 83.7722 30.4211 82.6126C30.0068 81.9884 29.7063 81.3532 30.1191 80.5909C30.6695 79.5746 31.0935 79.2866 32.3562 79.4875C36.7213 80.1619 40.5259 81.6836 42.9964 85.0229C44.0111 86.4045 44.9308 87.8299 45.9092 89.2433C46.1912 89.638 46.5389 89.9948 46.8045 90.3988C47.0925 90.8228 47.645 91.3455 47.5219 91.7005C47.2756 92.4105 46.4962 92.7832 45.5224 92.9511L45.5482 92.958Z" fill="#D16A1B"/>
<path d="M76.7597 152.688C77.9152 153.082 79.5534 153.536 81.0843 154.184C82.0062 154.57 82.0189 155.502 81.6424 156.233C80.2584 158.854 80.6964 161.453 81.4396 164.051C81.7607 165.177 81.3926 165.979 80.3151 166.687C78.9156 167.614 77.893 167.602 76.7899 166.446C76.3691 166.001 75.9986 165.471 75.797 164.932C74.7172 162.091 73.4907 159.281 72.7205 156.371C72.0683 153.95 73.3407 153.239 76.7597 152.688Z" fill="#D16A1B"/>
<path d="M102.94 113.916C102.665 115.505 102.551 117.166 102.046 118.735C101.796 119.513 100.859 120.162 100.194 120.829C100.022 121.004 99.7108 121.184 99.4935 121.167C98.6986 121.134 97.4016 121.215 97.229 120.877C96.6484 119.737 94.1648 119.901 94.7617 118.093C95.2969 116.463 94.6128 114.934 94.4979 113.351C94.4214 112.347 94.1009 111.373 94.021 110.382C93.979 109.816 94.1294 109.205 94.3211 108.646C95.2238 106.062 96.6655 106.061 98.5498 107.662C99.9417 108.827 101.036 110.271 102.116 111.67C102.576 112.279 102.659 113.105 102.943 113.903L102.94 113.916Z" fill="#D16A1B"/>
<path d="M48.9519 43.9056C49.1011 43.918 49.5917 43.8974 50.0278 44.0285C52.3501 44.7221 54.4807 45.6136 56.1691 47.2734C57.3626 48.4536 58.7107 49.5229 59.5788 50.9344C60.1185 51.8141 60.7238 52.656 61.1428 53.5726C61.5204 54.4364 61.4934 55.4133 60.5765 56.04C59.6232 56.6986 58.4208 56.9437 57.307 56.3948C56.5602 56.0277 55.8715 55.496 55.3199 54.9181C52.8532 52.2867 50.4356 49.627 48.0344 46.9579C47.6714 46.5553 47.362 46.0563 47.2017 45.5697C46.8752 44.5671 47.398 44.0146 48.9554 43.8927L48.9519 43.9056Z" fill="#D16A1B"/>
<path d="M117.562 119.801C119.044 119.548 120 120.013 120.631 121.223C121.244 122.399 122.242 123.43 122.724 124.627C123.549 126.664 124.216 128.77 124.727 130.89C124.991 131.972 123.83 133.143 122.491 133.587C121.489 133.914 120.195 133.469 119.549 132.311C118.281 130.016 117.157 127.649 115.938 125.325C115.366 124.257 114.859 123.205 115.014 121.958C115.212 120.293 115.573 119.932 117.549 119.798L117.562 119.801Z" fill="#D16A1B"/>
<path d="M87.2835 79.2982C86.9025 80.0967 86.5614 81.2109 85.8792 82.1502C84.9878 83.3521 83.8423 84.4164 82.7839 85.518C82.033 86.3003 81.0876 86.5174 80.2626 85.9768C79.8389 85.6966 79.353 85.0808 79.4503 84.7189C80.2933 81.8407 79.4128 78.9289 80.0023 76.0657C80.1789 75.2538 80.3168 74.4315 80.5487 73.6206C80.8232 72.5994 81.685 71.9717 82.8029 71.7316C83.6897 71.5265 84.7479 72.2822 85.1545 73.3479C85.8681 75.2307 86.5066 77.135 87.2765 79.324L87.2835 79.2982Z" fill="#D16A1B"/>
<path d="M105.077 30.438C104.845 30.1125 104.614 29.9396 104.659 29.8267C105.177 28.4137 104.464 27.0439 104.599 25.6663C104.698 24.6257 104.948 23.5424 105.478 22.6036C106.547 20.6873 107.672 18.7719 109.388 17.1819C110.197 16.4429 111.407 16.1168 112.129 16.4218C113.099 16.835 113.662 17.7346 113.553 18.7587C113.518 19.0406 113.4 19.3275 113.32 19.6248C112.973 21.0701 112.678 22.5293 112.275 23.9736C111.732 25.8927 110.888 27.6896 108.775 28.7986C108.129 29.1378 107.549 29.5919 106.872 29.895C106.302 30.1577 105.648 30.2728 105.077 30.438Z" fill="#D16A1B"/>
</g>
</g>
<defs>
<clipPath id="clip0_533_1381">
<rect width="105.666" height="197.504" fill="white" transform="translate(51.6953 0.175781) rotate(15.0464)"/>
</clipPath>
</defs>
</svg>
