<svg width="508" height="344" viewBox="0 0 508 344" fill="none" xmlns="http://www.w3.org/2000/svg">
<g clip-path="url(#clip0_527_1225)">
<path d="M147.555 244.35C149.436 244.411 151.425 244.398 153.255 244.471C155.132 244.565 156.947 245.747 158.792 245.821C160.638 245.894 162.551 245.319 164.4 245.359C166.25 245.4 168.112 244.987 169.972 244.928C171.678 244.886 173.472 245.78 175.192 245.605C176.912 245.43 178.432 243.937 180.131 243.642C181.829 243.347 183.457 242.927 185.101 242.508C187.107 242.01 189.297 242.338 191.323 241.976C193.349 241.614 195.431 241.847 197.476 241.622C199.52 241.413 201.503 240.643 203.565 240.587C205.626 240.532 207.698 239.888 209.777 239.987C211.688 240.084 213.573 240.751 215.458 240.93C217.344 241.11 219.201 241.723 221.094 241.988C222.986 242.268 224.869 242.464 226.736 242.826C228.619 243.19 230.524 243.338 232.38 243.8C234.236 244.262 236.202 244.315 238.032 244.859C239.863 245.403 241.282 247.15 243.086 247.792C244.889 248.434 247.025 248.151 248.786 248.873C250.548 249.594 252.497 249.965 254.232 250.786C255.966 251.606 257.007 253.751 258.7 254.651C260.552 255.635 262.953 255.548 264.868 256.421C266.78 257.31 268.342 258.987 270.3 259.763C272.258 260.539 274.557 260.307 276.564 260.936C278.571 261.566 280.402 262.75 282.441 263.231C284.481 263.712 286.653 263.399 288.741 263.734C290.133 263.963 291.897 264.5 293.487 264.109C291.109 263.003 288.573 261.14 286.086 260.427C284.009 259.824 281.808 259.763 279.86 258.888C277.912 258.012 275.849 257.275 273.987 256.223C272.125 255.171 270.588 253.58 268.789 252.416C266.989 251.252 264.669 250.876 262.886 249.714C261.119 248.554 259.44 247.201 257.732 245.963C256.024 244.724 254.576 243.092 252.927 241.775C251.278 240.459 249.595 239.139 248.023 237.73C246.451 236.32 245.54 234.221 244.045 232.719C242.55 231.216 240.158 230.564 238.755 228.987C237.745 227.838 236.543 226.113 234.967 225.713C233.242 225.282 231.332 225.672 229.58 225.339C227.829 225.005 226.067 224.772 224.331 224.457C222.463 224.111 220.571 223.83 218.686 223.483C216.802 223.136 214.923 222.89 213.039 222.543C211.154 222.195 209.337 221.518 207.466 221.206C205.544 220.888 203.733 219.993 201.834 219.627C199.934 219.261 198 219.06 196.109 218.611C194.218 218.162 192.478 217.24 190.61 216.726C188.743 216.213 186.885 215.767 185.028 215.153C183.171 214.539 180.97 214.967 179.157 214.257C176.987 213.408 174.957 212.187 172.788 211.338C170.618 210.49 168.763 208.883 166.597 208.001C164.431 207.119 162.143 206.595 160.016 205.667C158.001 204.784 155.666 204.558 153.811 203.439C151.956 202.32 150.054 201.163 148.265 199.899C146.475 198.635 145.115 196.81 143.38 195.502C141.646 194.193 140.245 192.431 138.511 191.123C137.058 190.029 135.157 189.511 133.727 188.352C132.298 187.193 130.863 186.084 129.488 184.881C128.114 183.677 126.91 182.289 125.574 181.039C124.238 179.788 123.012 178.448 121.733 177.137C120.453 175.842 119.543 174.215 118.319 172.858C117.096 171.502 115.852 170.177 114.646 168.806C113.441 167.434 111.494 166.71 110.307 165.324C109.12 163.937 107.896 162.581 106.748 161.148C105.599 159.715 104.942 157.929 103.847 156.468C102.752 155.007 101.221 153.855 100.181 152.349C98.9539 150.538 98.3121 148.282 96.8676 146.616C95.4399 144.952 93.0983 144.136 91.5584 142.579C90.0185 141.021 89.1767 138.744 87.5983 137.233C86.3106 136.005 84.5105 135.329 83.1676 134.146C81.8247 132.962 80.4732 131.862 79.0935 130.708C77.7138 129.554 76.6136 128.143 75.2172 126.988C73.8674 125.871 73.1514 125.14 71.7585 123.951C73.83 124.284 74.709 124.258 76.2183 124.65C78.1857 125.175 80.0081 126.122 81.9519 126.711C83.8957 127.3 86.0962 127.04 88.0164 127.695C89.9367 128.349 92.0134 128.632 93.91 129.351C95.8066 130.07 97.5416 131.21 99.4129 132.011C101.284 132.812 103.135 133.644 104.965 134.524C106.859 135.428 108.768 136.351 110.662 137.255C112.557 138.159 114.552 138.905 116.444 139.826C118.337 140.747 119.784 142.547 121.654 143.516C123.525 144.485 125.339 145.516 127.166 146.581C128.74 147.486 130.596 147.948 132.168 148.869C133.741 149.79 135.051 151.122 136.602 152.092C138.152 153.061 140.204 153.257 141.718 154.257C143.232 155.256 144.914 156.087 146.386 157.166C147.858 158.246 149.012 159.78 150.426 160.937C151.935 162.138 153.559 163.216 155.031 164.447C156.521 165.68 157.322 167.699 158.793 168.947C160.264 170.194 162.636 170.39 164.089 171.652C165.541 172.915 166.515 174.734 167.968 175.996C169.42 177.258 170.796 178.614 172.247 179.893C173.698 181.172 174.904 182.695 176.355 183.974C177.806 185.253 180.024 185.635 181.477 186.897C182.93 188.16 183.652 190.289 185.106 191.535C186.561 192.781 188.73 193.141 190.207 194.338C191.683 195.536 192.655 197.371 194.17 198.522C195.684 199.673 197.472 200.465 199.027 201.553C200.581 202.657 202.176 203.682 203.77 204.723C205.363 205.764 206.677 207.231 208.327 208.211C209.978 209.191 211.363 210.614 213.039 211.513C214.715 212.411 216.552 213.056 218.288 213.86C220.024 214.663 221.897 215.127 223.676 215.834C224.809 216.289 226.029 216.702 227.202 217.093C227.396 216.844 228.285 215.909 228.48 215.66C226.595 213.527 223.557 212.285 221.674 210.136C220.198 208.451 219.133 206.37 217.657 204.684C216.181 202.998 215.209 200.843 213.733 199.157C212.257 197.471 210.784 195.752 209.31 194.05C207.836 192.347 205.769 191.156 204.291 189.487C203.041 188.06 201.717 186.693 200.447 185.298C199.176 183.903 197.444 182.898 196.174 181.503C194.903 180.108 194.492 177.91 193.223 176.498C191.954 175.087 190.759 173.615 189.49 172.204C188.132 170.682 186.645 169.264 185.305 167.727C183.965 166.19 182.478 164.773 181.14 163.219C179.802 161.666 178.388 160.188 177.085 158.622C175.782 157.055 174.792 155.234 173.509 153.636C172.226 152.038 170.465 150.827 169.217 149.216C167.969 147.604 166.888 145.842 165.677 144.2C164.511 142.614 163.071 141.235 161.831 139.708C160.574 138.18 159.612 136.413 158.28 134.961C156.948 133.509 156.012 131.661 154.606 130.269C153.201 128.876 151.075 128.251 149.594 126.936C148.13 125.621 146.587 124.417 145.05 123.163C143.637 122.006 142.39 120.377 140.71 119.681C138.836 118.913 136.867 118.406 135.012 117.607C133.157 116.808 131.133 116.345 129.3 115.498C127.467 114.651 126.151 112.729 124.34 111.833C122.529 110.938 120.315 110.843 118.526 109.899C116.737 108.955 115.157 107.612 113.407 106.622C111.656 105.632 109.664 105.021 107.919 103.981C106.174 102.941 104.685 101.54 102.978 100.453C101.271 99.3664 99.442 98.4859 97.7755 97.336C96.1072 96.2028 94.3567 95.2126 92.7453 94.018C91.134 92.8233 90.1242 90.866 88.5698 89.6099C87.0154 88.3539 84.7692 87.9184 83.2551 86.5991C81.7409 85.2799 80.2469 83.929 78.7696 82.5799C77.2923 81.2308 75.8167 79.865 74.3778 78.4694C72.9373 77.0904 72.1598 75.0057 70.7394 73.5951C69.319 72.1845 67.8233 70.8504 66.4213 69.4249C64.9744 67.9442 63.2832 66.7076 61.9267 65.1689C60.5701 63.6303 58.7956 62.385 57.531 60.7717C56.2664 59.1584 55.2998 57.273 54.0921 55.5982C52.8845 53.9235 51.3877 52.4376 50.2703 50.7049C49.153 48.9722 48.0391 47.2062 47.0103 45.4321C45.9815 43.6581 45.4759 41.5511 44.5023 39.7323C43.5286 37.9135 42.1991 36.2766 41.2957 34.4314C40.3922 32.5862 39.8095 30.5722 38.9779 28.6839C38.0768 26.6537 36.932 24.6993 36.1545 22.6145C35.377 20.5298 35.2807 18.2128 34.5734 16.1016C33.866 13.9905 32.5476 12.0854 31.8735 9.97772C31.1995 7.87007 30.9515 5.55409 30.2424 3.45964C30.127 3.11085 30.5569 1.89252 30.6073 0.921048C32.1054 2.07025 33.3152 4.04833 34.6851 5.13369C36.1332 6.27769 37.7274 7.1506 39.1877 8.17799C40.8674 9.3629 42.5673 10.5162 44.2654 11.6862C45.9636 12.8562 47.1268 14.7957 48.8249 15.9657C50.5231 17.1357 52.3805 18.0697 54.062 19.2379C55.7435 20.4062 57.8356 21.0277 59.5153 22.2126C61.1951 23.3975 62.4607 25.1625 64.1203 26.379C65.873 27.6725 67.7632 28.7782 69.4957 30.1033C71.2283 31.4285 73.3295 32.2867 75.0235 33.6583C76.7176 35.0299 77.8888 37.0545 79.5811 38.4428C81.2735 39.8311 82.8352 41.3406 84.4907 42.7587C85.8854 43.9309 87.2835 45.0697 88.6396 46.2883C89.9957 47.507 92.2845 47.6942 93.6205 48.9445C94.9565 50.1947 95.4437 52.3166 96.7612 53.5818C98.0788 54.847 100.078 55.3914 101.397 56.6399C102.854 58.0206 104.271 59.4645 105.673 60.89C107.075 62.3155 107.654 64.5311 109.017 66.0031C110.336 67.42 111.561 68.9281 112.88 70.3449C114.198 71.7618 115.739 72.9828 117.058 74.3996C118.377 75.8165 119.638 77.2947 120.94 78.7098C122.242 80.125 123.374 81.7244 124.672 83.1728C125.971 84.6212 127.291 86.0214 128.555 87.483C129.803 88.9262 131.09 90.3229 132.322 91.7644C133.554 93.2059 135.042 94.4551 136.273 95.8966C137.504 97.3547 138.643 98.8709 139.874 100.329C141.104 101.787 142.576 103.018 143.788 104.491C145 105.964 146.064 107.557 147.259 109.028C148.471 110.501 149.188 112.361 150.4 113.834C151.729 115.47 153.239 116.991 154.646 118.535C156.052 120.079 158.408 120.762 159.888 122.246C161.368 123.73 162.075 126.009 163.61 127.449C165.145 128.888 167.31 129.618 168.881 131.044C170.328 132.357 172.015 133.475 173.369 134.879C174.741 136.267 175.42 138.325 176.735 139.775C178.05 141.225 178.999 142.957 180.241 144.467C181.483 145.977 182.947 147.291 184.133 148.846C185.319 150.4 186.053 152.262 187.186 153.844C188.319 155.427 190.14 156.543 191.237 158.155C192.361 159.821 193.557 161.444 194.7 163.096C195.842 164.747 197.366 166.134 198.546 167.756C199.725 169.377 200.006 171.696 201.239 173.289C202.472 174.883 203.739 176.479 205.01 178.026C206.282 179.573 207.805 180.96 209.13 182.479C210.455 183.997 212.021 185.305 213.385 186.777C214.748 188.249 216.713 189.127 218.148 190.556C219.827 192.229 220.432 195.171 222.223 197.227C222.536 196.485 222.747 195.749 222.673 195.488C222.077 193.608 221.255 191.788 220.66 189.891C220.065 187.993 220.617 185.76 220.039 183.865C219.461 181.969 217.925 180.378 217.347 178.483C216.752 176.585 217.252 174.364 216.639 172.481C216.026 170.599 214.541 168.996 213.911 167.112C213.282 165.228 213.488 163.077 212.84 161.208C212.192 159.339 211.23 157.572 210.565 155.701C209.898 153.847 208.739 152.194 207.982 150.397C207.225 148.601 206.665 146.691 205.821 144.919C204.978 143.147 204.35 141.246 203.399 139.531C202.448 137.816 201.068 136.342 200.029 134.668C198.99 132.994 197.531 131.63 196.418 130.015C195.305 128.401 194.682 126.45 193.496 124.896C192.309 123.341 190.589 122.219 189.331 120.708C188.101 119.249 187.8 116.962 186.551 115.518C185.303 114.075 184.021 112.628 182.737 111.198C181.453 109.768 180.133 108.368 178.829 106.97C177.526 105.571 176.26 104.126 174.94 102.726C173.62 101.326 171.437 100.763 170.115 99.379C168.715 97.9368 168.263 95.6334 166.918 94.1465C165.573 92.6595 163.042 92.2113 161.752 90.6796C160.462 89.1478 160.37 86.6291 159.1 85.0658C157.831 83.5025 156.171 82.286 154.936 80.7095C153.702 79.133 152.211 77.7488 151.013 76.1425C149.815 74.5361 149.457 72.3097 148.276 70.7051C146.829 68.7361 144.27 67.5777 142.844 65.5771C141.417 63.5765 140.24 61.2819 138.963 59.1452C140.445 59.8044 141.857 61.1299 143.339 61.789C144.82 62.4482 146.478 62.7047 147.962 63.3471C150.462 64.4153 152.962 65.6517 155.564 66.3936C157.397 66.9207 159.312 67.1366 161.04 67.855C162.768 68.5734 164.269 69.8576 165.949 70.7225C167.628 71.5874 169.334 72.3541 170.951 73.3305C172.568 74.3068 174.449 74.8558 176.044 75.8804C177.64 76.905 178.541 78.9352 180.116 79.9913C181.674 81.0458 183.629 81.5351 185.187 82.5895C186.746 83.644 188.66 84.1965 190.218 85.2509C191.777 86.3053 193.253 87.5028 194.791 88.5888C196.328 89.6915 197.534 91.2145 199.033 92.3637C200.702 93.6486 202.874 94.3121 204.47 95.6567C206.065 97.0013 207.328 98.7996 208.846 100.237C210.365 101.675 211.842 103.192 213.265 104.738C214.688 106.283 216.349 107.652 217.662 109.287C218.974 110.922 220.081 112.755 221.23 114.507C222.379 116.26 223.562 118.016 224.563 119.889C225.565 121.761 226.358 123.696 227.183 125.651C227.844 127.235 228.101 128.979 228.78 130.549C229.46 132.118 229.766 133.868 230.499 135.409C231.48 137.481 233.041 139.327 233.693 141.483C234.345 143.639 234.283 146.024 234.724 148.259C235.168 150.477 236.295 152.598 236.669 154.843C236.952 156.657 236.094 158.589 236.242 160.406C236.391 162.224 236.862 164.007 236.909 165.831C236.955 167.654 237.759 169.489 237.722 171.304C237.685 173.119 237.578 174.96 237.489 176.786C237.4 178.613 236.577 180.379 236.455 182.202C236.323 184.277 237.086 186.343 237.073 188.413C237.06 190.483 235.526 192.597 235.648 194.664C235.787 196.733 236.707 198.748 237.034 200.786C237.362 202.824 238.711 204.598 239.26 206.608C239.813 208.586 239.497 210.809 240.284 212.642C241.071 214.476 242.635 215.968 243.72 217.681C244.806 219.394 245.922 220.975 247.279 222.513C248.606 224.015 249.787 225.62 251.386 226.931C253 228.261 254.554 229.685 256.227 230.937C257.9 232.188 259.47 233.614 261.183 234.803C262.896 235.991 264.983 236.663 266.735 237.804C268.503 238.948 270.43 239.856 272.2 240.982C273.987 242.111 275.799 243.158 277.604 244.272C279.409 245.386 281.038 246.734 282.867 247.783C284.696 248.831 286.061 250.775 287.95 251.729C289.534 252.534 291.256 253.15 292.905 253.827C294.553 254.503 296.174 255.278 297.846 255.89C299.518 256.501 301.237 256.983 302.912 257.561C304.588 258.139 306.354 258.491 308.009 259.101C308.625 259.333 309.129 259.032 310.214 259.128C308.454 257.413 307.668 255.091 306.011 253.521C304.261 251.875 302.546 250.383 301.009 248.64C299.743 247.195 297.995 246.188 296.746 244.745C295.498 243.302 293.697 242.307 292.469 240.832C291.24 239.357 291.042 237.046 289.851 235.541C288.659 234.037 287.409 232.61 286.254 231.076C285.099 229.541 283.033 228.67 281.95 227.092C280.867 225.515 280.186 223.642 279.175 222.021C278.164 220.401 277.388 218.619 276.468 216.941C275.547 215.262 274.768 213.514 273.954 211.779C273.139 210.061 272.448 208.272 271.741 206.48C271.049 204.708 269.731 203.123 269.165 201.279C268.587 199.383 268.13 197.45 267.567 195.572C267.006 193.679 266.323 191.823 265.761 189.929C265.2 188.035 265.334 185.927 264.773 184.033C264.212 182.139 263.338 180.331 262.776 178.437C262.215 176.543 261.532 174.687 260.97 172.793C260.409 170.899 260.822 168.703 260.243 166.824C259.666 164.911 258.778 163.085 258.168 161.169C257.558 159.253 255.76 157.753 255.132 155.852C254.503 153.951 253.944 152.041 253.264 150.151C252.587 148.229 253.312 145.795 252.619 143.87C251.926 141.946 250.637 140.246 249.925 138.336C249.214 136.427 248.03 134.687 247.318 132.778C246.59 130.867 246.318 128.784 245.588 126.889C245.004 125.38 243.467 124.278 242.738 122.703C242.093 121.289 242.242 119.688 241.52 118.047C243.152 119.041 244.599 119.545 246.011 120.383C247.582 121.32 249.014 122.294 250.446 123.268C252.334 124.559 253.747 126.525 255.633 127.832C257.519 129.139 259.925 129.659 261.81 130.983C263.677 132.305 265.129 134.224 266.997 135.547C268.974 136.948 270.89 138.46 272.865 139.878C274.841 141.296 276.803 142.678 278.665 144.219C280.356 145.624 282.77 146.228 284.263 147.747C285.756 149.267 286.986 151.213 288.327 152.902C289.683 154.609 290.603 156.624 291.725 158.475C292.847 160.326 293.74 162.271 294.628 164.266C295.516 166.262 295.871 168.353 296.497 170.439C297.123 172.525 297.59 174.51 297.971 176.688C298.277 178.437 298.775 180.139 298.961 181.91C299.148 183.681 299.912 185.411 300.013 187.189C300.115 188.968 300.435 190.753 300.485 192.543C300.535 194.333 300.518 196.116 300.551 197.905C300.585 200.013 299.438 202.134 299.453 204.257C299.468 206.381 300.768 208.469 300.802 210.578C300.835 212.686 299.955 214.834 300.057 216.933C300.159 219.032 300.138 221.185 300.341 223.277C300.545 225.37 301.069 227.462 301.425 229.553C301.8 231.782 303.268 233.702 303.976 235.813C304.681 237.941 305.648 239.827 306.688 241.821C307.727 243.815 307.726 246.425 309.123 248.22C310.386 249.85 311.719 251.454 313.059 252.991C314.399 254.528 316.066 255.829 317.516 257.276C318.967 258.724 320.872 259.68 322.415 261.052C324.711 263.11 326.879 265.44 329.963 266.08C331.744 266.451 333.794 265.535 335.557 265.92C337.319 266.306 338.948 267.334 340.724 267.754C342.484 268.173 344.382 268.067 346.141 268.485C347.9 268.904 349.746 268.978 351.509 269.363C353.7 269.843 355.757 270.798 357.955 271.211C360.153 271.625 362.261 272.585 364.467 272.915C366.674 273.246 368.953 273.044 371.183 273.31C373.413 273.575 375.583 274.255 377.805 274.436C378.942 274.52 380.053 274.855 381.187 274.972C383.037 275.165 384.909 275.477 386.745 275.482C388.596 275.506 390.412 274.398 392.259 274.304C394.105 274.209 396.016 275.115 397.853 274.953C399.689 274.79 401.51 274.457 403.361 274.312C405.213 274.168 407.058 274.41 408.888 274.314C409.904 274.268 411.039 272.584 412.258 272.037C409.912 271.103 407.173 271.037 404.956 270.15C402.642 269.236 400.538 267.923 398.271 267.031C396.28 266.251 394.74 264.694 392.97 263.567C391.2 262.44 389.735 260.974 388.104 259.643C386.473 258.311 384.569 257.339 382.973 255.994C381.394 254.651 380.122 252.953 378.563 251.579C377.004 250.204 375.575 248.709 374.053 247.304C372.531 245.9 370.329 245.2 368.847 243.732C367.365 242.265 365.771 240.903 364.343 239.408C362.838 237.837 361.523 236.067 360.04 234.448C358.573 232.83 357.719 230.67 356.29 229.023C354.86 227.376 353.061 226.044 351.705 224.337C350.333 222.628 349.614 220.465 348.331 218.698C347.18 217.131 345.771 215.772 344.657 214.174C343.542 212.576 342.244 211.128 341.147 209.515C340.051 207.903 339.296 206.09 338.218 204.462C337.139 202.851 335.264 201.764 334.184 200.153C333.105 198.542 331.845 197.047 330.765 195.436C329.686 193.825 329.678 191.467 328.564 189.869C327.449 188.272 326.152 186.807 325.001 185.239C323.762 183.544 322.77 181.74 321.654 179.991C320.538 178.241 318.903 176.791 317.843 174.997C316.782 173.203 316.17 171.152 315.165 169.313C314.159 167.475 312.24 166.164 311.216 164.34C310.193 162.516 310.209 160.092 309.165 158.3C308.949 157.941 307.94 157.112 307.553 155.977C309.615 156.562 311.59 157.659 313.159 158.294C314.84 158.974 316.79 159.025 318.471 159.705C320.153 160.385 321.671 161.502 323.369 162.184C325.068 162.865 326.48 164.191 328.16 164.888C329.84 165.584 331.544 166.216 333.222 166.929C334.9 167.642 336.889 167.63 338.546 168.392C340.412 169.242 342.115 170.362 343.886 171.321C345.671 172.298 347.056 173.89 348.728 174.99C350.4 176.09 352.321 176.896 353.892 178.153C355.463 179.411 356.485 181.252 357.94 182.649C359.396 184.047 361.119 185.135 362.424 186.685C363.714 188.217 365.748 189.236 366.904 190.923C368.06 192.609 367.927 195.02 368.921 196.807C369.858 198.488 370.709 200.193 371.593 201.901C372.477 203.61 373.468 205.262 374.282 206.997C375.112 208.733 375.574 210.617 376.351 212.381C377.128 214.146 378.788 215.514 379.512 217.307C380.235 219.1 380.68 220.982 381.387 222.773C382.094 224.564 383.397 226.131 384.087 227.92C384.882 230.007 385.851 232.027 386.645 234.113C387.439 236.2 387.971 238.377 388.799 240.467C389.626 242.557 389.417 245.061 390.299 247.106C391.141 249.063 392.712 250.641 393.802 252.32C394.949 254.089 396.098 255.842 397.495 257.318C398.891 258.793 400.889 259.674 402.586 260.861C404.25 262.027 406.048 262.888 407.962 263.76C409.877 264.633 411.747 264.962 413.794 265.528C415.431 265.985 416.844 267.31 418.492 267.667C420.834 268.146 423.252 269.205 425.556 268.923C427.603 268.681 429.616 268.115 431.632 267.685C433.648 267.254 435.876 267.536 437.87 267.002C439.794 266.478 441.464 265.001 443.4 264.529C445.336 264.057 447.358 263.896 449.291 263.457C451.224 263.018 453.275 263.063 455.237 262.66C457.2 262.258 459.098 261.664 461.057 261.295C463.016 260.926 465.006 260.745 466.962 260.409C468.918 260.074 470.88 259.671 472.849 259.371C474.424 259.13 475.724 257.649 477.263 257.27C478.802 256.891 480.346 256.462 481.885 256.083C483.544 255.683 485.125 257.329 485.41 258.638C485.77 260.208 485.427 260.745 483.986 261.488C482.345 262.361 481.028 263.841 479.35 264.593C477.671 265.345 475.871 265.798 474.098 266.321C472.326 266.844 470.565 266.762 468.662 266.918C466.96 267.078 465.214 267.503 463.525 267.866C461.836 268.229 460.096 268.436 458.447 268.905C456.798 269.373 455.184 269.98 453.537 270.432C451.612 270.956 449.646 271.392 447.721 271.916C445.795 272.457 443.88 273.049 441.953 273.59C440.027 274.131 438.078 274.568 436.151 275.109C434.225 275.65 432.275 276.087 430.349 276.628C428.423 277.169 426.779 278.716 424.853 279.256C422.926 279.797 420.988 280.286 419.062 280.827C417.135 281.368 415.285 282.152 413.342 282.691C411.434 283.217 409.476 283.57 407.572 284.062C405.667 284.555 403.601 284.492 401.697 284.984C399.792 285.477 397.93 286.21 396.024 286.719C394.117 287.228 392.186 287.65 390.29 288.228C388.393 288.806 386.459 289.261 384.602 289.944C382.536 290.689 380.758 292.239 378.719 293.054C376.678 293.886 374.586 294.562 372.556 295.445C370.527 296.329 368.377 296.914 366.379 297.818C364.381 298.722 362.705 300.417 360.709 301.304C358.713 302.191 356.068 301.698 354.041 302.565C352.048 303.418 350.349 305.01 348.37 305.899C346.391 306.788 344.123 307.041 342.129 307.911C340.133 308.799 338.71 310.975 336.718 311.829C334.708 312.681 332.166 312.181 330.147 312.965C328.128 313.748 326.097 314.48 324.038 315.159C322.223 315.762 320.786 317.6 318.946 318.116C317.106 318.632 314.895 317.695 313.033 318.108C311.17 318.52 309.37 319.142 307.5 319.469C305.629 319.797 303.755 320.158 301.861 320.382C299.968 320.607 298.18 322.088 296.278 322.227C294.376 322.366 292.407 321.859 290.496 321.929C288.585 322 286.67 322.593 284.75 322.579C282.831 322.564 280.895 322.549 278.983 322.468C277.072 322.37 275.164 322.088 273.243 321.922C271.073 321.73 268.897 321.757 266.719 321.631C264.542 321.506 262.395 320.761 260.225 320.569C258.054 320.378 255.852 320.166 253.699 319.807C251.546 319.449 249.689 318.026 247.583 317.37C245.803 316.831 243.845 316.864 242.066 316.308C240.287 315.753 238.51 315.181 236.733 314.609C234.956 314.037 233.074 313.825 231.297 313.253C229.52 312.681 227.841 311.816 226.08 311.246C224.32 310.676 222.472 310.298 220.695 309.726C220.058 309.526 220.187 309.421 219.222 308.816C221.359 308.196 222.906 307.093 224.927 306.293C226.947 305.492 229.23 305.09 231.213 304.167C233.196 303.245 234.744 301.318 236.699 300.342C238.672 299.352 240.447 298.004 242.416 297.046C244.388 296.072 246.541 295.454 248.554 294.569C250.513 293.711 252.514 292.942 254.482 292.322C256.504 291.673 258.492 290.701 260.555 290.309C262.618 289.917 264.813 289.707 266.916 289.572C269.001 289.452 271.199 289.377 273.323 289.53C275.447 289.684 277.392 290.913 279.488 291.333C281.551 291.749 283.609 292.216 285.668 292.665C287.727 293.115 289.7 293.91 291.756 294.393C293.812 294.876 295.838 295.49 297.877 295.972C299.916 296.453 301.987 296.954 304.043 297.437C306.099 297.92 308.24 298.075 310.301 298.508C312.262 298.931 314.466 298.15 316.432 298.522C318.399 298.895 320.311 299.464 322.289 299.72C324.268 299.976 326.187 301.287 328.185 301.36C330.182 301.433 332.239 301.091 334.228 300.927C336.216 300.763 338.247 300.519 340.216 300.051C342.099 299.606 343.839 298.591 345.697 298.06C347.555 297.529 349.282 296.631 351.132 296.015C352.982 295.399 354.743 294.672 356.578 294.038C358.396 293.402 360.413 293.291 362.248 292.657C364.4 291.887 366.792 291.731 368.935 290.893C371.061 290.053 372.974 288.669 375.102 287.812C377.229 286.955 379.514 286.536 381.64 285.696C382.256 285.44 383.341 284.239 384.831 283.518C382.842 283.211 380.326 282.612 378.482 282.353C376.507 282.064 374.566 282.098 372.708 281.821C370.85 281.544 368.902 281.156 367.017 280.809C365.082 280.456 363.007 280.813 361.072 280.46C359.137 280.108 357.254 279.424 355.319 279.071C353.384 278.719 351.499 278.051 349.568 277.665C347.637 277.279 345.761 276.68 343.835 276.245C341.909 275.809 339.719 276.457 337.816 275.956C335.979 275.479 334.434 273.803 332.601 273.444C330.768 273.085 328.746 273.582 326.882 273.355C325.019 273.128 323.177 272.364 321.303 272.236C319.429 272.109 317.513 272.23 315.645 272.204C313.778 272.179 311.872 272.199 309.997 272.24C308.123 272.281 306.239 272.406 304.36 272.497C302.48 272.588 300.662 273.544 298.779 273.668C296.827 273.802 294.84 273.31 292.887 273.292C290.935 273.274 288.992 272.837 287.043 272.786C285.093 272.735 283.115 272.479 281.169 272.563C279.224 272.63 277.261 272.712 275.315 272.796C273.368 272.881 271.441 273.59 269.495 273.674C267.548 273.758 265.563 273.08 263.617 273.164C261.67 273.248 259.733 273.737 257.784 273.838C255.838 273.922 253.877 273.988 251.93 274.072C249.984 274.156 248.066 275.102 246.12 275.186C244.173 275.27 242.232 275.472 240.283 275.573C238.337 275.657 236.321 274.302 234.375 274.386C232.445 274.472 230.58 275.878 228.656 275.914C226.731 275.95 224.783 276.051 222.866 276.02C220.948 275.989 219.043 275.185 217.118 275.069C215.192 274.953 213.261 275.055 211.347 274.823C209.434 274.59 207.566 274.076 205.683 273.712C203.8 273.348 201.787 273.426 199.937 272.913C198.086 272.401 196.318 271.577 194.501 270.9C192.41 270.11 190.637 268.529 188.591 267.626C186.545 266.723 184.388 266.077 182.385 265.078C180.383 264.078 178.048 263.684 176.09 262.588C174.289 261.593 172.492 260.564 170.73 259.522C168.968 258.48 167.069 257.626 165.31 256.551C163.552 255.476 161.769 254.466 160.011 253.39C158.252 252.315 156.574 251.114 154.833 250.04C153.091 248.967 151.497 247.605 149.753 246.548C149.041 246.104 148.5 244.987 147.664 244.277L147.555 244.35Z" fill="black" fill-opacity="0.05"/>
</g>
<defs>
<clipPath id="clip0_527_1225">
<rect width="479.319" height="294.727" fill="white" transform="translate(30.457 0.90625) rotate(5.93162)"/>
</clipPath>
</defs>
</svg>
