<svg width="465" height="331" viewBox="0 0 465 331" fill="none" xmlns="http://www.w3.org/2000/svg">
<g filter="url(#filter0_d_519_1192)">
<path d="M122.313 244.35C124.194 244.411 126.183 244.398 128.012 244.471C129.89 244.565 131.704 245.747 133.55 245.821C135.396 245.894 137.309 245.319 139.158 245.359C141.007 245.4 142.87 244.987 144.73 244.928C146.436 244.886 148.23 245.78 149.95 245.605C151.67 245.43 153.19 243.937 154.888 243.642C156.587 243.347 158.215 242.927 159.859 242.508C161.865 242.01 164.055 242.338 166.081 241.976C168.107 241.614 170.188 241.847 172.234 241.622C174.277 241.413 176.261 240.643 178.323 240.587C180.384 240.532 182.456 239.888 184.535 239.987C186.446 240.084 188.331 240.751 190.216 240.93C192.101 241.11 193.958 241.723 195.852 241.988C197.743 242.268 199.627 242.464 201.493 242.826C203.376 243.19 205.282 243.338 207.138 243.8C208.994 244.262 210.959 244.315 212.79 244.859C214.621 245.403 216.04 247.15 217.843 247.792C219.647 248.434 221.782 248.151 223.544 248.873C225.306 249.594 227.255 249.965 228.99 250.786C230.724 251.606 231.765 253.751 233.457 254.651C235.31 255.635 237.711 255.548 239.626 256.421C241.538 257.31 243.099 258.987 245.058 259.763C247.016 260.539 249.314 260.307 251.321 260.936C253.329 261.566 255.16 262.75 257.199 263.231C259.239 263.712 261.411 263.399 263.499 263.734C264.891 263.963 266.655 264.5 268.245 264.109C265.866 263.003 263.331 261.14 260.844 260.427C258.766 259.824 256.565 259.763 254.618 258.888C252.67 258.012 250.607 257.275 248.745 256.223C246.883 255.171 245.346 253.58 243.546 252.416C241.746 251.252 239.427 250.876 237.643 249.714C235.877 248.554 234.198 247.201 232.49 245.963C230.782 244.724 229.334 243.092 227.685 241.775C226.036 240.459 224.353 239.139 222.781 237.73C221.209 236.32 220.298 234.221 218.803 232.719C217.308 231.216 214.916 230.564 213.512 228.987C212.503 227.838 211.301 226.113 209.725 225.713C208 225.282 206.089 225.672 204.338 225.339C202.587 225.005 200.825 224.772 199.089 224.457C197.221 224.111 195.329 223.83 193.444 223.483C191.559 223.136 189.681 222.89 187.796 222.543C185.912 222.195 184.095 221.518 182.223 221.206C180.302 220.888 178.491 219.993 176.591 219.627C174.692 219.261 172.758 219.06 170.867 218.611C168.976 218.162 167.235 217.24 165.368 216.726C163.501 216.213 161.643 215.767 159.786 215.153C157.929 214.539 155.728 214.967 153.915 214.257C151.745 213.408 149.715 212.187 147.545 211.338C145.376 210.49 143.521 208.883 141.355 208.001C139.189 207.119 136.901 206.595 134.773 205.667C132.759 204.784 130.424 204.558 128.569 203.439C126.714 202.32 124.812 201.163 123.022 199.899C121.233 198.635 119.872 196.81 118.138 195.502C116.404 194.193 115.003 192.431 113.269 191.123C111.816 190.029 109.915 189.511 108.485 188.352C107.055 187.193 105.62 186.084 104.246 184.881C102.871 183.677 101.668 182.289 100.332 181.039C98.9958 179.788 97.7703 178.448 96.4912 177.137C95.2104 175.842 94.3011 174.215 93.0773 172.858C91.8535 171.502 90.6095 170.177 89.404 168.806C88.1986 167.434 86.252 166.71 85.0649 165.324C83.8779 163.937 82.6541 162.581 81.5055 161.148C80.357 159.715 79.7001 157.929 78.6051 156.468C77.5101 155.007 75.9786 153.855 74.9388 152.349C73.7117 150.538 73.0699 148.282 71.6254 146.616C70.1977 144.952 67.8562 144.136 66.3163 142.579C64.7763 141.021 63.9345 138.744 62.3561 137.233C61.0684 136.005 59.2683 135.329 57.9254 134.146C56.5825 132.962 55.231 131.862 53.8513 130.708C52.4716 129.554 51.3714 128.143 49.975 126.988C48.6252 125.871 47.9092 125.14 46.5163 123.951C48.5879 124.284 49.4668 124.258 50.9761 124.65C52.9435 125.175 54.7659 126.122 56.7097 126.711C58.6535 127.3 60.854 127.04 62.7742 127.695C64.6945 128.349 66.7712 128.632 68.6678 129.351C70.5644 130.07 72.2994 131.21 74.1707 132.011C76.042 132.812 77.8931 133.644 79.7225 134.524C81.6167 135.428 83.5259 136.351 85.4202 137.255C87.3144 138.159 89.3093 138.905 91.2018 139.826C93.0944 140.747 94.5416 142.547 96.4123 143.516C98.283 144.485 100.097 145.516 101.924 146.581C103.498 147.486 105.354 147.948 106.926 148.869C108.498 149.79 109.809 151.122 111.359 152.092C112.91 153.061 114.962 153.257 116.476 154.257C117.989 155.256 119.672 156.087 121.144 157.166C122.616 158.246 123.77 159.78 125.183 160.937C126.693 162.138 128.316 163.216 129.789 164.447C131.279 165.68 132.08 167.699 133.551 168.947C135.022 170.194 137.394 170.39 138.847 171.652C140.299 172.915 141.273 174.734 142.726 175.996C144.178 177.258 145.554 178.614 147.005 179.893C148.456 181.172 149.662 182.695 151.113 183.974C152.564 185.253 154.782 185.635 156.235 186.897C157.687 188.16 158.41 190.289 159.864 191.535C161.319 192.781 163.488 193.141 164.965 194.338C166.441 195.536 167.413 197.371 168.927 198.522C170.442 199.673 172.23 200.465 173.785 201.553C175.339 202.657 176.934 203.682 178.527 204.723C180.121 205.764 181.434 207.231 183.085 208.211C184.735 209.191 186.121 210.614 187.797 211.513C189.472 212.411 191.309 213.056 193.046 213.86C194.782 214.663 196.654 215.127 198.434 215.834C199.567 216.289 200.787 216.702 201.96 217.093C202.154 216.844 203.043 215.909 203.238 215.66C201.353 213.527 198.314 212.285 196.432 210.136C194.955 208.451 193.891 206.37 192.415 204.684C190.939 202.998 189.967 200.843 188.491 199.157C187.015 197.471 185.542 195.752 184.068 194.05C182.593 192.347 180.527 191.156 179.049 189.487C177.799 188.06 176.475 186.693 175.204 185.298C173.934 183.903 172.202 182.898 170.932 181.503C169.661 180.108 169.249 177.91 167.981 176.498C166.712 175.087 165.517 173.615 164.248 172.204C162.89 170.682 161.403 169.264 160.063 167.727C158.723 166.19 157.236 164.773 155.898 163.219C154.56 161.666 153.146 160.188 151.843 158.622C150.54 157.055 149.55 155.234 148.267 153.636C146.984 152.038 145.223 150.827 143.975 149.216C142.727 147.604 141.646 145.842 140.435 144.2C139.269 142.614 137.828 141.235 136.589 139.708C135.332 138.18 134.37 136.413 133.038 134.961C131.706 133.509 130.769 131.661 129.364 130.269C127.958 128.876 125.833 128.251 124.352 126.936C122.888 125.621 121.345 124.417 119.807 123.163C118.394 122.006 117.148 120.377 115.468 119.681C113.593 118.913 111.624 118.406 109.77 117.607C107.915 116.808 105.891 116.345 104.058 115.498C102.225 114.651 100.908 112.729 99.0975 111.833C97.2866 110.938 95.0725 110.843 93.2834 109.899C91.4944 108.955 89.9153 107.612 88.1648 106.622C86.4142 105.632 84.4222 105.021 82.6768 103.981C80.9315 102.941 79.4427 101.54 77.7359 100.453C76.0291 99.3664 74.1998 98.4859 72.5333 97.336C70.865 96.2028 69.1145 95.2126 67.5032 94.018C65.8918 92.8233 64.882 90.866 63.3277 89.6099C61.7733 88.3539 59.527 87.9184 58.0129 86.5991C56.4987 85.2799 55.0047 83.929 53.5274 82.5799C52.0501 81.2308 50.5745 79.865 49.1357 78.4694C47.6951 77.0904 46.9176 75.0057 45.4972 73.5951C44.0768 72.1845 42.5811 70.8504 41.1791 69.4249C39.7322 67.9442 38.041 66.7076 36.6845 65.1689C35.3279 63.6303 33.5534 62.385 32.2888 60.7717C31.0243 59.1584 30.0576 57.273 28.85 55.5982C27.6423 53.9235 26.1455 52.4376 25.0281 50.7049C23.9108 48.9722 22.7969 47.2062 21.7681 45.4321C20.7393 43.6581 20.2337 41.5511 19.2601 39.7323C18.2865 37.9135 16.957 36.2766 16.0535 34.4314C15.15 32.5862 14.5674 30.5722 13.7357 28.6839C12.8346 26.6537 11.6898 24.6993 10.9123 22.6145C10.1348 20.5298 10.0386 18.2128 9.33119 16.1016C8.62384 13.9905 7.30536 12.0854 6.63134 9.97772C5.95733 7.87007 5.70933 5.55409 5.00024 3.45964C4.88484 3.11085 5.3147 1.89252 5.36509 0.921048C6.8632 2.07025 8.073 4.04833 9.44295 5.13369C10.891 6.27769 12.4853 7.1506 13.9455 8.17799C15.6252 9.3629 17.3251 10.5162 19.0232 11.6862C20.7214 12.8562 21.8846 14.7957 23.5828 15.9657C25.2809 17.1357 27.1384 18.0697 28.8198 19.2379C30.5013 20.4062 32.5934 21.0277 34.2731 22.2126C35.9529 23.3975 37.2185 25.1625 38.8781 26.379C40.6308 27.6725 42.521 28.7782 44.2535 30.1033C45.9861 31.4285 48.0873 32.2867 49.7814 33.6583C51.4754 35.0299 52.6467 37.0545 54.339 38.4428C56.0313 39.8311 57.593 41.3406 59.2485 42.7587C60.6432 43.9309 62.0413 45.0697 63.3974 46.2883C64.7535 47.507 67.0423 47.6942 68.3783 48.9445C69.7143 50.1947 70.2015 52.3166 71.519 53.5818C72.8366 54.847 74.8356 55.3914 76.1549 56.6399C77.6121 58.0206 79.0291 59.4645 80.4311 60.89C81.8331 62.3155 82.4117 64.5311 83.7751 66.0031C85.0938 67.42 86.3187 68.9281 87.6374 70.3449C88.956 71.7618 90.4972 72.9828 91.8159 74.3996C93.1346 75.8165 94.3963 77.2947 95.6983 78.7098C97.0003 80.125 98.1315 81.7244 99.43 83.1728C100.729 84.6212 102.049 86.0214 103.312 87.483C104.561 88.9262 105.848 90.3229 107.08 91.7644C108.312 93.2059 109.799 94.4551 111.031 95.8966C112.261 97.3547 113.401 98.8709 114.631 100.329C115.861 101.787 117.334 103.018 118.546 104.491C119.758 105.964 120.822 107.557 122.017 109.028C123.229 110.501 123.946 112.361 125.157 113.834C126.487 115.47 127.997 116.991 129.403 118.535C130.81 120.079 133.165 120.762 134.646 122.246C136.126 123.73 136.832 126.009 138.368 127.449C139.903 128.888 142.068 129.618 143.639 131.044C145.086 132.357 146.773 133.475 148.126 134.879C149.499 136.267 150.178 138.325 151.493 139.775C152.808 141.225 153.757 142.957 154.999 144.467C156.24 145.977 157.704 147.291 158.891 148.846C160.077 150.4 160.811 152.262 161.944 153.844C163.076 155.427 164.898 156.543 165.994 158.155C167.119 159.821 168.315 161.444 169.457 163.096C170.6 164.747 172.124 166.134 173.303 167.756C174.483 169.377 174.764 171.696 175.997 173.289C177.23 174.883 178.496 176.479 179.768 178.026C181.039 179.573 182.563 180.96 183.888 182.479C185.213 183.997 186.779 185.305 188.143 186.777C189.506 188.249 191.47 189.127 192.906 190.556C194.585 192.229 195.189 195.171 196.981 197.227C197.294 196.485 197.505 195.749 197.431 195.488C196.835 193.608 196.013 191.788 195.418 189.891C194.823 187.993 195.375 185.76 194.797 183.865C194.219 181.969 192.683 180.378 192.105 178.483C191.51 176.585 192.01 174.364 191.397 172.481C190.784 170.599 189.299 168.996 188.669 167.112C188.039 165.228 188.246 163.077 187.598 161.208C186.949 159.339 185.987 157.572 185.322 155.701C184.656 153.847 183.496 152.194 182.74 150.397C181.983 148.601 181.423 146.691 180.579 144.919C179.735 143.147 179.107 141.246 178.157 139.531C177.206 137.816 175.826 136.342 174.787 134.668C173.748 132.994 172.289 131.63 171.176 130.015C170.063 128.401 169.44 126.45 168.254 124.896C167.067 123.341 165.347 122.219 164.089 120.708C162.859 119.249 162.557 116.962 161.309 115.518C160.06 114.075 158.778 112.628 157.495 111.198C156.211 109.768 154.891 108.368 153.587 106.97C152.283 105.571 151.018 104.126 149.698 102.726C148.377 101.326 146.195 100.763 144.873 99.379C143.473 97.9368 143.021 95.6334 141.676 94.1465C140.331 92.6595 137.8 92.2113 136.51 90.6796C135.22 89.1478 135.128 86.6291 133.858 85.0658C132.588 83.5025 130.929 82.286 129.694 80.7095C128.459 79.133 126.969 77.7488 125.771 76.1425C124.573 74.5361 124.215 72.3097 123.034 70.7051C121.587 68.7361 119.028 67.5777 117.602 65.5771C116.175 63.5765 114.998 61.2819 113.721 59.1452C115.202 59.8044 116.615 61.1299 118.096 61.789C119.578 62.4482 121.236 62.7047 122.72 63.3471C125.22 64.4153 127.72 65.6517 130.322 66.3936C132.154 66.9207 134.07 67.1366 135.798 67.855C137.526 68.5734 139.027 69.8576 140.706 70.7225C142.386 71.5874 144.092 72.3541 145.709 73.3305C147.326 74.3068 149.207 74.8558 150.802 75.8804C152.398 76.905 153.299 78.9352 154.874 79.9913C156.432 81.0458 158.386 81.5351 159.945 82.5895C161.503 83.644 163.417 84.1965 164.976 85.2509C166.534 86.3053 168.011 87.5028 169.549 88.5888C171.086 89.6915 172.292 91.2145 173.79 92.3637C175.46 93.6486 177.632 94.3121 179.227 95.6567C180.823 97.0013 182.085 98.7996 183.604 100.237C185.123 101.675 186.599 103.192 188.023 104.738C189.446 106.283 191.107 107.652 192.419 109.287C193.732 110.922 194.839 112.755 195.988 114.507C197.137 116.26 198.319 118.016 199.321 119.889C200.323 121.761 201.116 123.696 201.941 125.651C202.602 127.235 202.859 128.979 203.538 130.549C204.217 132.118 204.524 133.868 205.257 135.409C206.238 137.481 207.799 139.327 208.451 141.483C209.103 143.639 209.04 146.024 209.482 148.259C209.926 150.477 211.053 152.598 211.427 154.843C211.71 156.657 210.852 158.589 211 160.406C211.148 162.224 211.62 164.007 211.667 165.831C211.713 167.654 212.516 169.489 212.48 171.304C212.443 173.119 212.336 174.96 212.247 176.786C212.158 178.613 211.334 180.379 211.212 182.202C211.081 184.277 211.844 186.343 211.831 188.413C211.818 190.483 210.284 192.597 210.406 194.664C210.545 196.733 211.465 198.748 211.792 200.786C212.119 202.824 213.468 204.598 214.018 206.608C214.571 208.586 214.255 210.809 215.042 212.642C215.829 214.476 217.392 215.968 218.478 217.681C219.564 219.394 220.68 220.975 222.037 222.513C223.363 224.015 224.545 225.62 226.144 226.931C227.758 228.261 229.312 229.685 230.984 230.937C232.657 232.188 234.228 233.614 235.941 234.803C237.654 235.991 239.741 236.663 241.492 237.804C243.261 238.948 245.188 239.856 246.958 240.982C248.745 242.111 250.557 243.158 252.362 244.272C254.167 245.386 255.796 246.734 257.625 247.783C259.454 248.831 260.819 250.775 262.708 251.729C264.292 252.534 266.014 253.15 267.662 253.827C269.311 254.503 270.932 255.278 272.604 255.89C274.276 256.501 275.995 256.983 277.67 257.561C279.346 258.139 281.112 258.491 282.767 259.101C283.383 259.333 283.886 259.032 284.972 259.128C283.212 257.413 282.426 255.091 280.769 253.521C279.019 251.875 277.304 250.383 275.766 248.64C274.501 247.195 272.752 246.188 271.504 244.745C270.255 243.302 268.455 242.307 267.227 240.832C265.998 239.357 265.8 237.046 264.609 235.541C263.417 234.037 262.167 232.61 261.012 231.076C259.857 229.541 257.791 228.67 256.708 227.092C255.625 225.515 254.944 223.642 253.933 222.021C252.921 220.401 252.146 218.619 251.225 216.941C250.305 215.262 249.526 213.514 248.712 211.779C247.896 210.061 247.206 208.272 246.499 206.48C245.807 204.708 244.489 203.123 243.923 201.279C243.344 199.383 242.888 197.45 242.325 195.572C241.764 193.679 241.08 191.823 240.519 189.929C239.957 188.035 240.092 185.927 239.531 184.033C238.969 182.139 238.096 180.331 237.534 178.437C236.973 176.543 236.29 174.687 235.728 172.793C235.167 170.899 235.58 168.703 235 166.824C234.424 164.911 233.535 163.085 232.926 161.169C232.316 159.253 230.517 157.753 229.889 155.852C229.261 153.951 228.702 152.041 228.022 150.151C227.345 148.229 228.07 145.795 227.377 143.87C226.684 141.946 225.395 140.246 224.683 138.336C223.972 136.427 222.788 134.687 222.076 132.778C221.348 130.867 221.076 128.784 220.346 126.889C219.761 125.38 218.225 124.278 217.495 122.703C216.85 121.289 217 119.688 216.277 118.047C217.909 119.041 219.357 119.545 220.769 120.383C222.34 121.32 223.772 122.294 225.204 123.268C227.092 124.559 228.505 126.525 230.391 127.832C232.277 129.139 234.683 129.659 236.568 130.983C238.435 132.305 239.887 134.224 241.755 135.547C243.732 136.948 245.647 138.46 247.623 139.878C249.599 141.296 251.561 142.678 253.423 144.219C255.114 145.624 257.528 146.228 259.021 147.747C260.514 149.267 261.744 151.213 263.085 152.902C264.441 154.609 265.361 156.624 266.483 158.475C267.604 160.326 268.498 162.271 269.385 164.266C270.273 166.262 270.629 168.353 271.255 170.439C271.88 172.525 272.348 174.51 272.728 176.688C273.035 178.437 273.532 180.139 273.719 181.91C273.906 183.681 274.67 185.411 274.771 187.189C274.873 188.968 275.193 190.753 275.243 192.543C275.293 194.333 275.276 196.116 275.309 197.905C275.343 200.013 274.196 202.134 274.211 204.257C274.226 206.381 275.526 208.469 275.559 210.578C275.593 212.686 274.713 214.834 274.815 216.933C274.917 219.032 274.895 221.185 275.099 223.277C275.303 225.37 275.827 227.462 276.183 229.553C276.558 231.782 278.026 233.702 278.734 235.813C279.439 237.941 280.406 239.827 281.445 241.821C282.485 243.815 282.484 246.425 283.881 248.22C285.144 249.85 286.477 251.454 287.816 252.991C289.156 254.528 290.824 255.829 292.274 257.276C293.725 258.724 295.63 259.68 297.173 261.052C299.469 263.11 301.637 265.44 304.721 266.08C306.502 266.451 308.552 265.535 310.314 265.92C312.077 266.306 313.706 267.334 315.482 267.754C317.241 268.173 319.139 268.067 320.899 268.485C322.658 268.904 324.504 268.978 326.267 269.363C328.458 269.843 330.515 270.798 332.713 271.211C334.911 271.625 337.019 272.585 339.225 272.915C341.432 273.246 343.71 273.044 345.941 273.31C348.171 273.575 350.341 274.255 352.563 274.436C353.7 274.52 354.811 274.855 355.945 274.972C357.795 275.165 359.667 275.477 361.502 275.482C363.353 275.506 365.17 274.398 367.017 274.304C368.863 274.209 370.774 275.115 372.611 274.953C374.447 274.79 376.268 274.457 378.119 274.312C379.971 274.168 381.816 274.41 383.646 274.314C384.661 274.268 385.797 272.584 387.016 272.037C384.67 271.103 381.93 271.037 379.714 270.15C377.4 269.236 375.295 267.923 373.029 267.031C371.038 266.251 369.498 264.694 367.728 263.567C365.958 262.44 364.493 260.974 362.862 259.643C361.231 258.311 359.327 257.339 357.731 255.994C356.152 254.651 354.88 252.953 353.321 251.579C351.762 250.204 350.333 248.709 348.811 247.304C347.289 245.9 345.087 245.2 343.605 243.732C342.123 242.265 340.529 240.903 339.101 239.408C337.596 237.837 336.28 236.067 334.797 234.448C333.331 232.83 332.477 230.67 331.048 229.023C329.618 227.376 327.819 226.044 326.463 224.337C325.09 222.628 324.372 220.465 323.089 218.698C321.938 217.131 320.529 215.772 319.414 214.174C318.3 212.576 317.001 211.128 315.905 209.515C314.809 207.903 314.054 206.09 312.976 204.462C311.897 202.851 310.022 201.764 308.942 200.153C307.863 198.542 306.603 197.047 305.523 195.436C304.444 193.825 304.436 191.467 303.321 189.869C302.207 188.272 300.91 186.807 299.759 185.239C298.52 183.544 297.528 181.74 296.412 179.991C295.296 178.241 293.661 176.791 292.601 174.997C291.54 173.203 290.928 171.152 289.922 169.313C288.917 167.475 286.998 166.164 285.974 164.34C284.95 162.516 284.966 160.092 283.923 158.3C283.707 157.941 282.698 157.112 282.311 155.977C284.373 156.562 286.348 157.659 287.916 158.294C289.598 158.974 291.547 159.025 293.229 159.705C294.911 160.385 296.429 161.502 298.127 162.184C299.826 162.865 301.238 164.191 302.918 164.888C304.598 165.584 306.301 166.216 307.98 166.929C309.658 167.642 311.647 167.63 313.304 168.392C315.17 169.242 316.873 170.362 318.644 171.321C320.429 172.298 321.814 173.89 323.486 174.99C325.157 176.09 327.079 176.896 328.65 178.153C330.221 179.411 331.243 181.252 332.698 182.649C334.154 184.047 335.877 185.135 337.182 186.685C338.472 188.217 340.506 189.236 341.662 190.923C342.817 192.609 342.685 195.02 343.679 196.807C344.616 198.488 345.467 200.193 346.351 201.901C347.235 203.61 348.226 205.262 349.039 206.997C349.87 208.733 350.331 210.617 351.108 212.381C351.885 214.146 353.546 215.514 354.27 217.307C354.993 219.1 355.438 220.982 356.145 222.773C356.852 224.564 358.155 226.131 358.845 227.92C359.639 230.007 360.609 232.027 361.403 234.113C362.197 236.2 362.729 238.377 363.557 240.467C364.384 242.557 364.175 245.061 365.057 247.106C365.899 249.063 367.47 250.641 368.559 252.32C369.707 254.089 370.856 255.842 372.252 257.318C373.649 258.793 375.647 259.674 377.343 260.861C379.008 262.027 380.806 262.888 382.72 263.76C384.635 264.633 386.504 264.962 388.552 265.528C390.189 265.985 391.602 267.31 393.249 267.667C395.592 268.146 398.009 269.205 400.313 268.923C402.36 268.681 404.374 268.115 406.39 267.685C408.406 267.254 410.634 267.536 412.627 267.002C414.552 266.478 416.222 265.001 418.158 264.529C420.094 264.057 422.116 263.896 424.049 263.457C425.981 263.018 428.032 263.063 429.995 262.66C431.958 262.258 433.856 261.664 435.815 261.295C437.774 260.926 439.764 260.745 441.72 260.409C443.676 260.074 445.638 259.671 447.607 259.371C449.182 259.13 450.482 257.649 452.021 257.27C453.56 256.891 455.104 256.462 456.643 256.083C458.302 255.683 459.883 257.329 460.168 258.638C460.527 260.208 460.185 260.745 458.743 261.488C457.102 262.361 455.786 263.841 454.107 264.593C452.429 265.345 450.629 265.798 448.856 266.321C447.083 266.844 445.323 266.762 443.419 266.918C441.718 267.078 439.972 267.503 438.283 267.866C436.594 268.229 434.854 268.436 433.205 268.905C431.555 269.373 429.942 269.98 428.295 270.432C426.37 270.956 424.404 271.392 422.479 271.916C420.553 272.457 418.638 273.049 416.711 273.59C414.785 274.131 412.835 274.568 410.909 275.109C408.983 275.65 407.033 276.087 405.107 276.628C403.18 277.169 401.537 278.716 399.61 279.256C397.684 279.797 395.746 280.286 393.82 280.827C391.893 281.368 390.043 282.152 388.099 282.691C386.191 283.217 384.234 283.57 382.329 284.062C380.425 284.555 378.359 284.492 376.454 284.984C374.55 285.477 372.688 286.21 370.781 286.719C368.875 287.228 366.944 287.65 365.048 288.228C363.151 288.806 361.217 289.261 359.36 289.944C357.294 290.689 355.516 292.239 353.476 293.054C351.435 293.886 349.343 294.562 347.314 295.445C345.284 296.329 343.134 296.914 341.137 297.818C339.139 298.722 337.463 300.417 335.467 301.304C333.471 302.191 330.826 301.698 328.799 302.565C326.806 303.418 325.107 305.01 323.128 305.899C321.148 306.788 318.881 307.041 316.887 307.911C314.891 308.799 313.468 310.975 311.476 311.829C309.466 312.681 306.923 312.181 304.904 312.965C302.885 313.748 300.855 314.48 298.796 315.159C296.981 315.762 295.543 317.6 293.704 318.116C291.864 318.632 289.653 317.695 287.791 318.108C285.928 318.52 284.128 319.142 282.257 319.469C280.387 319.797 278.513 320.158 276.619 320.382C274.726 320.607 272.937 322.088 271.036 322.227C269.134 322.366 267.165 321.859 265.254 321.929C263.343 322 261.428 322.593 259.508 322.579C257.589 322.564 255.653 322.549 253.741 322.468C251.83 322.37 249.922 322.088 248.001 321.922C245.831 321.73 243.654 321.757 241.477 321.631C239.3 321.506 237.153 320.761 234.983 320.569C232.812 320.378 230.61 320.166 228.457 319.807C226.304 319.449 224.447 318.026 222.341 317.37C220.561 316.831 218.603 316.864 216.824 316.308C215.045 315.753 213.268 315.181 211.491 314.609C209.714 314.037 207.832 313.825 206.055 313.253C204.278 312.681 202.598 311.816 200.838 311.246C199.077 310.676 197.23 310.298 195.452 309.726C194.816 309.526 194.945 309.421 193.98 308.816C196.117 308.196 197.664 307.093 199.684 306.293C201.705 305.492 203.988 305.09 205.971 304.167C207.954 303.245 209.502 301.318 211.457 300.342C213.43 299.352 215.204 298.004 217.174 297.046C219.145 296.072 221.299 295.454 223.312 294.569C225.271 293.711 227.272 292.942 229.24 292.322C231.262 291.673 233.25 290.701 235.313 290.309C237.375 289.917 239.571 289.707 241.674 289.572C243.759 289.452 245.957 289.377 248.081 289.53C250.205 289.684 252.15 290.913 254.246 291.333C256.309 291.749 258.366 292.216 260.426 292.665C262.485 293.115 264.458 293.91 266.514 294.393C268.57 294.876 270.596 295.49 272.635 295.972C274.674 296.453 276.745 296.954 278.801 297.437C280.857 297.92 282.997 298.075 285.059 298.508C287.02 298.931 289.224 298.15 291.19 298.522C293.157 298.895 295.069 299.464 297.047 299.72C299.026 299.976 300.945 301.287 302.942 301.36C304.94 301.433 306.997 301.091 308.986 300.927C310.974 300.763 313.004 300.519 314.974 300.051C316.857 299.606 318.596 298.591 320.454 298.06C322.312 297.529 324.04 296.631 325.89 296.015C327.74 295.399 329.501 294.672 331.336 294.038C333.154 293.402 335.171 293.291 337.006 292.657C339.158 291.887 341.55 291.731 343.693 290.893C345.819 290.053 347.732 288.669 349.859 287.812C351.987 286.955 354.272 286.536 356.398 285.696C357.014 285.44 358.099 284.239 359.589 283.518C357.599 283.211 355.084 282.612 353.24 282.353C351.265 282.064 349.324 282.098 347.466 281.821C345.608 281.544 343.66 281.156 341.775 280.809C339.84 280.456 337.764 280.813 335.83 280.46C333.895 280.108 332.012 279.424 330.077 279.071C328.142 278.719 326.257 278.051 324.326 277.665C322.395 277.279 320.519 276.68 318.593 276.245C316.667 275.809 314.477 276.457 312.574 275.956C310.737 275.479 309.192 273.803 307.359 273.444C305.526 273.085 303.503 273.582 301.64 273.355C299.776 273.128 297.935 272.364 296.061 272.236C294.187 272.109 292.271 272.23 290.403 272.204C288.536 272.179 286.629 272.199 284.755 272.24C282.88 272.281 280.997 272.406 279.118 272.497C277.238 272.588 275.42 273.544 273.537 273.668C271.585 273.802 269.598 273.31 267.645 273.292C265.692 273.274 263.75 272.837 261.8 272.786C259.851 272.735 257.873 272.479 255.926 272.563C253.982 272.63 252.019 272.712 250.072 272.796C248.126 272.881 246.199 273.59 244.253 273.674C242.306 273.758 240.321 273.08 238.375 273.164C236.428 273.248 234.49 273.737 232.542 273.838C230.596 273.922 228.635 273.988 226.688 274.072C224.742 274.156 222.824 275.102 220.878 275.186C218.931 275.27 216.989 275.472 215.041 275.573C213.095 275.657 211.079 274.302 209.133 274.386C207.203 274.472 205.338 275.878 203.414 275.914C201.489 275.95 199.541 276.051 197.623 276.02C195.706 275.989 193.801 275.185 191.876 275.069C189.95 274.953 188.019 275.055 186.105 274.823C184.192 274.59 182.324 274.076 180.441 273.712C178.558 273.348 176.545 273.426 174.694 272.913C172.844 272.401 171.076 271.577 169.259 270.9C167.168 270.11 165.394 268.529 163.348 267.626C161.302 266.723 159.145 266.077 157.143 265.078C155.141 264.078 152.806 263.684 150.847 262.588C149.047 261.593 147.25 260.564 145.488 259.522C143.726 258.48 141.826 257.626 140.068 256.551C138.309 255.476 136.527 254.466 134.769 253.39C133.01 252.315 131.332 251.114 129.59 250.04C127.848 248.967 126.254 247.605 124.511 246.548C123.799 246.104 123.258 244.987 122.422 244.277L122.313 244.35Z" fill="black" fill-opacity="0.05" shape-rendering="crispEdges"/>
</g>
<defs>
<filter id="filter0_d_519_1192" x="0.980469" y="0.921875" width="463.32" height="329.656" filterUnits="userSpaceOnUse" color-interpolation-filters="sRGB">
<feFlood flood-opacity="0" result="BackgroundImageFix"/>
<feColorMatrix in="SourceAlpha" type="matrix" values="0 0 0 0 0 0 0 0 0 0 0 0 0 0 0 0 0 0 127 0" result="hardAlpha"/>
<feOffset dy="4"/>
<feGaussianBlur stdDeviation="2"/>
<feComposite in2="hardAlpha" operator="out"/>
<feColorMatrix type="matrix" values="0 0 0 0 0 0 0 0 0 0 0 0 0 0 0 0 0 0 0.25 0"/>
<feBlend mode="normal" in2="BackgroundImageFix" result="effect1_dropShadow_519_1192"/>
<feBlend mode="normal" in="SourceGraphic" in2="effect1_dropShadow_519_1192" result="shape"/>
</filter>
</defs>
</svg>
