<svg width="348" height="439" viewBox="0 0 348 439" fill="none" xmlns="http://www.w3.org/2000/svg">
<path opacity="0.5" d="M260.999 106.357C259.939 107.032 259.269 108.278 258.339 109.075C257.399 109.892 256.389 110.628 255.549 111.537C254.709 112.456 254.209 113.662 253.439 114.643C252.669 115.623 252.029 116.686 251.289 117.687C250.549 118.688 249.679 119.597 248.949 120.599C248.219 121.6 246.919 122.162 246.149 123.132C245.399 124.072 244.969 125.278 244.239 126.238C243.509 127.198 242.699 128.087 241.969 129.037C241.239 129.987 240.799 131.182 240.049 132.122C239.299 133.052 238.219 134.094 237.429 135.003C237.799 133.818 237.859 132.235 238.229 131.05C238.599 129.865 239.309 128.792 239.679 127.607C240.049 126.422 240.609 125.298 240.979 124.113C241.349 122.928 241.609 121.702 241.979 120.527C242.349 119.352 243.189 118.31 243.559 117.125C243.929 115.94 243.719 114.571 244.089 113.386C244.459 112.201 244.999 111.067 245.359 109.882C245.719 108.697 246.349 107.594 246.699 106.398C247.049 105.203 247.279 103.977 247.619 102.782C247.959 101.587 248.399 100.422 248.729 99.2266C249.059 98.0313 249.339 96.8156 249.659 95.6101C249.979 94.4046 249.619 93.0255 249.919 91.82C250.219 90.6145 250.509 89.4192 250.799 88.2035C251.089 86.9878 252.189 85.9662 252.459 84.7403C252.729 83.5144 253.029 82.2986 253.269 81.0727C253.509 79.8468 253.329 78.5289 253.569 77.303C253.799 76.0771 254.169 74.8716 254.389 73.6354C254.609 72.3993 255.079 71.2142 255.299 69.9883C255.519 68.7624 255.649 67.5058 255.859 66.2697C256.069 65.0335 256.429 63.828 256.639 62.5919C256.849 61.3558 256.989 60.1094 257.199 58.8835C257.409 57.6576 257.699 56.4316 257.929 55.2057C258.159 53.9798 258.339 52.7436 258.579 51.5177C258.819 50.2918 259.119 49.0761 259.379 47.8604C259.639 46.6447 259.959 45.4392 260.229 44.2132C260.499 42.9873 260.189 41.6695 260.489 40.4537C260.199 40.2903 260.119 40.2188 259.829 40.0553C259.019 40.9645 258.329 41.9657 257.509 42.8647C256.689 43.7637 255.799 44.6117 254.989 45.5209C254.179 46.4301 253.119 47.1248 252.329 48.0545C251.479 49.0454 250.739 50.1283 249.889 51.1193C249.039 52.1102 248.129 53.0399 247.289 54.0411C246.449 55.032 245.539 55.9719 244.719 56.9935C243.899 58.0049 243.469 59.333 242.689 60.3852C241.949 61.3762 241.159 62.2956 240.489 63.3172C239.819 64.3388 239.009 65.2889 238.419 66.3616C237.829 67.4343 237.729 68.7624 237.219 69.8759C236.709 70.9895 235.399 71.7761 234.979 72.9305C234.559 74.0849 234.619 75.4232 234.289 76.6185C233.959 77.8138 233.279 78.9273 233.049 80.1431C232.819 81.3588 233.479 82.6971 233.349 83.9332C233.209 85.2204 232.239 86.4259 232.119 87.7234C231.999 89.0208 231.879 90.3182 231.779 91.6055C231.679 92.8927 232.369 94.2616 232.279 95.5488C232.189 96.8361 231.229 98.0722 231.139 99.3696C231.049 100.667 231.109 101.975 231.019 103.262C230.929 104.549 230.879 105.857 230.789 107.144C230.689 108.441 231.359 109.8 231.269 111.098C231.179 112.395 230.709 113.662 230.619 114.959C230.529 116.257 230.769 117.585 230.679 118.882C230.589 120.18 230.519 121.477 230.419 122.775C230.319 124.072 230.129 125.359 230.019 126.657C229.909 127.954 229.899 129.262 229.779 130.559C229.699 131.52 229.149 132.48 228.899 133.43C228.649 134.38 228.369 135.34 228.029 136.239C227.579 137.435 226.589 138.405 226.139 139.6C225.689 140.785 225.579 142.114 225.129 143.309C224.679 144.504 224.219 145.679 223.759 146.864C223.299 148.049 223.039 149.316 222.569 150.501C222.099 151.686 221.459 152.789 220.979 153.974C220.499 155.159 220.129 156.375 219.639 157.55C219.179 158.633 218.029 159.287 217.299 160.257C216.569 161.228 216.099 162.362 215.399 163.312C214.649 164.333 213.639 165.161 212.879 166.172C212.119 167.184 211.869 168.594 211.109 169.615C210.349 170.637 209.789 171.801 209.029 172.813C208.269 173.824 207.339 174.713 206.589 175.735C205.839 176.756 205.079 177.768 204.329 178.789C203.579 179.811 203.039 180.996 202.289 182.017C201.599 182.967 200.869 183.887 200.179 184.837C199.489 185.787 198.839 186.768 198.149 187.718C197.459 188.668 196.309 189.261 195.609 190.211C194.909 191.161 194.199 192.08 193.479 193.02C192.759 193.96 191.899 194.757 191.169 195.676C190.439 196.596 190.339 197.597 189.589 198.506C190.119 196.831 190.679 195.411 191.189 193.725C191.529 192.601 191.699 191.416 192.049 190.292C192.399 189.169 192.049 187.82 192.399 186.696C192.749 185.573 193.229 184.49 193.579 183.366C193.919 182.242 194.909 181.323 195.249 180.199C195.589 179.075 195.749 177.89 196.079 176.756C196.409 175.622 196.789 174.509 197.119 173.385C197.429 172.302 197.459 171.127 197.779 170.034C198.099 168.941 198.229 167.807 198.549 166.724C198.869 165.641 199.119 164.538 199.419 163.445C199.719 162.352 200.359 161.361 200.649 160.267C200.939 159.174 201.629 158.173 201.889 157.08C202.149 155.987 202.079 154.792 202.309 153.678C202.579 152.381 203.109 151.124 203.329 149.806C203.549 148.488 203.859 147.191 204.049 145.873C204.239 144.555 204.349 143.227 204.519 141.909C204.689 140.591 204.669 139.243 204.829 137.925C204.989 136.607 205.199 135.299 205.379 133.982C205.559 132.653 205.319 131.264 205.499 129.926C205.679 128.588 206.069 127.29 206.249 125.962C206.429 124.634 206.779 123.316 206.939 121.988C207.099 120.66 207.379 119.332 207.519 117.993C207.669 116.584 207.109 115.113 207.209 113.703C207.309 112.293 208.169 110.924 208.239 109.514C208.309 108.104 207.909 106.664 207.979 105.254C208.059 103.722 208.169 101.709 205.979 100.851C205.049 102.271 203.819 103.916 203.009 105.469C202.439 106.552 201.889 107.645 201.329 108.728C200.769 109.81 200.229 110.914 199.669 111.997C199.109 113.08 198.989 114.408 198.419 115.491C197.849 116.573 197.019 117.513 196.459 118.596C195.899 119.679 195.129 120.66 194.569 121.743C194.009 122.826 193.309 123.837 192.749 124.93C192.189 126.023 191.619 127.106 191.059 128.189C190.499 129.272 190.269 130.539 189.699 131.622C189.129 132.705 188.169 133.573 187.599 134.656C187.029 135.739 186.689 136.944 186.129 138.027C185.569 139.11 184.989 140.193 184.429 141.276C183.859 142.379 183.829 143.697 183.429 144.841C183.019 145.996 182.769 147.14 182.539 148.345C182.309 149.53 181.319 150.644 181.269 151.911C181.219 153.086 181.979 154.301 181.929 155.476C181.879 156.651 181.879 157.836 181.819 159.021C181.759 160.206 181.269 161.361 181.209 162.535C181.149 163.71 181.259 164.906 181.189 166.08C181.119 167.255 180.929 168.43 180.859 169.605C180.789 170.78 181.049 171.985 180.969 173.16C180.889 174.335 180.689 175.51 180.619 176.685C180.549 177.859 179.989 179.004 179.909 180.179C179.829 181.353 179.929 182.549 179.849 183.723C179.759 184.96 180.099 186.237 180.009 187.473C179.919 188.709 179.809 189.955 179.699 191.191C179.589 192.428 179.599 193.684 179.469 194.92C179.339 196.156 179.219 197.403 179.059 198.639C178.899 199.875 178.629 201.101 178.429 202.327C178.229 203.553 177.819 204.748 177.569 205.964C177.329 207.18 176.409 208.242 176.119 209.447C175.829 210.653 175.909 211.95 175.559 213.146C175.209 214.331 174.719 215.465 174.309 216.64C174.169 217.038 173.709 217.488 173.689 217.906C173.609 219.245 173.979 220.583 173.699 221.829C173.409 223.117 173.269 224.475 172.799 225.681C172.329 226.886 171.799 228.133 171.189 229.287C170.579 230.441 169.369 231.218 168.659 232.321C167.959 233.404 167.509 234.671 166.739 235.733C166.029 236.724 165.569 237.889 164.869 238.9C164.169 239.912 163.499 240.913 162.809 241.924C162.119 242.936 160.749 243.457 160.069 244.468C159.389 245.479 158.709 246.491 158.019 247.502C157.329 248.514 156.899 249.699 156.189 250.69C155.479 251.681 155.009 252.855 154.269 253.826C153.549 254.776 152.289 255.246 151.499 256.145C150.709 257.044 150.299 258.27 149.479 259.138C148.659 260.007 147.819 260.834 146.989 261.692C146.159 262.55 145.579 263.633 144.779 264.512C144.049 265.309 143.129 265.942 142.409 266.749C141.689 267.556 140.779 268.2 140.059 269.007C139.329 269.814 138.349 270.366 137.609 271.163C136.869 271.959 136.649 273.257 135.889 274.033C134.919 275.034 133.859 275.954 132.869 276.935C131.879 277.915 130.519 278.498 129.509 279.458C128.499 280.418 127.779 281.695 126.749 282.635C125.899 283.422 124.709 283.81 123.849 284.586C122.989 285.363 122.459 286.517 121.589 287.283C120.719 288.05 119.749 288.683 118.879 289.449C118.009 290.215 117.379 291.258 116.509 292.024C115.659 292.769 114.459 293.096 113.599 293.852C112.739 294.608 111.899 295.344 111.049 296.09C110.199 296.835 109.399 297.632 108.539 298.388C107.679 299.144 106.939 300.002 106.079 300.758C105.219 301.514 104.319 302.168 103.459 302.924C102.599 303.68 101.959 304.641 101.089 305.407C100.219 306.173 99.5894 306.582 98.7194 307.348C98.9094 305.703 98.8794 304.855 99.2694 303.854C99.7194 302.72 99.7694 301.422 100.159 300.278C100.549 299.134 100.579 297.857 100.919 296.692C101.259 295.528 101.789 294.414 102.079 293.239C102.369 292.054 102.999 290.951 103.239 289.756C103.479 288.56 103.839 287.375 104.029 286.17C104.219 284.964 103.789 283.667 103.939 282.462C104.089 281.256 104.699 280.102 104.809 278.876C104.919 277.65 104.589 276.414 104.659 275.198C104.729 273.921 104.809 272.634 104.949 271.367C105.089 270.1 105.219 268.823 105.389 267.556C105.559 266.29 106.139 265.084 106.279 263.817C106.419 262.55 106.369 261.263 106.449 259.996C106.519 258.842 106.229 257.677 106.279 256.523C106.329 255.369 106.599 254.224 106.639 253.08C106.679 251.936 107.369 250.792 107.399 249.637C107.429 248.483 106.759 247.308 106.779 246.164C106.799 245.02 106.999 243.855 107.019 242.701C107.039 241.546 106.779 240.392 106.799 239.237C106.829 237.736 106.959 236.081 108.439 235.233C108.999 234.916 109.989 234.814 110.289 234.211C110.879 233.057 111.409 231.882 112.009 230.727C112.609 229.573 112.639 228.122 113.229 226.978C113.819 225.834 114.889 224.935 115.479 223.781C116.069 222.626 116.669 221.482 117.249 220.328C117.829 219.173 118.269 217.937 118.839 216.772C119.409 215.608 119.849 214.382 120.399 213.207C120.929 212.073 121.889 211.154 122.429 210.02C122.969 208.886 123.159 207.588 123.709 206.464C124.249 205.341 124.599 204.115 125.139 202.981C125.679 201.847 126.319 200.774 126.859 199.64C127.399 198.506 128.049 197.433 128.579 196.299C129.109 195.165 129.399 193.919 129.909 192.775C130.419 191.631 131.119 190.578 131.609 189.424C132.099 188.27 132.269 186.982 132.739 185.818C133.209 184.653 133.779 183.54 134.229 182.375C134.679 181.21 135.589 180.219 136.009 179.034C136.429 177.849 136.279 176.47 136.669 175.275C137.059 174.09 137.689 172.976 138.039 171.771C138.389 170.565 138.709 169.36 139.019 168.144C139.329 166.928 139.299 165.641 139.569 164.415C139.709 163.751 140.139 163.373 140.359 162.26C138.979 162.392 137.999 162.73 136.929 163.251C135.749 163.833 134.609 164.405 133.659 165.192C132.619 166.06 131.429 166.755 130.389 167.633C129.349 168.512 128.509 169.646 127.489 170.545C126.469 171.444 125.569 172.486 124.599 173.436C123.629 174.386 122.319 175.03 121.419 176.051C120.539 177.063 120.229 178.534 119.529 179.709C118.829 180.883 118.069 181.977 117.449 183.192C116.829 184.408 116.219 185.624 115.559 186.799C114.989 187.82 114.219 188.729 113.739 189.782C113.259 190.834 112.809 191.927 112.379 193.01C111.949 194.093 111.519 195.176 111.129 196.279C110.739 197.372 110.979 198.69 110.599 199.793C110.219 200.886 109.829 201.99 109.439 203.093C109.049 204.196 108.369 205.433 107.939 206.515C107.859 205.596 108.049 204.329 107.939 203.41C107.829 202.49 107.319 201.612 107.359 200.692C107.409 199.528 107.499 198.353 107.559 197.188C107.619 196.024 107.229 194.828 107.289 193.653C107.349 192.479 108.169 191.355 108.239 190.19C108.309 189.026 107.959 187.83 108.029 186.655C108.099 185.491 108.319 184.326 108.389 183.162C108.459 181.997 107.959 180.791 108.019 179.627C108.079 178.462 108.629 177.318 108.689 176.143C108.749 174.968 109.079 173.834 109.229 172.69C109.379 171.546 109.809 170.443 110.029 169.309C110.249 168.175 110.289 167 110.589 165.876C110.879 164.752 111.009 163.577 111.359 162.474C111.709 161.371 111.939 160.216 112.349 159.123C112.759 158.03 113.059 156.896 113.509 155.823C113.959 154.751 114.429 153.678 114.909 152.626C115.389 151.574 115.959 150.552 116.469 149.51C117.029 148.366 117.879 147.365 118.399 146.21C118.919 145.056 119.349 143.84 119.839 142.665C120.329 141.49 120.689 140.254 121.119 139.059C121.549 137.864 122.089 136.699 122.459 135.473C122.829 134.247 122.879 132.95 123.169 131.703C123.459 130.457 123.489 129.19 123.689 127.923C123.879 126.687 124.419 125.512 124.619 124.287C124.819 123.061 124.839 121.794 125.049 120.558C125.269 119.332 125.549 118.116 125.769 116.89C125.989 115.664 126.039 114.408 126.249 113.182C126.459 111.956 126.679 110.73 126.879 109.494C127.079 108.258 127.879 107.134 128.059 105.898C128.239 104.662 127.779 103.344 127.939 102.108C128.089 100.871 128.529 99.6761 128.649 98.4298C128.769 97.1834 128.839 95.9473 128.919 94.7009C128.999 93.4546 129.649 92.2388 129.689 90.9823C129.729 89.7257 129.729 88.4691 129.709 87.2228C129.689 85.9764 129.679 84.7403 129.679 83.5041C129.679 82.268 129.059 81.0216 129.059 79.7855C129.059 78.5494 129.259 77.303 129.249 76.0566C129.239 74.8103 129.519 73.5639 129.499 72.3278C129.479 71.0916 129.339 69.8453 129.309 68.5989C129.279 67.3526 128.969 66.1266 128.929 64.8803C128.889 63.6339 128.519 62.4182 128.439 61.1821C128.369 59.9459 128.359 58.7098 128.259 57.4634C128.159 56.2171 128.229 54.9707 128.079 53.7448C127.929 52.5189 127.769 51.2827 127.589 50.0568C127.409 48.8718 127.219 47.6867 127.109 46.4914C126.999 45.2961 127.439 44.0396 127.279 42.8443C127.219 42.3437 126.409 42.4254 125.919 41.506C125.309 42.4357 124.519 42.4152 124.259 43.0793C123.799 44.2541 123.619 45.5311 123.149 46.706C122.679 47.8808 122.029 48.9637 121.569 50.1385C121.109 51.3134 120.479 52.4167 120.019 53.5814C119.559 54.7562 119.429 56.0639 118.969 57.2285C118.509 58.4033 117.999 59.5475 117.539 60.7224C117.079 61.8972 117.029 63.2253 116.569 64.4001C116.109 65.575 115.489 66.6783 115.039 67.8532C114.589 69.028 114.389 70.305 113.939 71.4799C113.559 72.4606 113.189 73.4005 112.949 74.4425C112.709 75.4845 112.349 76.4755 112.179 77.5175C111.969 78.7332 111.329 79.8672 111.129 81.0829C110.929 82.2986 111.069 83.5756 110.869 84.7914C110.669 86.0071 110.379 87.2126 110.189 88.4283C109.999 89.644 109.389 90.7882 109.189 92.0039C108.989 93.2196 109.099 94.4864 108.899 95.7021C108.699 96.9178 108.599 98.1539 108.389 99.3696C108.179 100.585 107.559 101.719 107.349 102.935C107.129 104.212 107.679 105.632 107.439 106.909C107.199 108.186 106.559 109.381 106.309 110.648C106.069 111.925 105.779 113.182 105.529 114.459C105.279 115.736 105.049 117.003 104.799 118.28C104.549 119.557 104.799 120.915 104.559 122.192C104.319 123.469 103.849 124.695 103.629 125.972C103.449 127.055 103.049 128.169 103.109 129.292C103.169 130.416 103.509 131.499 103.529 132.602C103.539 133.573 103.479 134.554 103.459 135.524C103.439 136.495 103.349 137.496 103.459 138.456C103.599 139.58 103.689 140.714 103.849 141.838C104.009 142.961 104.169 144.085 104.339 145.199C104.509 146.312 104.719 147.426 104.899 148.55C105.079 149.673 105.849 150.695 106.009 151.809C106.219 153.208 106.199 154.638 106.389 156.038C106.579 157.438 106.859 158.837 107.019 160.237C107.099 160.921 106.759 161.728 106.509 162.352C106.039 163.547 105.279 164.65 104.939 165.866C104.589 167.102 104.859 168.481 104.619 169.728C104.379 170.984 104.129 172.22 103.969 173.477C103.809 174.733 103.429 175.98 103.329 177.257C103.239 178.524 103.219 179.801 103.159 181.078C103.099 182.355 103.619 183.642 103.579 184.919C103.529 186.186 102.659 187.422 102.599 188.699C102.539 189.976 102.779 191.253 102.679 192.53C102.579 193.796 102.769 195.298 102.599 196.555C102.149 196.024 100.849 195.431 100.399 194.696C99.7794 193.674 99.5594 192.397 98.8694 191.457C98.1794 190.517 97.1594 189.812 96.3794 188.934C95.5994 188.055 94.8894 187.115 94.0294 186.318C93.1694 185.521 92.4394 184.551 91.4894 183.846C90.5394 183.141 89.4994 182.61 88.4794 182.007C87.4194 181.374 86.5294 180.444 85.4694 179.831C84.4094 179.208 83.2794 178.687 82.2194 178.074C81.1494 177.461 79.8394 177.298 78.7594 176.695C77.6794 176.092 76.8794 174.989 75.7994 174.396C74.7194 173.804 73.4994 173.477 72.4194 172.894C71.3394 172.312 70.2094 171.822 69.1194 171.239C68.2594 170.78 67.3794 170.197 66.3094 170.024C65.3694 169.881 63.9594 169.676 62.9094 169.452C63.0594 170.637 62.9394 171.699 63.1194 172.169C63.5494 173.344 64.1994 174.437 64.6394 175.612C65.0794 176.787 65.4994 177.962 65.9394 179.136C66.3794 180.311 66.8694 181.456 67.3094 182.63C67.7494 183.805 68.3594 184.909 68.7894 186.083C69.2194 187.258 69.7294 188.402 70.1494 189.587C70.5594 190.773 71.1094 191.907 71.4994 193.102C71.8794 194.256 72.2094 195.349 72.7694 196.351C73.3294 197.352 73.7594 198.527 74.4994 199.426C75.2294 200.314 76.4294 200.743 77.3094 201.54C78.2594 202.409 78.9994 203.522 79.9594 204.38C80.9194 205.238 81.5794 206.444 82.5494 207.302C83.5194 208.16 84.5894 208.875 85.5494 209.744C86.5094 210.612 87.4494 211.48 88.3994 212.359C89.3494 213.238 90.6794 213.687 91.5994 214.586C92.5094 215.465 93.1494 216.619 93.9694 217.579C94.7894 218.54 95.4894 219.592 96.2294 220.624C96.9694 221.656 97.3494 222.912 98.0294 223.985C98.7094 225.058 99.4594 226.059 100.089 227.152C100.719 228.245 101.679 229.154 102.279 230.278C102.839 231.34 102.729 232.75 102.679 233.986C102.629 235.243 102.409 236.489 102.369 237.756C102.329 239.013 102.749 240.279 102.719 241.536C102.679 242.793 102.489 244.039 102.449 245.296C102.409 246.552 102.669 247.819 102.629 249.075C102.589 250.332 102.839 251.599 102.779 252.855C102.719 254.112 101.769 255.317 101.689 256.574C101.609 257.831 101.549 259.077 101.449 260.323C101.349 261.58 101.869 262.888 101.739 264.134C101.609 265.401 101.499 266.667 101.389 267.944C101.279 269.211 100.499 270.427 100.399 271.704C100.289 272.981 100.929 274.319 100.819 275.586C100.709 276.853 100.569 278.13 100.439 279.397C100.309 280.663 99.5494 281.869 99.3994 283.136C99.2494 284.403 99.0494 285.649 98.8594 286.916C98.6694 288.182 99.2494 289.572 99.0194 290.828C98.7894 292.085 98.6394 293.372 98.3594 294.619C98.0794 295.865 97.2594 296.979 96.9194 298.204C96.5594 299.502 95.9694 300.707 95.4894 301.974C95.0094 303.241 94.9894 304.692 94.4394 305.928C93.8894 307.164 93.2194 308.349 92.6294 309.554C92.1794 310.474 91.7694 311.414 91.3094 312.323C90.8494 313.232 89.9194 313.896 89.4594 314.816C88.9994 315.735 88.4494 316.593 87.9994 317.513C87.4894 318.555 87.4394 319.903 86.7394 320.843C86.0494 321.773 85.3794 322.764 84.6294 323.663C83.8794 324.562 82.5194 324.94 81.8194 325.859C81.0594 326.871 80.6394 328.158 79.8794 329.169C79.1194 330.181 78.3094 331.151 77.5594 332.173C76.8094 333.194 76.4194 334.471 75.6894 335.513C74.9694 336.535 73.6294 337.117 72.9094 338.139C72.1894 339.161 71.8194 340.448 71.1094 341.48C70.3994 342.511 69.8394 343.656 69.1294 344.687C68.4194 345.719 67.6894 346.741 66.9794 347.773C66.2694 348.804 65.2594 349.622 64.5494 350.654C63.8394 351.685 62.9594 352.595 62.2494 353.626C61.5394 354.658 61.0794 355.874 60.3594 356.906C59.6394 357.927 59.1394 359.123 58.4094 360.144C57.6794 361.166 56.5494 361.881 55.8194 362.892C55.0794 363.904 54.3494 364.905 53.5894 365.906C52.8294 366.907 51.8994 367.745 51.1294 368.726C50.3594 369.706 50.0494 371.065 49.2694 372.046C48.4894 373.027 47.3994 373.732 46.6194 374.702C45.8394 375.673 45.3694 376.909 44.5894 377.879C43.8094 378.85 42.7694 379.606 41.9994 380.587C41.2294 381.567 40.6894 382.732 39.9194 383.723C39.2194 384.632 38.1994 385.276 37.4994 386.185C36.7994 387.094 36.1694 388.055 35.4694 388.964C34.7694 389.873 33.9194 390.66 33.2294 391.569C32.5394 392.478 32.0094 393.53 31.3194 394.44C30.6294 395.349 29.9994 396.319 29.3094 397.239C28.6194 398.158 28.2594 399.333 27.5794 400.242C26.8994 401.151 25.6994 401.683 25.0194 402.602C24.2994 403.562 23.4994 404.461 22.7794 405.422C22.0594 406.382 21.8594 407.741 21.1394 408.711C20.4194 409.682 19.2794 410.305 18.5694 411.276C17.8594 412.246 17.1694 413.227 16.4594 414.197C15.7494 415.168 15.2794 416.312 14.5694 417.283C13.8594 418.253 13.3694 419.387 12.6594 420.358C11.9494 421.328 11.1394 422.217 10.4294 423.187C9.71938 424.158 8.76937 424.945 8.05937 425.915C7.34937 426.886 6.26937 427.57 5.56938 428.541C4.90938 429.44 4.30938 430.41 3.68938 431.37C3.06938 432.331 2.95937 433.557 2.33938 434.527C1.75938 435.436 1.50937 436.254 0.859375 437.234C1.68937 437.796 2.50937 439.124 2.84938 438.9C3.69938 438.338 4.70937 438.92 5.66937 438.879C6.57937 438.849 7.38937 438.174 8.11937 437.183C8.80937 436.244 9.32938 435.181 10.0194 434.251C10.7094 433.322 11.7694 432.668 12.4594 431.738C13.1494 430.809 13.5794 429.664 14.2694 428.735C14.9694 427.805 15.5794 426.814 16.2694 425.884C16.9594 424.955 17.6994 424.056 18.3994 423.126C19.0994 422.197 20.2694 421.645 20.9694 420.725C21.6694 419.806 22.2794 418.805 22.9794 417.885C23.6794 416.966 24.1494 415.852 24.8494 414.933C25.5494 414.013 26.4394 413.237 27.1394 412.307C27.8794 411.327 28.3794 410.162 29.1294 409.191C29.8794 408.221 31.0494 407.598 31.8094 406.637C32.5694 405.677 33.1694 404.584 33.9294 403.624C34.6894 402.663 35.2594 401.54 35.9994 400.569C36.6994 399.65 37.2294 398.587 37.9294 397.668C38.6294 396.748 39.1994 395.727 39.8994 394.807C40.5994 393.888 41.9294 393.459 42.6194 392.529C43.3094 391.599 43.9994 390.67 44.6794 389.74C45.4094 388.739 45.9194 387.574 46.6294 386.573C47.3394 385.572 48.2594 384.714 48.9694 383.702C49.6794 382.691 50.3094 381.629 51.0194 380.627C51.7294 379.626 52.5894 378.727 53.3194 377.746C54.0594 376.756 54.2294 375.305 54.9794 374.324C55.7294 373.343 56.9494 372.73 57.7094 371.75C58.4694 370.769 58.6494 369.328 59.4094 368.348C60.1694 367.367 61.4794 366.836 62.2294 365.845C62.9794 364.854 63.7794 363.904 64.5094 362.903C65.1494 362.024 65.7194 361.278 66.4894 360.676C67.3194 360.022 68.0394 359.286 68.9894 359C69.9494 358.714 71.0094 358.111 72.0594 358.213C73.2894 358.336 74.4694 359.347 75.6794 359.337C76.9094 359.327 78.1394 358.939 79.3494 358.816C80.5594 358.694 81.8094 358.653 83.0194 358.448C84.2294 358.244 85.3794 357.733 86.5794 357.478C87.7794 357.222 88.9894 357.039 90.1794 356.763C90.9794 356.579 91.7994 356.528 91.8794 356.518C92.5794 357.294 93.4294 357.805 93.9794 358.469C94.6394 359.255 94.7694 360.512 95.4894 361.043C96.5594 361.83 97.8394 362.32 98.9194 363.086C99.9994 363.853 101.369 364.19 102.459 364.946C103.549 365.702 104.309 366.948 105.399 367.704C106.489 368.46 107.489 369.339 108.579 370.095C109.639 370.82 110.789 371.413 111.849 372.128C112.909 372.843 114.009 373.517 115.089 374.212C116.169 374.906 117.149 375.775 118.259 376.429C119.369 377.082 120.579 377.542 121.719 378.135C122.859 378.727 123.919 379.504 125.099 380.004C126.199 380.474 127.169 381.118 128.169 381.864C129.169 382.609 130.299 383.467 131.449 383.794C132.629 384.132 133.969 383.907 135.149 384.234C136.329 384.561 137.449 385.163 138.639 385.47C139.829 385.776 141.069 385.899 142.259 386.185C143.449 386.471 144.659 386.737 145.859 387.002C147.059 387.268 148.189 387.922 149.389 388.167C150.599 388.402 151.819 388.616 153.029 388.821C154.129 389.005 155.269 388.974 156.379 389.086C157.489 389.199 158.609 389.096 159.719 389.168C160.829 389.24 161.929 389.587 163.039 389.628C164.149 389.669 165.259 389.72 166.369 389.75C167.479 389.791 168.579 390.057 169.689 390.118C171.039 390.19 172.439 389.495 174.799 389.352C173.989 388.576 173.329 387.748 172.619 387.053C171.829 386.277 170.759 385.919 170.029 385.225C169.249 384.479 168.549 383.743 167.759 383.079C166.869 382.333 165.909 381.669 165.009 380.924C164.109 380.178 163.359 379.248 162.459 378.523C161.559 377.798 160.859 376.786 159.959 376.061C159.059 375.336 158.109 374.651 157.199 373.926C156.289 373.2 155.309 372.557 154.409 371.831C153.509 371.106 152.849 370.044 151.939 369.318C150.969 368.532 149.549 368.389 148.529 367.714C147.509 367.04 146.819 365.722 145.749 365.119C144.679 364.517 143.519 364.006 142.419 363.464C141.319 362.923 140.049 362.698 138.929 362.187C137.809 361.677 136.719 361.084 135.599 360.584C134.479 360.083 133.079 360.175 131.969 359.654C130.869 359.143 129.849 358.479 128.719 358.009C127.589 357.539 126.729 356.426 125.589 355.986C124.469 355.557 123.179 355.527 122.029 355.108C120.879 354.689 119.809 354.147 118.649 353.718C117.489 353.289 116.449 353.034 115.289 352.584C116.589 352.176 117.849 352.217 119.129 351.941C120.409 351.665 121.719 351.267 123.019 351.083C124.319 350.899 125.629 350.429 126.939 350.286C128.269 350.143 129.609 350.163 130.929 350.02C131.989 349.908 133.069 350.081 134.129 349.99C135.189 349.898 136.239 349.693 137.299 349.612C138.359 349.53 139.429 349.479 140.489 349.397C141.639 349.305 142.809 349.479 143.959 349.387C145.109 349.295 146.199 348.355 147.349 348.273C148.499 348.191 149.679 348.61 150.839 348.539C151.649 348.488 152.539 348.253 153.329 348.467C154.449 348.774 155.629 348.835 156.749 349.131C157.869 349.428 158.899 350.092 160.019 350.388C161.139 350.684 162.299 350.837 163.419 351.144C164.539 351.44 165.729 351.471 166.849 351.777C167.969 352.084 169.029 352.605 170.139 352.932C171.249 353.259 172.289 353.851 173.399 354.199C174.549 354.556 175.829 354.536 176.979 354.914C178.129 355.292 179.149 356.078 180.299 356.456C181.449 356.844 182.669 356.998 183.809 357.386C184.949 357.774 186.039 358.336 187.189 358.734C188.339 359.133 189.519 359.378 190.669 359.776C191.809 360.175 192.849 360.89 193.999 361.278C195.149 361.666 196.299 362.044 197.439 362.422C198.539 362.78 199.799 362.617 200.909 362.964C202.019 363.311 203.109 363.679 204.209 364.026C205.309 364.374 206.269 365.211 207.379 365.549C208.489 365.886 209.509 366.529 210.609 366.866C211.709 367.204 212.869 367.398 213.979 367.725C215.089 368.062 216.259 368.164 217.369 368.491C218.649 368.869 220.109 368.664 221.419 368.399C222.619 368.154 223.939 368.572 225.139 368.327C226.339 368.082 227.529 367.827 228.719 367.571C229.909 367.316 231.129 367.152 232.319 366.897C233.509 366.642 234.659 366.141 235.849 365.886C237.039 365.63 238.119 364.803 239.309 364.547C240.499 364.292 241.799 364.537 242.989 364.272C244.179 364.016 245.289 363.352 246.489 363.097C247.679 362.841 248.859 362.494 250.049 362.239C250.279 362.187 250.819 362.034 251.369 361.564C250.139 360.982 248.589 360.676 247.369 360.093C246.149 359.511 245.079 358.571 243.859 357.999C242.639 357.427 241.409 356.834 240.189 356.262C238.969 355.69 237.659 355.292 236.429 354.72C235.369 354.229 234.409 353.473 233.329 353.013C232.249 352.554 230.899 352.768 229.829 352.309C228.759 351.849 227.609 351.522 226.549 351.042C225.489 350.562 224.399 350.061 223.359 349.54C222.319 349.019 221.659 347.732 220.649 347.139C219.649 346.557 218.569 346.107 217.539 345.617C216.509 345.127 215.169 345.351 214.109 344.912C213.049 344.473 212.049 343.931 210.989 343.502C209.929 343.073 209.009 342.307 207.959 341.847C206.919 341.388 206.209 340.938 205.179 340.407C206.209 340.162 206.979 340.233 208.009 339.988C209.039 339.743 209.999 339.191 211.029 338.946C212.059 338.701 213.169 338.783 214.199 338.548C215.229 338.313 216.209 337.822 217.239 337.587C218.529 337.301 219.869 337.414 221.169 337.189C222.469 336.964 223.739 336.555 225.029 336.31C226.059 336.106 227.019 335.84 228.019 335.84C229.019 335.84 230.149 335.381 231.149 335.616C232.149 335.851 233.159 336.229 234.119 336.709C235.109 337.199 235.889 337.301 236.889 337.271C237.889 337.24 238.839 337.189 239.829 336.882C240.819 336.576 241.909 336.535 242.849 336.249C243.949 335.912 245.019 335.462 246.109 335.105C247.199 334.747 248.449 334.849 249.539 334.482C250.629 334.114 251.709 333.705 252.799 333.317C253.889 332.929 254.779 331.989 255.859 331.59C256.939 331.192 258.129 331.09 259.209 330.691C260.289 330.293 261.299 329.69 262.369 329.271C263.439 328.853 264.479 328.332 265.549 327.902C266.689 327.443 267.889 327.126 269.019 326.636C270.149 326.145 271.399 325.931 272.519 325.43C273.639 324.93 274.659 324.174 275.779 323.663C276.899 323.152 278.039 322.672 279.149 322.161C280.259 321.65 281.289 320.904 282.409 320.394C283.529 319.883 284.599 319.26 285.719 318.749C286.779 318.279 287.769 317.737 288.789 317.206C289.809 316.675 290.829 316.164 291.809 315.572C292.789 314.979 293.679 314.254 294.639 313.61C295.599 312.967 296.809 312.711 297.739 312.027C298.669 311.342 299.219 310.167 300.119 309.432C301.019 308.707 302.109 308.247 302.989 307.491C303.869 306.735 304.879 306.142 305.729 305.366C306.579 304.589 307.179 303.517 308.019 302.72C308.869 301.913 310.129 301.555 310.989 300.748C311.849 299.941 312.189 298.572 313.049 297.765C313.909 296.968 314.829 296.233 315.699 295.436C316.569 294.639 317.999 294.496 318.869 293.699C319.739 292.902 320.299 291.768 321.169 290.982C322.039 290.185 323.169 289.694 324.039 288.908C324.909 288.121 325.669 287.202 326.539 286.415C327.409 285.628 327.869 284.372 328.739 283.575C329.609 282.778 330.729 282.278 331.599 281.491C332.469 280.704 333.029 279.56 333.899 278.773C334.769 277.987 336.019 277.629 336.889 276.843C337.189 276.567 337.669 275.913 338.489 274.891C337.359 275.198 335.999 275.637 335.089 275.862C333.999 276.138 333.149 276.73 332.209 277.067C331.119 277.466 329.939 277.609 328.849 278.018C327.759 278.426 326.609 278.641 325.519 279.049C324.429 279.458 323.339 279.867 322.259 280.275C321.179 280.684 320.209 281.43 319.119 281.838C318.029 282.247 316.969 282.717 315.879 283.126C314.789 283.534 313.489 283.34 312.399 283.739C311.359 284.117 310.249 284.311 309.199 284.689C308.149 285.067 307.149 285.567 306.099 285.935C305.049 286.303 304.069 286.865 303.019 287.232C301.969 287.6 300.839 287.733 299.789 288.101C298.739 288.469 297.929 289.521 296.879 289.899C295.839 290.277 294.699 290.41 293.659 290.798C292.559 291.217 291.549 291.87 290.459 292.32C289.369 292.77 288.199 293.004 287.109 293.474C286.019 293.944 285.039 294.639 283.959 295.119C282.879 295.589 281.509 295.375 280.429 295.845C279.409 296.294 278.449 296.866 277.419 297.305C276.399 297.745 275.649 298.858 274.629 299.298C273.609 299.737 272.259 299.41 271.249 299.859C270.239 300.309 269.529 301.484 268.529 301.964C267.529 302.444 266.319 302.495 265.329 303.006C264.339 303.517 263.229 303.782 262.239 304.293C261.249 304.804 260.249 305.294 259.269 305.826C258.289 306.357 257.639 307.501 256.669 308.042C255.699 308.584 254.819 309.289 253.869 309.851C252.919 310.413 251.749 310.617 250.799 311.209C249.849 311.802 248.969 312.486 248.049 313.099C247.009 313.794 246.009 314.54 244.989 315.265C243.969 315.991 242.739 316.42 241.729 317.155C240.719 317.891 239.749 318.688 238.749 319.454C237.749 320.22 237.019 321.323 236.029 322.09C235.039 322.856 233.649 323.091 232.659 323.867C231.669 324.644 230.909 325.716 229.929 326.482C228.999 327.208 228.219 328.168 227.239 328.74C226.259 329.312 225.069 329.639 224.019 330.078C222.969 330.518 221.739 330.477 220.629 330.804C219.529 331.131 218.549 331.968 217.419 332.203C216.189 332.459 214.929 332.51 213.699 332.755C212.469 333 211.149 332.755 209.919 332.99C208.689 333.235 207.619 334.339 206.389 334.574C205.159 334.808 203.819 334.42 202.589 334.655C201.359 334.89 200.199 335.513 198.969 335.748C197.739 335.983 196.519 336.28 195.289 336.515C194.059 336.75 192.849 337.117 191.619 337.352C190.389 337.587 189.069 337.332 187.839 337.557C186.149 337.873 184.419 338.272 182.709 338.496C182.619 338.19 182.289 337.383 182.199 337.076C183.399 336.412 184.759 335.891 185.959 335.248C187.159 334.604 188.369 333.971 189.569 333.307C190.769 332.643 191.979 332.03 193.149 331.315C194.119 330.712 195.199 330.273 196.169 329.67C197.139 329.067 197.849 328.025 198.809 327.412C199.769 326.799 200.689 326.104 201.649 325.471C202.609 324.838 204.019 324.93 204.969 324.276C205.919 323.622 206.509 322.457 207.449 321.793C208.449 321.078 209.779 320.843 210.769 320.108C211.759 319.372 212.689 318.565 213.659 317.809C214.629 317.053 215.479 316.134 216.439 315.378C217.399 314.622 218.529 314.06 219.489 313.304C220.449 312.538 221.019 311.261 221.979 310.494C222.779 309.861 223.489 309.115 224.259 308.441C225.029 307.767 226.029 307.358 226.799 306.673C227.569 305.989 228.369 305.345 229.159 304.692C230.279 303.762 231.629 303.129 232.809 302.26C233.999 301.382 234.949 300.248 235.939 299.175C236.699 298.358 237.349 297.428 238.089 296.59C238.839 295.753 239.629 294.966 240.359 294.118C241.089 293.27 241.839 292.443 242.569 291.595C243.299 290.747 244.019 289.889 244.749 289.041C245.479 288.193 246.479 287.58 247.209 286.722C247.939 285.863 248.329 284.719 249.059 283.871C249.649 283.187 250.529 282.778 251.209 281.981C251.749 281.348 252.309 280.357 253.019 279.53C251.409 279.795 250.459 280.142 249.629 280.388C248.499 280.715 247.279 280.715 246.159 281.052C245.039 281.389 244.099 282.359 242.979 282.717C241.859 283.074 240.579 282.921 239.469 283.299C238.359 283.677 237.449 284.638 236.349 285.046C235.249 285.455 233.809 284.954 232.719 285.393C231.629 285.833 230.749 286.793 229.669 287.283C228.599 287.764 227.459 288.111 226.409 288.642C225.369 289.163 224.199 289.408 223.149 289.929C222.109 290.45 221.459 291.809 220.419 292.32C219.379 292.831 218.159 292.994 217.119 293.505C216.069 294.016 214.969 294.414 213.919 294.915C212.869 295.415 211.819 295.916 210.769 296.417C209.719 296.917 208.529 297.111 207.479 297.612C206.429 298.112 205.689 299.287 204.629 299.788C203.569 300.288 202.439 300.585 201.379 301.085C200.279 301.606 199.069 301.892 198.009 302.475C196.949 303.057 196.019 303.905 194.999 304.549C193.969 305.202 193.049 305.989 192.049 306.694C191.049 307.399 190.089 308.124 189.129 308.87C188.169 309.616 187.289 310.453 186.359 311.24C185.429 312.027 184.459 312.742 183.549 313.569C182.649 314.387 181.259 314.662 180.369 315.51C179.429 316.409 178.999 317.88 178.049 318.78C177.099 319.668 176.009 320.414 175.049 321.303C174.089 322.192 173.289 323.244 172.329 324.133C171.369 325.022 170.219 325.686 169.269 326.574C168.319 327.463 167.609 328.618 166.659 329.517C165.709 330.416 164.329 330.834 163.389 331.744C162.389 332.714 161.449 333.756 160.499 334.808C159.549 335.861 159.179 337.352 158.229 338.435C157.279 339.518 156.089 340.254 155.129 341.316C153.999 341.428 152.789 341.173 151.619 341.285C150.449 341.398 149.359 341.847 148.189 341.949C147.019 342.052 145.849 341.735 144.689 341.847C143.539 341.96 142.379 342.021 141.219 342.144C140.059 342.266 138.939 342.665 137.789 342.797C136.589 342.94 135.379 342.94 134.189 343.083C132.999 343.227 131.849 343.839 130.659 343.993C129.469 344.146 128.219 343.86 127.019 344.023C125.819 344.187 124.719 344.994 123.519 345.157C122.329 345.321 121.059 344.922 119.869 345.086C118.679 345.249 117.449 345.137 116.249 345.311C115.009 345.484 113.859 346.312 112.619 346.485C111.379 346.659 110.099 346.547 108.859 346.731C107.619 346.915 106.349 346.874 105.109 347.068C103.869 347.262 102.699 347.905 101.469 348.11C100.229 348.324 98.9194 348.059 97.6794 348.294C96.4794 348.518 95.2894 348.886 94.0994 349.142C92.9094 349.397 91.8494 350.316 90.6494 350.592C89.4494 350.868 88.1194 350.459 86.9194 350.746C85.7294 351.021 84.5094 351.185 83.3194 351.471C82.1294 351.757 81.1294 352.86 79.9394 353.146C78.1094 353.575 76.9494 353.248 76.0594 352.983C75.1094 352.697 74.1294 352.053 73.0394 350.459C73.7394 349.55 74.9994 348.845 75.7094 347.926C76.4094 347.006 76.4194 345.525 77.1194 344.606C77.8194 343.686 78.6694 342.889 79.3794 341.97C80.0894 341.051 80.9694 340.274 81.6794 339.355C82.3894 338.435 83.0694 337.495 83.7894 336.586C84.5094 335.677 85.6894 335.146 86.4094 334.236C87.1094 333.348 87.7194 332.408 88.4494 331.539C89.1794 330.671 89.5994 329.547 90.3394 328.689C91.0794 327.831 91.7094 326.901 92.4294 326.033C93.1494 325.165 94.3394 324.674 95.0194 323.775C95.7094 322.866 96.1494 321.763 96.8894 320.904C97.6394 320.046 98.2894 319.086 99.0694 318.269C99.8494 317.451 100.529 316.491 101.339 315.704C102.149 314.918 103.219 314.397 104.049 313.61C104.879 312.824 105.639 311.986 106.459 311.199C107.279 310.413 108.399 309.943 109.199 309.136C110.089 308.237 110.629 306.98 111.519 306.081C112.409 305.182 113.149 304.13 114.039 303.231C114.929 302.332 116.019 301.637 116.909 300.748C117.809 299.859 118.549 298.807 119.449 297.918C120.349 297.03 121.639 296.56 122.539 295.671C123.439 294.782 123.909 293.434 124.809 292.555C125.709 291.676 126.669 290.849 127.579 289.97C128.489 289.092 129.269 288.07 130.169 287.192C131.069 286.313 132.039 285.496 132.949 284.617C133.879 283.718 135.189 283.228 136.089 282.298C136.989 281.368 137.589 280.132 138.519 279.243C139.449 278.355 140.519 277.609 141.539 276.822C142.539 276.046 143.769 275.637 144.929 275.014C145.979 274.452 146.869 273.359 147.699 272.327C148.529 271.295 148.969 270.059 149.629 269.027C150.359 267.883 151.609 267.301 152.509 266.422C153.409 265.544 154.389 264.737 155.469 264.042C156.549 263.347 157.279 261.989 158.439 261.406C159.579 260.834 161.079 260.987 162.249 260.436C163.129 260.017 164.239 259.843 164.989 259.271C165.929 258.546 166.949 258.086 167.929 257.524C168.939 256.942 169.929 256.451 170.979 256.012C172.029 255.573 173.109 255.266 174.209 254.929C175.309 254.592 176.199 253.468 177.329 253.213C178.459 252.958 179.609 252.825 180.739 252.61C181.869 252.396 183.099 252.784 184.229 252.58C185.359 252.375 186.439 251.854 187.559 251.63C188.839 251.374 190.009 250.608 191.289 250.342C192.559 250.066 193.869 249.964 195.139 249.688C196.409 249.413 197.699 249.188 198.979 248.932C200.259 248.677 201.629 248.963 202.909 248.749C204.189 248.534 205.389 247.666 206.679 247.502C207.989 247.339 209.379 247.768 210.609 247.41C211.839 247.053 213.169 246.756 214.369 246.266C215.569 245.776 216.569 244.764 217.759 244.233C218.949 243.702 219.979 242.762 221.179 242.282C222.379 241.802 223.719 241.597 224.969 241.25C226.489 240.821 227.739 239.544 229.029 238.481C229.979 237.695 231.239 237.307 232.189 236.52C233.139 235.733 233.749 234.528 234.699 233.741C235.649 232.955 236.609 232.188 237.559 231.402C238.509 230.615 239.849 230.319 240.799 229.542C241.749 228.766 242.489 227.704 243.439 226.917C244.389 226.13 245.199 225.17 246.149 224.383C247.099 223.597 248.279 223.106 249.229 222.32C250.179 221.533 250.969 220.552 251.919 219.766C252.869 218.979 253.619 217.947 254.569 217.161C255.519 216.374 256.619 215.792 257.569 215.005C258.519 214.218 259.349 213.289 260.299 212.502C261.249 211.715 262.279 211.041 263.229 210.255C264.179 209.468 265.519 209.182 266.469 208.395C267.289 207.721 267.949 206.842 268.799 206.168C269.649 205.494 270.539 204.983 271.409 204.309C272.219 203.675 272.799 202.817 273.669 202.123C272.519 201.683 271.459 201.448 270.359 201.234C269.169 200.999 268.029 200.866 266.879 200.835C265.729 200.805 264.489 200.457 263.329 200.58C262.169 200.703 261.069 201.407 259.919 201.622C258.769 201.837 257.669 202.306 256.519 202.552C255.449 202.776 254.279 202.552 253.209 202.817C252.139 203.083 251.029 203.195 249.969 203.512C248.829 203.849 247.789 204.534 246.659 204.881C245.529 205.228 244.449 205.79 243.319 206.137C242.189 206.485 240.899 206.332 239.769 206.689C238.639 207.047 237.489 207.353 236.359 207.721C235.229 208.089 234.279 209.049 233.149 209.417C231.959 209.795 230.749 210.081 229.579 210.52C228.409 210.959 227.089 211.011 225.929 211.46C224.759 211.91 223.699 212.666 222.529 213.095C221.359 213.524 220.149 213.851 219.049 214.443C218.099 214.954 217.339 215.761 216.419 216.333C215.499 216.905 214.549 217.406 213.639 217.988C212.729 218.57 211.849 219.234 210.919 219.766C209.979 220.307 208.889 220.583 207.909 221.012C206.829 221.492 205.599 221.625 204.569 222.166C203.539 222.708 202.439 223.198 201.429 223.801C200.419 224.404 199.679 225.466 198.699 226.11C197.719 226.753 196.839 227.55 195.869 228.214C194.899 228.878 193.889 229.481 192.929 230.155C191.969 230.83 190.699 231.044 189.729 231.708C188.759 232.372 188.069 233.455 187.079 234.099C186.089 234.742 185.209 235.56 184.209 236.162C183.209 236.765 181.959 236.929 180.919 237.48C179.779 238.083 178.669 238.788 177.559 239.462C176.449 240.136 175.159 240.535 174.069 241.24C172.979 241.955 172.159 243.089 171.089 243.814C170.079 244.488 169.649 245.888 168.799 246.828C167.699 248.054 166.329 249.014 165.219 250.23C164.979 250.066 164.459 249.801 164.219 249.637C164.849 248.534 166.119 247.727 166.749 246.624C167.379 245.52 167.629 244.192 168.299 243.109C168.989 241.996 169.569 240.8 170.259 239.677C170.949 238.553 172.009 237.674 172.699 236.561C173.389 235.447 174.269 234.446 174.959 233.333C175.649 232.219 175.619 230.625 176.319 229.512C177.019 228.398 178.069 227.52 178.779 226.406C179.489 225.303 180.259 224.24 180.979 223.137C181.629 222.146 182.479 221.278 183.119 220.276C183.759 219.275 184.229 218.152 184.869 217.15C185.509 216.149 186.449 215.342 187.089 214.341C187.729 213.34 187.909 212.032 188.549 211.031C189.189 210.03 189.679 208.926 190.319 207.925C190.959 206.924 192.089 206.25 192.729 205.249C193.369 204.248 193.519 202.919 194.169 201.918C194.819 200.917 195.459 199.916 196.119 198.925C196.779 197.934 197.379 196.902 198.049 195.921C198.719 194.941 199.599 194.103 200.279 193.122C200.949 192.141 201.549 191.11 202.229 190.129C202.909 189.148 203.379 188.014 204.069 187.054C204.759 186.094 205.599 185.225 206.309 184.275C207.019 183.325 207.879 182.487 208.599 181.537C209.319 180.587 210.389 179.933 211.129 179.004C211.869 178.074 212.559 177.114 213.319 176.194C214.039 175.326 214.799 174.458 215.439 173.518C216.079 172.588 216.429 171.464 217.109 170.565C218.149 169.186 219.379 168.665 221.009 169.584C221.999 170.146 223.069 170.371 224.079 170.504C225.089 170.637 226.179 170.351 227.239 170.228C228.299 170.105 229.309 169.768 230.349 169.595C231.509 169.39 232.739 169.533 233.899 169.288C235.059 169.043 236.109 168.338 237.269 168.073C238.419 167.807 239.739 168.277 240.889 168.001C242.039 167.725 243.019 166.714 244.169 166.428C245.359 166.142 246.549 165.845 247.729 165.539C248.909 165.232 250.159 165.161 251.339 164.814C252.519 164.466 253.649 163.986 254.809 163.598C255.969 163.21 257.359 163.445 258.499 162.985C259.639 162.525 260.609 161.636 261.719 161.095C262.829 160.554 263.919 160.012 264.989 159.379C266.009 158.776 267.009 158.112 268.099 157.642C269.189 157.172 270.509 157.223 271.559 156.682C272.579 156.15 273.319 155.047 274.349 154.516C275.379 153.985 276.479 153.617 277.509 153.096C278.539 152.575 279.649 152.217 280.669 151.686C281.689 151.155 282.539 150.276 283.559 149.735C284.579 149.203 285.709 148.877 286.729 148.335C287.749 147.794 288.829 147.375 289.839 146.823C290.849 146.271 291.969 145.904 292.969 145.332C294.109 144.688 294.919 143.421 296.059 142.778C297.199 142.134 298.329 141.47 299.459 140.806C300.589 140.132 302.009 139.958 303.099 139.222C304.189 138.487 305.239 137.67 306.269 136.842C307.299 136.015 308.199 135.044 309.139 134.104C309.879 133.369 310.679 132.694 311.449 131.979C312.219 131.264 312.699 130.283 313.379 129.497C314.089 128.669 314.919 127.964 315.599 127.116C316.279 126.268 317.099 125.543 317.819 124.736C318.529 123.929 319.129 122.979 319.959 122.264C320.759 121.579 321.919 121.426 322.889 120.885C323.969 120.292 324.619 118.892 325.549 117.646C326.279 116.665 326.869 115.644 327.849 114.489C326.499 114.643 325.359 114.438 324.099 114.581C322.749 114.735 321.439 114.745 320.169 114.898C318.839 115.051 317.629 116.012 316.349 116.155C315.069 116.298 313.649 115.664 312.349 115.807C311.239 115.94 310.179 117.013 309.079 116.992C307.849 116.972 306.629 116.533 305.429 116.625C304.209 116.716 303.009 117.013 301.819 117.217C300.619 117.421 299.389 117.524 298.219 117.82C297.049 118.116 295.959 118.77 294.799 119.138C293.639 119.505 292.589 120.149 291.439 120.578C290.289 121.007 289.099 121.242 287.969 121.712C286.839 122.182 285.639 122.458 284.529 122.958C283.419 123.459 282.449 124.276 281.339 124.787C280.269 125.278 279.309 125.972 278.259 126.524C277.209 127.076 275.929 127.157 274.899 127.75C273.869 128.342 272.889 129.006 271.859 129.589C270.829 130.171 270.019 131.182 268.979 131.744C267.999 132.275 266.599 131.989 265.599 132.5C264.599 133.011 263.699 133.716 262.719 134.237C261.739 134.758 260.639 135.105 259.669 135.667C258.709 136.219 258.109 137.404 257.169 137.996C256.229 138.589 255.139 138.936 254.199 139.539C253.259 140.142 252.559 141.174 251.599 141.725C250.639 142.277 249.339 142.175 248.319 142.624C247.239 143.105 246.409 144.044 245.429 144.668C244.439 145.301 243.669 146.18 242.739 146.905C241.809 147.63 240.759 148.161 239.869 148.938C238.979 149.704 237.699 150 236.809 150.777C235.919 151.553 235.189 152.483 234.259 153.208C233.329 153.934 232.589 154.935 231.599 155.558C230.609 156.181 229.569 156.477 228.479 156.947C229.239 156.018 229.559 154.843 230.319 153.913C231.079 152.983 232.009 152.207 232.749 151.257C233.479 150.307 234.399 149.51 235.099 148.529C235.799 147.548 236.349 146.466 237.069 145.516C237.829 144.504 238.299 143.268 239.059 142.257C239.819 141.245 240.729 140.356 241.489 139.335C242.249 138.313 243.509 137.7 244.269 136.689C245.029 135.677 245.459 134.4 246.229 133.399C246.999 132.388 247.639 131.285 248.419 130.283C249.199 129.282 250.379 128.618 251.169 127.627C251.849 126.769 252.289 125.707 252.949 124.838C253.609 123.97 254.099 122.948 254.759 122.08C255.419 121.212 256.279 120.486 256.969 119.638C257.659 118.79 258.049 117.656 258.789 116.839C259.519 116.032 260.339 115.266 261.139 114.5C261.999 113.682 263.079 113.09 263.959 112.283C264.839 111.476 265.869 110.852 266.769 110.076C267.669 109.3 268.199 108.033 269.119 107.287C270.039 106.541 271.189 106.061 272.149 105.356C273.109 104.651 274.339 104.365 275.329 103.722C276.319 103.078 276.989 101.842 278.029 101.27C279.059 100.708 280.029 100.136 280.999 99.5024C281.979 98.8588 283.319 98.7669 284.239 98.062C285.159 97.3571 285.599 96.0188 286.479 95.2628C287.359 94.4966 288.709 94.2718 289.549 93.4648C290.389 92.6475 290.809 91.4113 291.619 90.5634C292.429 89.7155 293.239 88.888 294.019 88.0196C294.799 87.1513 296.039 86.6915 296.799 85.8027C297.559 84.9139 297.699 83.4837 298.439 82.5745C299.179 81.6652 299.869 80.7152 300.609 79.8161C301.399 78.8456 302.269 77.9466 303.059 76.9761C303.849 76.0056 304.999 75.3313 305.779 74.3506C306.559 73.3698 307.539 72.5525 308.309 71.5616C309.079 70.5706 309.239 69.0893 309.999 68.0983C310.759 67.1074 311.859 66.3718 312.609 65.3707C313.359 64.3695 313.709 63.0516 314.459 62.0402C315.209 61.0288 316.699 60.5896 317.429 59.5782C318.169 58.5668 318.459 57.2183 319.189 56.1967C319.919 55.1751 320.529 54.0717 321.249 53.0399C321.949 52.049 323.059 51.3543 323.729 50.3429C324.399 49.3315 324.829 48.1566 325.479 47.135C326.129 46.1134 326.779 45.0816 327.409 44.0498C328.039 43.018 328.639 41.9555 329.249 40.9032C329.859 39.851 330.319 38.717 330.909 37.6545C331.499 36.5921 332.599 35.8157 333.169 34.743C333.739 33.6703 333.869 32.3524 334.419 31.2695C334.969 30.1866 335.679 29.1854 336.209 28.0923C336.739 26.9992 337.269 25.9061 337.779 24.8028C338.289 23.6994 338.719 22.5552 339.209 21.4417C339.699 20.3281 340.179 19.2044 340.659 18.0908C341.139 16.9773 341.769 15.925 342.239 14.8013C342.709 13.6775 343.279 12.5946 343.729 11.4606C344.179 10.3266 344.159 9.00877 344.589 7.86458C345.009 6.77146 345.699 5.7805 346.159 4.58523C346.559 3.55341 347.129 2.21511 347.619 0.96875C346.469 1.34674 345.089 1.8269 343.999 2.22532C342.909 2.62375 341.829 3.22649 340.759 3.676C339.689 4.12551 338.549 4.5648 337.509 5.08581C336.469 5.60683 335.439 6.24023 334.439 6.8634C333.439 7.4968 332.599 8.33451 331.659 9.07007C330.709 9.81584 329.909 10.7455 328.969 11.5117C328.029 12.2779 326.929 12.8194 325.999 13.5958C325.069 14.3722 323.759 14.6889 322.859 15.496C321.949 16.303 321.289 17.3859 320.399 18.2134C319.509 19.0409 318.959 20.226 318.099 21.0739C317.239 21.9218 316.199 22.5859 315.359 23.4645C314.519 24.343 313.239 24.7926 312.429 25.6916C311.439 26.7847 311.069 28.4499 310.119 29.5839C309.169 30.7179 307.899 31.576 306.989 32.7406C306.269 33.6703 305.689 34.7123 304.969 35.642C304.249 36.5716 303.609 37.5626 302.909 38.5127C302.209 39.4628 301.249 40.1983 300.559 41.1586C299.869 42.1087 299.699 43.447 299.019 44.4073C298.339 45.3677 297.509 46.2156 296.849 47.1861C296.189 48.1566 295.309 48.9739 294.659 49.9649C294.009 50.9558 293.409 51.957 292.769 52.9582C292.139 53.9491 291.519 54.9605 290.899 55.9617C290.279 56.9629 289.619 57.9436 289.019 58.955C288.419 59.9664 287.709 60.9165 287.129 61.9381C286.549 62.9597 286.559 64.3388 285.989 65.3707C285.399 66.4433 283.979 67.0461 283.399 68.129C282.829 69.2119 282.559 70.4685 281.999 71.5616C281.439 72.6547 281.009 73.8091 280.449 74.9022C279.889 75.9953 279.439 77.1497 278.869 78.2327C278.299 79.3156 277.379 80.2044 276.789 81.2873C276.199 82.3702 276.069 83.7085 275.459 84.7709" fill="#141414"/>
</svg>
